<?xml version="1.0" encoding="utf-8"?>
<!-- Generator: Adobe Illustrator 27.5.0, SVG Export Plug-In . SVG Version: 6.00 Build 0)  -->
<svg version="1.1" xmlns="http://www.w3.org/2000/svg" xmlns:xlink="http://www.w3.org/1999/xlink" x="0px" y="0px"
	 viewBox="0 0 450 450" style="enable-background:new 0 0 450 450;" xml:space="preserve">
<g id="BG">
	<rect x="0" y="0" style="fill:#2A5F7A;" width="450" height="450"/>
</g>
<g id="Objects">
	<g>
		<path style="fill:#1292A7;" d="M198.161,399.485c0,3.273-2.653,5.927-5.927,5.927c-3.273,0-5.927-2.653-5.927-5.927
			c0-3.273,2.653-22.9,5.927-22.9C195.508,376.585,198.161,396.212,198.161,399.485z"/>
		<path style="fill:#1292A7;" d="M233.377,423.486c0,3.273-2.653,5.927-5.926,5.927c-3.273,0-5.927-2.653-5.927-5.927
			c0-3.273,2.653-42.197,5.927-42.197C230.724,381.289,233.377,420.213,233.377,423.486z"/>
		<path style="fill:#1292A7;" d="M174.537,382.265c0,3.273-2.654,5.927-5.927,5.927c-3.273,0-5.927-2.653-5.927-5.927
			s2.653-22.9,5.927-22.9C171.884,359.365,174.537,378.992,174.537,382.265z"/>
		<path style="fill:#1292A7;" d="M303.026,388.752c0,2.14-1.735,3.875-3.875,3.875c-2.14,0-3.875-1.735-3.875-3.875
			c0-2.14,1.735-14.973,3.875-14.973C301.291,373.778,303.026,386.612,303.026,388.752z"/>
		<path style="fill:#1292A7;" d="M287.523,401.476c0,2.14-1.735,3.875-3.875,3.875c-2.14,0-3.875-1.735-3.875-3.875
			s1.735-14.973,3.875-14.973C285.788,386.503,287.523,399.336,287.523,401.476z"/>
		<path style="fill:#1292A7;" d="M258.455,410.9c0,2.14-1.735,3.875-3.875,3.875s-3.875-1.735-3.875-3.875
			s1.735-14.973,3.875-14.973S258.455,408.76,258.455,410.9z"/>
		<path style="fill:#1292A7;" d="M215.588,381.191c0,1.776-1.44,3.216-3.216,3.216c-1.776,0-3.216-1.44-3.216-3.216
			c0-1.776,1.44-12.428,3.216-12.428C214.148,368.763,215.588,379.415,215.588,381.191z"/>
		<path style="fill:#E6F8FF;" d="M332.446,145.136c1.141-1.862,2.08-3.753,2.771-5.709c0.632-1.983,1.103-3.971,1.326-5.995
			c0.435-4.049,0.196-8.113-0.511-12.109c-1.334-7.993-4.769-15.544-7.744-23.697c-1.48-4.066-2.88-8.281-3.794-12.701
			c-0.914-4.406-1.31-9.057-0.881-13.584c0.797-9.037,4.378-17.758,10.301-24.161c-3.428,7.972-5.068,16.235-4.788,24.325
			c0.191,8.077,2.823,15.755,5.748,23.711c1.437,3.985,2.978,8.032,4.215,12.274c1.264,4.202,2.197,8.738,2.408,13.241
			c0.227,4.516-0.207,9.126-1.613,13.459c-0.766,2.147-1.708,4.222-2.938,6.101C335.676,142.151,334.16,143.799,332.446,145.136z"/>
		<path style="fill:#E6F8FF;" d="M174.268,136.211c-10.705-3.564-18.3-16.263-15.895-28.791c1.17-6.159,4.152-11.417,7.004-16.17
			c2.89-4.743,5.816-9.162,7.511-13.567c1.642-4.405,1.921-8.566,0.265-12.872c-1.586-4.382-4.688-8.6-7.776-13.295
			c-3.024-4.665-6.176-10.095-6.522-16.383c-0.08-3.084,0.455-6.149,1.859-8.815c1.358-2.656,3.629-4.881,6.31-5.732
			c-2.196,1.74-3.469,4.139-4.015,6.597c-0.552,2.466-0.471,5.033,0.152,7.37c1.242,4.686,4.38,8.76,7.81,12.826
			c3.422,4.074,7.386,8.449,9.96,14.279c1.271,2.892,2.089,6.27,2.063,9.623c-0.036,3.345-0.737,6.616-1.84,9.555
			c-1.167,2.898-2.587,5.54-4.096,8.006c-1.546,2.414-3.099,4.731-4.643,6.945c-3.044,4.435-5.852,8.71-7.301,13.26
			C162.238,117.942,165.53,129.382,174.268,136.211z"/>
		<path style="fill:#E6F8FF;" d="M280.353,105.118c-3.765,0.392-7.698-0.58-11.263-2.38c-3.535-1.866-6.679-4.682-8.985-8.207
			c-2.297-3.542-3.621-7.8-3.842-12.06c-0.207-4.273,0.609-8.586,2.397-12.52c0.922-1.953,2.072-3.81,3.442-5.507
			c1.403-1.704,2.923-3.097,4.371-4.316c2.913-2.424,5.507-4.349,7.115-6.615c3.175-4.389,3.38-12.14-1.38-17.908
			c7.203,2.792,11.36,12.801,7.472,21.271c-1.933,4.175-5.12,6.97-7.538,9.442c-2.534,2.465-4.172,4.572-5.446,7.332
			c-2.471,5.406-2.846,11.891-0.493,17.579C268.605,96.984,273.485,102.143,280.353,105.118z"/>
		<path style="fill:#E6F8FF;" d="M133.571,189.449c-3.157-1.77-6.033-3.821-8.927-5.854c-2.875-2.109-5.578-4.138-8.376-6.576
			c-1.381-1.244-2.77-2.623-3.998-4.288c-1.25-1.636-2.311-3.613-2.982-5.766c-1.324-4.326-0.929-8.769,0.12-12.591
			c0.545-1.927,1.24-3.753,2.026-5.497c0.829-1.734,1.677-3.333,2.568-4.876c1.78-3.074,3.548-5.882,4.975-8.717
			c1.434-2.842,2.425-5.649,2.683-8.812c0.279-3.114-0.189-6.378-2.209-9.407c3.345,1.53,5.682,5.212,6.539,9.001
			c0.957,3.8,0.551,8.01-0.498,11.662c-2.145,7.406-6.086,13.284-7.552,18.988c-0.819,2.861-1.059,5.616-0.57,8.057
			c0.45,2.403,1.964,4.899,3.964,7.509c2.016,2.604,4.331,5.414,6.364,8.253C129.736,183.425,131.794,186.296,133.571,189.449z"/>
		<g>
			<g style="enable-background:new    ;">
				<g>
					<path style="fill:#1292A7;" d="M334.359,233.258c-0.751,14.571-10.9,22.967-30.374,33.895l-9.166-1.767
						c-39.764,22.313-89.613,22.853-128.264-0.253c-19.008-11.363-33.003-19.446-32.961-34.085
						c-0.412,18.699,4.98,36.555,14.424,51.9c5.634,9.154,8.875,19.578,9.152,30.324c0.343,13.302,0.658,25.279,0.658,26.506
						c0,6.957,5.64,12.597,12.597,12.597c6.957,0,12.597-5.64,12.597-12.597c0-0.041-0.001-0.089-0.001-0.132
						c0.82,1.577,1.441,3.336,1.988,5.171c1.305,4.381,1.75,8.98,1.368,13.535c-0.067,0.8-0.102,1.434-0.102,1.852
						c0,4.081,3.308,7.389,7.389,7.389s7.389-3.308,7.389-7.389c0-0.958-0.183-3.042-0.515-5.668
						c-0.203-1.609,0.986-3.077,2.605-3.174c0.226-0.014,0.463-0.015,0.711-0.002c1.174,0.46,3.37,3.842,13.576,3.842
						c13.184,0,16.242-8.469,20.923-4.565c0.241,0.452,0.447,0.912,0.623,1.376c0.746,1.974,0.88,4.13,0.564,6.216
						c-1.134,7.495-1.785,13.914-1.785,16.326c0,7.258,5.884,13.142,13.142,13.142c7.258,0,13.142-5.884,13.142-13.142
						c0-1.789-0.358-5.784-1.006-10.787c-0.477-3.679-0.255-7.442,0.852-10.983c0.653-2.089,1.533-4.019,2.825-5.632
						c0.856-1.135,1.767-2.192,2.743-3.165c1.092-1.141,2.163-1.986,3.214-2.583c4.856-2.761,10.836,1.144,10.551,6.722
						c-0.114,2.226-0.174,3.803-0.174,4.561c0,7.898,6.403,14.301,14.301,14.301c7.898,0,14.301-6.403,14.301-14.301
						c0-0.255,0.002-21.939,0.001-39.207c-0.001-10.882,2.904-21.591,8.568-30.882C329.183,267.885,334.416,250.924,334.359,233.258
						z"/>
					<path style="fill:#0E879C;" d="M179.466,260.209c-1.235,3.386-37.041-16.392-39.215-13.518
						c-7.911,10.462,14.813,32.429,16.075,46.568c0.216,2.42,0.295,7.572,1.914,9.384c1.372,1.536,3.804,1.474,5.778,0.889
						c1.974-0.585,3.899-1.577,5.956-1.496c2.565,0.101,11.885,1.828,13.48,3.838s2.777,4.334,4.474,6.26
						c5.215,5.92,5.739,8.917,9.872,15.637c2.148,3.492,4.279,6.462,6.904,9.611c2.882,3.458,8.198,4.46,12.301,2.606
						c4.103-1.854,6.817-6.246,7.019-10.743c0.125-2.791-2.368-4.083-2.112-6.865c0.394-4.279,4.81-9.444,7.079-13.093
						c2.269-3.65,4.281-7.954,3.198-12.113c-0.999-3.836-4.376-6.543-6.263-10.03c-2.73-5.046-2.105-11.146-2.643-16.858
						c-1.048-11.122-7.021-21.69-16.01-28.323c-5.062-3.735-14.152-7.383-19.804-2.653c-2.336,1.955-4.46,5.347-5.643,8.088
						C180.046,251.522,180.978,256.064,179.466,260.209z"/>
					<path style="fill:#CCC141;" d="M212.647,338.681c-2.483,0-4.813-1.018-6.234-2.723c-2.551-3.06-4.622-5.944-6.718-9.352
						c-1.376-2.237-2.321-4.013-3.235-5.73c-1.748-3.283-3.257-6.12-6.862-10.212c-0.839-0.953-1.559-2.05-2.322-3.21
						c-0.643-0.979-1.309-1.992-2.079-2.963c-2.572-3.241-13.988-4.633-15.136-4.678c-0.109-0.004-0.219-0.007-0.328-0.007
						c-1.788,0-3.408,0.577-4.838,1.084c-0.502,0.178-1.003,0.358-1.508,0.507c-0.642,0.191-1.279,0.291-1.842,0.291
						c-0.535,0-1.255-0.092-1.645-0.529c-0.859-0.962-1.138-5.021-1.257-6.754c-0.034-0.501-0.066-0.957-0.1-1.345
						c-0.567-6.347-4.955-13.864-9.198-21.133c-5.212-8.928-10.594-18.147-7.736-23.255c2.893,0.429,10.966,4.013,17.532,6.928
						c10.128,4.495,16.489,7.225,19.414,7.225c2.099,0,2.799-1.297,3.002-1.854c0.82-2.247,1.002-4.49,1.179-6.658
						c0.176-2.16,0.342-4.2,1.133-6.032c1.028-2.381,2.981-5.551,5.028-7.264c1.369-1.146,3.125-1.726,5.219-1.726
						c4.266,0,8.911,2.306,11.836,4.464c8.478,6.255,14.129,16.252,15.116,26.741c0.133,1.413,0.192,2.839,0.253,4.349
						c0.185,4.503,0.376,9.16,2.648,13.359c0.826,1.527,1.865,2.865,2.87,4.159c1.39,1.79,2.703,3.482,3.196,5.372
						c0.931,3.573-1.229,7.634-2.934,10.378c-0.522,0.84-1.184,1.793-1.885,2.803c-2.422,3.487-5.167,7.439-5.52,11.261
						c-0.194,2.108,0.643,3.591,1.316,4.782c0.525,0.929,0.82,1.489,0.789,2.188c-0.17,3.805-2.466,7.349-5.712,8.815
						C215.048,338.433,213.857,338.681,212.647,338.681z"/>
					<path style="fill:#0E879C;" d="M271.027,318.157c-0.849-2.574-4.655-3.469-5.046-6.151c-0.275-1.882,1.313-3.441,2.42-4.988
						c1.344-1.879,2.093-4.176,2.115-6.486c0.01-1.042-0.136-2.12-0.676-3.012c-0.539-0.892-1.537-1.561-2.576-1.477
						c-1.509,0.122-2.48,1.644-3.837,2.313c-1.972,0.972-4.299,0.003-6.496-0.072c-2.382-0.081-4.777,0.994-6.301,2.827
						c-1.408,1.694-2.24,4.457-1.911,6.67c0.374,2.517,2.162,4.563,2.359,7.219c0.2,2.704-1.054,5.716-3.586,6.687
						c-1.065,0.409-2.303,0.45-3.194,1.163c-0.811,0.65-1.157,1.747-1.139,2.787c0.005,0.313,0.045,0.621,0.098,0.928
						c-0.126,0.298-0.168,0.659-0.099,1.102c0.787,5.048,5.52,20.664,4.889,32.337c-0.631,11.673-3.47,15.774-0.789,17.509
						c2.682,1.735,7.256,0.574,8.124-8.468c0.867-9.042-3.435-26.351-1.775-30.101c2.445-5.521,10.015-2.029,12.079-7.882
						c0.002-0.006,0.003-0.012,0.005-0.017c0.185-0.272,0.336-0.567,0.426-0.895c0.176-0.646,0.12-1.331,0.217-1.993
						c0.279-1.889,1.739-3.341,2.963-4.806C270.52,321.888,271.625,319.97,271.027,318.157z"/>
					<path style="fill:#CCC141;" d="M249.505,375.97c-0.354,0-0.713-0.112-1.04-0.323c-0.048-0.031-0.064-0.048-0.064-0.048
						c-0.219-0.441,0.147-2.468,0.469-4.258c0.477-2.644,1.129-6.265,1.397-11.216c0.488-9.041-2.058-20.06-3.743-27.351
						c-0.527-2.283-0.984-4.255-1.17-5.449c0-0.004-0.001-0.007-0.001-0.009l0.206-0.49l-0.112-0.643
						c-0.042-0.241-0.062-0.427-0.066-0.587c-0.008-0.494,0.148-0.882,0.306-1.009c0.197-0.158,0.695-0.282,1.177-0.401
						c0.432-0.107,0.922-0.229,1.423-0.422c3.788-1.452,5.252-5.646,5.009-8.928c-0.135-1.809-0.812-3.317-1.41-4.647
						c-0.431-0.96-0.838-1.867-0.967-2.734c-0.231-1.552,0.38-3.668,1.422-4.922c1.039-1.251,2.701-2.028,4.337-2.028l0.176,0.003
						c0.558,0.019,1.179,0.119,1.837,0.224c0.86,0.138,1.749,0.28,2.687,0.28c1.141,0,2.132-0.215,3.032-0.659
						c0.762-0.375,1.365-0.876,1.898-1.317c0.385-0.319,0.913-0.756,1.136-0.774c0.066,0.001,0.322,0.129,0.493,0.411
						c0.243,0.401,0.362,1.021,0.354,1.839c-0.017,1.854-0.621,3.706-1.699,5.214c-0.187,0.261-0.389,0.523-0.592,0.787
						c-1.089,1.412-2.579,3.345-2.219,5.817c0.334,2.289,2.009,3.617,3.354,4.684c0.816,0.648,1.588,1.259,1.78,1.843
						c0.224,0.677-0.259,1.796-1.324,3.071c-0.16,0.191-0.325,0.383-0.49,0.576c-1.234,1.436-2.633,3.065-2.967,5.334
						c-0.049,0.329-0.07,0.665-0.088,1.001c-0.016,0.293-0.031,0.569-0.075,0.729c-0.017,0.062-0.058,0.141-0.12,0.234l-0.149,0.219
						l-0.124,0.335c-0.638,1.726-1.896,2.076-4.42,2.639c-2.504,0.558-5.932,1.323-7.585,5.054
						c-1.042,2.354-0.536,6.813,0.449,14.494c0.726,5.664,1.549,12.084,1.145,16.295C252.66,374.101,250.878,375.97,249.505,375.97z
						"/>
					<path style="fill:#0E879C;" d="M334.359,233.258c0.028-0.55,0.047-1.1,0.049-1.651
						C334.386,232.124,334.371,232.683,334.359,233.258z"/>
				</g>
			</g>
		</g>
		<path style="fill:#0E879C;" d="M334.359,233.258c-0.681,13.204-9.079,21.337-25.14,30.879
			c-2.807,5.409-6.363,10.554-11.322,14.204c-5.455,4.016-12.451,6.153-16.605,11.504c-4.905,6.318-4.399,15.127-3.924,23.111
			c0.223,3.754,0.304,7.734-0.265,11.481c-0.709,4.67,2.076,9.11,6.565,10.579c3.973,1.3,7.484,4.022,9.369,7.767
			c1.621,3.22,2.761,7.548,6.392,8.124c1.561,0.248,3.13-0.36,4.276-1.447c1.975-1.874,2.561-4.563,2.768-7.169
			c0.829-10.461-3.649-21.577,0.628-31.16c1.28-2.868,3.245-5.317,5.373-7.65c1.231-7.363,3.825-14.46,7.739-20.88
			C329.183,267.885,334.416,250.924,334.359,233.258z"/>
		<path style="fill:#CCC141;" d="M300.13,348.736c-0.119,0-0.237-0.009-0.351-0.027c-1.629-0.259-2.569-2.113-3.818-4.914
			c-0.297-0.666-0.605-1.356-0.936-2.014c-2.065-4.102-5.952-7.339-10.665-8.881c-3.473-1.136-5.6-4.555-5.057-8.13
			c0.635-4.181,0.487-8.58,0.286-11.947c-0.445-7.469-0.949-15.935,3.461-21.614c2.365-3.046,5.87-4.989,9.58-7.045
			c2.207-1.223,4.489-2.487,6.586-4.031c4.454-3.279,8.279-7.995,11.682-14.407c8.5-5.087,18.831-24.884,23.278-30.751
			c0.233,7.51,2.132,13.759-12.449,46.645c-3.053,6.886-7.914,14.336-9.252,21.858c-1.9,2.12-6.03,3.662-7.405,6.743
			c-2.903,6.505-2.132,13.498-1.385,20.262c0.427,3.873,0.869,7.878,0.572,11.629c-0.224,2.809-0.866,4.577-2.082,5.731
			C301.577,348.411,300.832,348.736,300.13,348.736z"/>
		<g>
			<path style="fill:#0E879C;" d="M303.986,272.663c-39.764,22.313-103.332,21.671-141.983-1.435
				c-38.651-23.105-37.749-59.924,2.015-82.237c39.764-22.313,103.332-21.671,141.983,1.435
				C344.652,213.531,343.75,250.35,303.986,272.663z M234.002,230.827L234.002,230.827L234.002,230.827L234.002,230.827
				L234.002,230.827L234.002,230.827z"/>
		</g>
		<g>
			<path style="fill:#14BEDB;" d="M303.986,268.954c-39.764,22.313-103.332,21.671-141.983-1.435s-37.749-59.924,2.015-82.237
				c39.764-22.313,103.332-21.671,141.983,1.435S343.75,246.641,303.986,268.954z M234.002,227.118L234.002,227.118L234.002,227.118
				L234.002,227.118L234.002,227.118L234.002,227.118z"/>
		</g>
		<g>
			<path style="fill:#0E879C;" d="M180.9,226.749c3.532,5.722,9.399,9.953,15.944,11.499c9.818,2.319,20.649-1.191,29.959,2.694
				c7.031,2.933,11.736,9.484,16.536,15.4c4.8,5.915,10.753,11.843,18.335,12.579c5.564,0.541,10.949-1.844,16.031-4.173
				c7.506-3.441,15.09-6.929,21.583-12.03c4.897-3.848,9.101-8.576,12.349-13.89c2.893-4.733,5.07-10.385,3.715-15.764
				c-1.991-7.9-10.748-12.139-18.829-13.181c-8.08-1.041-16.457,0.013-24.282-2.257c-8.492-2.463-15.361-8.538-22.454-13.817
				c-7.094-5.279-15.389-10.083-24.197-9.309c-5.644,0.496-10.81,3.24-15.797,5.929c-7.296,3.934-14.592,7.867-21.887,11.801
				c-2.864,1.544-7.289,2.956-9.561,5.299c-1.811,1.867-1.361,5.689-1.142,8.056c0.185,2.001,0.6,3.98,1.236,5.885
				C178.665,222.152,180.171,226.749,180.9,226.749z"/>
			<g>
				<g>
					<path style="fill:#818181;" d="M280.174,158.176c-0.782,5.849-1.855,15.594-1.649,23.856c0,0-1.777,15.727,0.599,25.737
						c0,0-3.59,9.618-1.238,13.408c2.353,3.79,17.429,11.523,21.932,11.596c4.02,0.065,9.575-2.197,8.973-6.698
						c-0.125-0.93-0.55-1.79-1.113-2.54c-2.038-2.722-8.49-11.339-9.561-12.783c0,0,2.441-8.489,3.52-14.108
						c0,0,6.025-14.577,8.363-22.213c2.125-6.942-5.793-32.843-23.465-24.92C283.052,151.072,280.681,154.391,280.174,158.176z"/>
					<path d="M299.414,230.732c0,0,3.103,3.135,3.48,5.898c0,0,0.777-3.222-1.441-7.097
						C301.453,229.534,299.796,229.177,299.414,230.732z"/>
					<path d="M303.683,229.342c0,0,3.103,3.135,3.48,5.898c0,0,0.777-3.222-1.44-7.097
						C305.723,228.144,304.065,227.787,303.683,229.342z"/>
					<path d="M306.38,226.544c0,0,3.103,3.135,3.48,5.899c0,0,0.777-3.222-1.441-7.097
						C308.419,225.346,306.762,224.989,306.38,226.544z"/>
				</g>
				<g>
					<path style="fill:#818181;" d="M262.243,133.803c1.367,2.458,2.21,5.174,2.43,7.978c0.365,4.659,0.138,12.18-3.811,18.568
						c-2.957,4.784-5.967,9.287-8.316,12.701c-2.662,3.869-2.852,8.918-0.489,12.976c2.194,3.767,4.827,8.257,6.544,11.086
						c0,0-1.623,6.19-9.352,5.881c-7.729-0.309-10.782-4.219-17.448-9.027c-6.666-4.808-4.883-11.676-4.306-17.827
						c0.577-6.15,1.62-17.079,0.674-24.057c-0.947-6.978-3.663-28.866,0.332-39.562
						C232.257,102.469,252.189,115.722,262.243,133.803z"/>
					<path d="M247.318,200.488c0,0,3.103,3.134,3.48,5.898c0,0,0.777-3.221-1.44-7.097
						C249.357,199.289,247.7,198.932,247.318,200.488z"/>
					<path d="M252.051,199.863c0,0,3.103,3.135,3.48,5.898c0,0,0.778-3.222-1.441-7.097
						C254.091,198.665,252.434,198.308,252.051,199.863z"/>
					<path d="M255.434,197.338c0,0,3.103,3.134,3.48,5.898c0,0,0.778-3.222-1.44-7.097
						C257.473,196.139,255.816,195.783,255.434,197.338z"/>
				</g>
				<path style="fill:#EDEDED;" d="M211.389,108.403c0,0-12.372-4.537-11.69,10.425
					C200.381,133.791,211.389,108.403,211.389,108.403z"/>
				<path style="fill:#EDEDED;" d="M227.428,105.228c6.782-0.132,13.39,0.075,23.612,6.292c12.152,7.391,20.897,22.54,27.244,24.179
					c22.936,3.085,19.979,13.494,32.693,20.85c4.739,2.568,6.435,14.742,6.435,14.742l-19.148,17.378c0,0-9.394,1.183-17.139,4.643
					c-7.745,3.46-37.33-13.114-46.431-16.58c0,0-10.028,0.188-16.347-3.146c-6.318-3.334-30.852-21.623-33.367-31.268
					c0,0,1.079-13.517,11.571-24.507C207.043,106.821,220.646,105.359,227.428,105.228z"/>
				<g>
					<path style="fill:#EDEDED;" d="M323.007,160.782c0,0-0.153,4.077,5.254-1.169c1.835-1.781,3.679-2.36,4.796-1.594l-6.371,9.667
						L323.007,160.782z"/>
					<path style="fill:#D8D8D8;" d="M328.927,166.109c0,0-2.234-2.493,0.734-6.115c0.796-0.971,2.268-2.189,3.396-1.976
						c-0.906-1.391-3.465-0.33-4.796,1.087c-2.754,2.933-5.254,1.676-5.254,1.676l3.679,6.904c0,0,0.111-0.129,0.296-0.347
						L328.927,166.109z"/>
					<path style="fill:#1D1D1B;" d="M328.281,165.777c2.076-1.899,4.633-5.511,4.865-6.807c0.076-0.426,0.038-0.62-0.088-0.952
						c-2.769,1.304-4.29,3.507-4.493,5.614C328.396,165.379,328.28,165.773,328.281,165.777z"/>
				</g>
				<path style="fill:#EDEDED;" d="M311.85,157.155l6.953,2.54c0,0,12.708,1.033,13.216,14.25c0,0,0.561,0.873,1.11,2.495
					c0.77,2.274,0.313,4.793-1.206,6.653l-0.743,0.91c0,0,4.897,10.715,5.535,16.588c0,0,0.985,2.123,0.406,4.317
					c-0.579,2.194-4.345,2.721-7.42,2.58c-3.075-0.141-7.999-3.169-9.429-3.942c0,0-0.193,0.734-2.029-0.271
					c-1.836-1.005-5.064-2.434-7.836-3.903c-2.772-1.468-11.467-6.376-12.143-10.704c-0.676-4.328-2.071-10.587,1.14-17.97
					C302.614,163.317,305.515,160.15,311.85,157.155z"/>
				<path style="fill:#EDEDED;" d="M311.85,157.155l6.953,2.54c0,0,12.708,1.033,13.216,14.25c0,0,0.235,0.362,0.554,1.036
					c1.244,2.628,1.623,5.582,1.193,8.457l-0.404,2.697c0,0,2.715,8.582,3.353,14.455c0,0,0.985,2.123,0.406,4.317
					c-0.579,2.194-4.345,2.721-7.42,2.58c-3.075-0.141-7.999-3.169-9.429-3.942c0,0-0.193,0.734-2.029-0.271
					c-1.836-1.005-5.064-2.434-7.836-3.903c-2.772-1.468-11.467-6.376-12.143-10.704c-0.676-4.328-2.071-10.587,1.14-17.97
					C302.614,163.317,305.515,160.15,311.85,157.155z"/>
				<path style="fill:#D8D8D8;" d="M299.93,187.156c-1.167-1.789-2.079-3.65-2.556-5.44c0,0-11.021,10.205-20.611,8.048
					c-9.52-2.142-22.645-9.535-30.123-12.259c-7.478-2.724-20.872-11.75-29.451-23.346c-8.149-11.015-28.909-12.534-29.313-12.906
					c-0.126-0.116-1.197-0.34-2.675-0.572c-0.171,1.039-0.22,1.638-0.22,1.638c2.515,9.645,27.048,29.772,33.367,33.106
					c6.318,3.334,16.347,3.146,16.347,3.146c9.101,3.466,37.591,17.412,45.929,15.852c9.429-1.764,17.641-5.753,17.641-5.753
					L299.93,187.156z"/>
				<path style="fill:#D8D8D8;" d="M329.89,207.495c-0.917-1.476,0-2.211,0-2.211s-10.522-8.288-15.763-8.034
					c-10.395,0.505-14.865-8.687-16.722-15.436c0.116,2.619,0.557,4.93,0.858,6.856c0.676,4.328,9.371,9.236,12.143,10.704
					c2.772,1.469,6,2.898,7.836,3.903c1.835,1.005,2.029,0.27,2.029,0.27c1.43,0.773,6.354,3.801,9.429,3.942
					C329.762,207.492,329.827,207.492,329.89,207.495z"/>
				<path style="fill:#1D1D1B;" d="M316.65,185.29c0,0,3.15,0.297,3.495,0.397c0.345,0.101,1.528,0.966-0.095,1.703
					c-1.572,0.714-3.361,0.908-4.195-0.26C315.022,185.963,315.711,185.233,316.65,185.29z"/>
				<path style="fill:#1D1D1B;" d="M331.943,179.93c0,0-1.796,2.194-1.95,2.477c-0.153,0.284-0.347,1.583,1.146,1.013
					c1.445-0.552,2.697-1.57,2.478-2.837C333.397,179.316,332.498,179.295,331.943,179.93z"/>
				<path style="fill:#EDEDED;" d="M300.33,180.361c0,0-4.126-5.891-0.4-9.07c3.726-3.178,8.786-0.437,9.752,0.988
					C309.682,172.279,300.664,176.611,300.33,180.361z"/>
				<path style="fill:#D8D8D8;" d="M300.33,180.361c0,0-4.126-5.891-0.4-9.07c3.726-3.178,8.786-0.437,9.752,0.988
					c0,0-6.222-3.146-9.608,0.064C298.848,173.505,298.372,175.801,300.33,180.361z"/>
				<path style="fill:#1D1D1B;" d="M300.408,175.089c-0.711,1.221,0.225,2.374,0.984,3.043c1.578-1.959,4.549-3.817,6.474-4.895
					c-0.488-0.399-1.132-0.768-1.845-0.958C303.847,171.699,301.513,173.192,300.408,175.089z"/>
				<path style="fill:#D8D8D8;" d="M266.467,152.754c0,0,14.53-5.051,19.979,8.581c0,0,0.804-8.853-7.371-12.523
					C270.9,145.144,266.467,152.754,266.467,152.754z"/>
				<path style="fill:#1D1D1B;" d="M336.714,200.592c0,0-2.183-4.88-5.758,3.146c-0.062,0.14-0.12,0.275-0.172,0.406
					c-0.391,0.977-1.353,1.642-2.406,1.614c-0.007,0-0.014,0-0.022-0.001c-2.473-0.07-8.086-2.21-8.086-2.21
					c1.43,0.773,6.354,3.975,9.429,4.116c0.606,0.028,1.238-0.078,1.868-0.155c0.833,0.143,1.962-0.07,3.021-0.348
					c1.292-0.397,2.604-1.212,2.879-2.252C338.047,202.715,336.714,200.592,336.714,200.592z"/>
				<g>
					<path style="fill:#EDEDED;" d="M219.303,157.567c1.809,3.144,2.807,6.697,2.947,10.321c0.18,4.666-0.379,11.271-3.904,16.975
						c-3.041,4.92-6.139,9.543-8.515,12.99c-2.543,3.689-2.722,8.508-0.468,12.38c1.875,3.221,4.106,7.032,5.817,9.891
						c0.667,1.114,0.619,2.504-0.106,3.58c-1.19,1.767-3.632,3.991-8.341,3.803c-7.729-0.309-10.782-4.219-17.448-9.027
						c-6.666-4.808-4.883-11.676-4.306-17.827c0.577-6.15,1.62-17.079,0.674-24.057c-0.947-6.978-3.663-28.866,0.333-39.562
						C189.689,127.122,209.123,139.872,219.303,157.567z"/>
					<path d="M204.802,225.585c0,0,3.103,3.134,3.48,5.898c0,0,0.777-3.222-1.44-7.097
						C206.842,224.387,205.185,224.029,204.802,225.585z"/>
					<path d="M209.536,224.377c0,0,3.103,3.134,3.48,5.898c0,0,0.778-3.221-1.44-7.097
						C211.575,223.178,209.918,222.822,209.536,224.377z"/>
					<path d="M212.918,221.852c0,0,3.103,3.134,3.48,5.898c0,0,0.778-3.222-1.44-7.097
						C214.958,220.653,213.301,220.296,212.918,221.852z"/>
				</g>
				<g>
					<path style="fill:#EDEDED;" d="M246.64,177.499c-0.782,5.849-1.854,15.594-1.649,23.856c0,0-1.777,15.727,0.6,25.737
						c0,0-3.59,9.619-1.238,13.408c2.353,3.789,17.429,11.523,21.932,11.596c4.02,0.065,9.575-2.197,8.973-6.698
						c-0.125-0.93-0.551-1.789-1.113-2.54c-2.038-2.722-8.489-11.339-9.56-12.783c0,0,2.441-8.489,3.52-14.108
						c0,0,6.025-14.577,8.363-22.213c2.125-6.942-5.793-32.843-23.465-24.921C249.518,170.395,247.146,173.715,246.64,177.499z"/>
					<path d="M265.879,250.055c0,0,3.103,3.135,3.48,5.898c0,0,0.777-3.222-1.44-7.097
						C267.919,248.857,266.262,248.5,265.879,250.055z"/>
					<path d="M270.149,248.666c0,0,3.103,3.134,3.48,5.898c0,0,0.778-3.222-1.44-7.097
						C272.188,247.468,270.531,247.111,270.149,248.666z"/>
					<path d="M272.845,245.867c0,0,3.103,3.135,3.48,5.899c0,0,0.778-3.221-1.44-7.097
						C274.885,244.669,273.228,244.313,272.845,245.867z"/>
				</g>
			</g>
		</g>
		<g>
			<g>
				<path style="fill:#0E879C;" d="M159.648,251.352c2.358,3.821,6.276,6.646,10.646,7.678c6.556,1.548,13.788-0.795,20.004,1.799
					c4.695,1.959,7.837,6.333,11.042,10.283c3.205,3.95,7.18,7.908,12.243,8.4c3.715,0.361,7.311-1.231,10.704-2.787
					c5.012-2.297,10.076-4.626,14.411-8.033c3.27-2.569,6.077-5.726,8.245-9.275c1.932-3.16,3.385-6.934,2.48-10.526
					c-1.329-5.275-7.176-8.106-12.572-8.801c-5.395-0.695-10.989,0.009-16.214-1.507c-5.671-1.645-10.257-5.701-14.993-9.226
					c-4.737-3.525-10.275-6.732-16.157-6.215c-3.769,0.331-7.218,2.164-10.548,3.959c-4.872,2.626-9.743,5.253-14.615,7.88
					c-1.912,1.031-4.867,1.974-6.384,3.538c-1.209,1.247-0.909,3.799-0.762,5.379c0.124,1.336,0.4,2.657,0.826,3.93
					C158.156,248.282,159.161,251.352,159.648,251.352z"/>
			</g>
			<g>
				<path d="M223.518,265.21l6.616,3.466c0,0-1.715,0.7-1.96,1.925c0,0-2.94-0.35-4.025,1.365c0,0-5.797-5.321-6.242-6.756
					c-0.444-1.435,0.363-3.151,2.287-3.746C222.117,260.869,223.868,261.744,223.518,265.21z"/>
				<path d="M238.37,256.635l6.616,3.466c0,0-1.715,0.7-1.96,1.925c0,0-2.94-0.35-4.025,1.365c0,0-5.797-5.321-6.242-6.756
					c-0.445-1.435,0.363-3.15,2.287-3.746C236.969,252.294,238.72,253.169,238.37,256.635z"/>
				<path style="fill:#3C3C3C;" d="M212.626,253.644c0,0,1.093,7.429-2.91,10.403c0,0,4.938,0.65,10.797-3.265L212.626,253.644z"/>
				<path style="fill:#1D1D1B;" d="M244.834,214.7c0,0,1.205,2,1.44,5.085c0.234,3.085,0.073,6.764-0.546,8.351
					c0,0-1.271-3.592-1.603-6.642C243.793,218.445,243.493,216.031,244.834,214.7z"/>
				<linearGradient id="SVGID_1_" gradientUnits="userSpaceOnUse" x1="236.775" y1="262.1107" x2="225.493" y2="206.7634">
					<stop  offset="0" style="stop-color:#EDEDED"/>
					<stop  offset="0.3643" style="stop-color:#EDECEB"/>
					<stop  offset="0.4955" style="stop-color:#EDEAE4"/>
					<stop  offset="0.589" style="stop-color:#ECE5D9"/>
					<stop  offset="0.6647" style="stop-color:#ECDFC8"/>
					<stop  offset="0.7295" style="stop-color:#EBD6B2"/>
					<stop  offset="0.7869" style="stop-color:#EACC96"/>
					<stop  offset="0.8388" style="stop-color:#E9BF76"/>
					<stop  offset="0.8849" style="stop-color:#E8B152"/>
					<stop  offset="0.9214" style="stop-color:#E7A42F"/>
				</linearGradient>
				<path style="fill:url(#SVGID_1_);" d="M240.158,257.616c1.475-2.603,3.653-13.542,4.871-19.335
					c1.218-5.793,1.093-13.456-0.224-20.842c0,0,0.448-0.671,0-2.883c-0.373-1.843-1.62-5.133-4.068-7.849
					c-1.31-0.738-3.017-1.535-4.424-1.631c-2.686-0.184-6.873,2.897-8.835,3.66c0,0-2.915-2.085-4.651-3.532
					c-0.268,0.109-0.53,0.224-0.787,0.344c-0.611,0.498-1.451,1.311-1.501,2.048c-0.079,1.165,2.633,3.219,4.464,3.799
					c0,0-3.479,2.743-4.465,7.593c-0.986,4.85-2.961,11.328-2.961,11.328l0.935,1.356c0,0-0.999,29.93,1.534,34.04
					c0.505,0.138,1.002,0.199,1.442,0.138c1.422-0.198,3.061-1.802,3.061-1.802s7.886,0.67,12.028-3.109
					C236.577,260.938,238.683,260.218,240.158,257.616z"/>
				<g>
					<path style="fill:#1D1D1C;" d="M236.313,205.075c1.381,0.095,3.047,0.863,4.346,1.589c-0.456-0.528-0.961-1.036-1.535-1.504
						c-2.565-2.093-10.499-2.32-16.297,0.044c1.736,1.447,4.651,3.532,4.651,3.532C229.44,207.971,233.627,204.891,236.313,205.075z
						"/>
					<path style="fill:#1D1D1C;" d="M222.04,205.548c0.258-0.12,0.519-0.235,0.787-0.344
						C222.56,205.313,222.298,205.428,222.04,205.548z"/>
					<path style="fill:#3C3C3C;" d="M218.512,231.671l-7.782,13.072c1.115,7.855,3.404,14.878,6.307,19.012
						c0.701,0.913,1.88,1.647,3.009,1.956C217.513,261.601,218.512,231.671,218.512,231.671z"/>
					<path style="fill:#1D1D1C;" d="M220.54,207.596c0.05-0.737,0.89-1.55,1.501-2.048c-1.85,0.863-3.431,2.011-4.463,3.477
						c0,0-5.818,4.798-7.245,18.474c-0.592,5.677-0.393,11.669,0.398,17.243l7.782-13.072l-0.935-1.356
						c0,0,1.975-6.478,2.961-11.328c0.986-4.85,4.465-7.593,4.465-7.593C223.173,210.816,220.461,208.762,220.54,207.596z"/>
					<polygon style="fill:#EDEDED;" points="222.04,205.548 222.04,205.548 222.04,205.548 					"/>
					<polygon style="fill:#EDEDED;" points="222.827,205.204 222.827,205.204 222.827,205.204 					"/>
				</g>
				<path style="fill:#1D1D1B;" d="M213.89,225.384c1.087,0.324,2.586,0.967,3.99,2.232c0.998,0.899,1.445,2.258,1.261,3.589
					c-0.081,0.586-0.185,1.308-0.318,2.169c0,0-1.102,10.569-4.183,13.729c-3.081,3.16-5.214,3.943-6.162,3.367
					c-0.948-0.576,0.596-4.563,1.369-6.29c0.773-1.727,0.843-8.496,0.606-10.186c-0.19-1.353-0.548-5.083,0.654-7.463
					C211.619,225.52,212.805,225.061,213.89,225.384z"/>
				<path style="fill:#1D1D1C;" d="M217.301,209.74c0,0,0.777-8.042,5.727-11.391c4.951-3.349,8.554-1.884,10.428,0.414
					c1.264,1.55,2.581,3.378,3.055,5.706c0,0-0.842,1.868-2.419,3.49c-0.518,0.532-2.37,1.355-3.148,1.6
					c-3.147,0.989-5.339,0.2-6.8-0.491c-0.592-0.28-1.7,0.008-2.853,0.006C219.594,209.072,217.783,209.331,217.301,209.74z"/>
				<path style="fill:#E7A42F;" d="M225.598,209.16c-2.192-1.264-1.584-3.425-2.145-4.824c-0.294-0.733-1.435-0.811-1.936-0.2
					c-2.016,2.458-0.16,4.942-0.16,4.942s0.963,0.667,1.555,0.947c1.461,0.691,5.293,0.656,8.031-0.466
					C230.943,209.559,227.79,210.424,225.598,209.16z"/>
				<path style="fill:#EDEDED;" d="M228.639,203.45c-0.13,0.34-0.607,0.474-1.064,0.299c-0.458-0.175-0.723-0.593-0.593-0.933
					c0.13-0.34,0.607-0.474,1.065-0.299C228.504,202.692,228.77,203.11,228.639,203.45z"/>
				<g>
					<path style="fill:#D8D8D8;" d="M234.516,206.44c-0.009,0.206,0.005,0.398,0.046,0.544c0.096,0.347,0.737,0.152,1.139,0.197
						c0.467,0.053,3.733,2.126,3.851,2.186c0.06,0.03,0.278,0.135,0.442,0.124C237.951,207.151,235.471,206.578,234.516,206.44z"/>
					<path style="fill:#EDEDED;" d="M240.118,208.946c-0.272-0.766-2.753-3.16-3.081-3.493c0,0-0.158-0.707-0.527-0.983
						c0,0-1.09-0.381-1.777,1.066c-0.145,0.305-0.205,0.621-0.217,0.904c0.955,0.138,3.435,0.711,5.478,3.052
						C240.156,209.482,240.265,209.361,240.118,208.946z"/>
				</g>
			</g>
			<g>
				<path d="M191.463,232.101l-6.079,3.184c0,0,1.576,0.643,1.801,1.769c0,0,2.702-0.322,3.699,1.254c0,0,5.326-4.889,5.735-6.208
					c0.409-1.319-0.334-2.895-2.102-3.442C192.75,228.113,191.141,228.917,191.463,232.101z"/>
				<path d="M177.817,224.223l-6.079,3.184c0,0,1.576,0.643,1.801,1.769c0,0,2.702-0.322,3.699,1.254c0,0,5.326-4.889,5.735-6.208
					c0.409-1.319-0.334-2.895-2.101-3.442C179.103,220.234,177.495,221.038,177.817,224.223z"/>
				<path style="fill:#3C3C3C;" d="M201.47,221.474c0,0-1.004,6.826,2.674,9.559c0,0-4.537,0.597-9.92-3L201.47,221.474z"/>
				<path style="fill:#1D1D1B;" d="M171.877,185.692c0,0-1.107,1.838-1.323,4.673c-0.215,2.835-0.067,6.215,0.502,7.673
					c0,0,1.167-3.3,1.472-6.103C172.834,189.133,173.109,186.915,171.877,185.692z"/>
				
					<linearGradient id="SVGID_00000058577607892826959800000014206548724409344148_" gradientUnits="userSpaceOnUse" x1="-758.2416" y1="229.2539" x2="-768.6079" y2="178.3995" gradientTransform="matrix(-1 0 0 1 -578.9597 0)">
					<stop  offset="0" style="stop-color:#EDEDED"/>
					<stop  offset="0.3643" style="stop-color:#EDECEB"/>
					<stop  offset="0.4955" style="stop-color:#EDEAE4"/>
					<stop  offset="0.589" style="stop-color:#ECE5D9"/>
					<stop  offset="0.6647" style="stop-color:#ECDFC8"/>
					<stop  offset="0.7295" style="stop-color:#EBD6B2"/>
					<stop  offset="0.7869" style="stop-color:#EACC96"/>
					<stop  offset="0.8388" style="stop-color:#E9BF76"/>
					<stop  offset="0.8849" style="stop-color:#E8B152"/>
					<stop  offset="0.9214" style="stop-color:#E7A42F"/>
				</linearGradient>
				<path style="fill:url(#SVGID_00000058577607892826959800000014206548724409344148_);" d="M176.174,225.124
					c-1.355-2.391-3.357-12.443-4.476-17.765c-1.119-5.322-1.004-12.364,0.206-19.151c0,0-0.411-0.617,0-2.649
					c0.343-1.693,1.488-4.717,3.738-7.211c1.204-0.678,2.772-1.41,4.065-1.499c2.468-0.169,6.315,2.661,8.118,3.363
					c0,0,2.678-1.915,4.274-3.245c0.246,0.1,0.487,0.206,0.723,0.316c0.561,0.458,1.333,1.204,1.379,1.882
					c0.073,1.071-2.42,2.958-4.101,3.49c0,0,3.197,2.521,4.103,6.977c0.906,4.456,2.72,10.408,2.72,10.408l-0.859,1.246
					c0,0,0.918,27.5-1.409,31.277c-0.464,0.126-0.921,0.183-1.325,0.126c-1.307-0.182-2.813-1.656-2.813-1.656
					s-7.246,0.616-11.051-2.857C179.464,228.176,177.529,227.515,176.174,225.124z"/>
				<g>
					<path style="fill:#1D1D1C;" d="M179.706,176.848c-1.269,0.087-2.8,0.793-3.994,1.46c0.419-0.485,0.883-0.952,1.411-1.382
						c2.357-1.924,9.646-2.132,14.974,0.04c-1.595,1.329-4.274,3.245-4.274,3.245C186.021,179.51,182.174,176.679,179.706,176.848z"
						/>
					<path style="fill:#1D1D1C;" d="M192.821,177.283c-0.237-0.11-0.477-0.216-0.723-0.316
						C192.343,177.067,192.584,177.172,192.821,177.283z"/>
					<path style="fill:#3C3C3C;" d="M196.062,201.286l7.15,12.011c-1.024,7.218-3.127,13.671-5.795,17.469
						c-0.644,0.838-1.727,1.514-2.764,1.797C196.98,228.786,196.062,201.286,196.062,201.286z"/>
					<path style="fill:#1D1D1C;" d="M194.199,179.165c-0.046-0.677-0.817-1.424-1.379-1.882c1.7,0.793,3.152,1.848,4.101,3.195
						c0,0,5.346,4.408,6.657,16.975c0.544,5.216,0.361,10.722-0.366,15.844l-7.15-12.011l0.859-1.246c0,0-1.815-5.952-2.72-10.408
						c-0.906-4.456-4.103-6.977-4.103-6.977C191.78,182.123,194.272,180.235,194.199,179.165z"/>
					<polygon style="fill:#EDEDED;" points="192.821,177.283 192.821,177.283 192.821,177.283 					"/>
					<polygon style="fill:#EDEDED;" points="192.097,176.967 192.098,176.967 192.097,176.967 					"/>
				</g>
				<path style="fill:#1D1D1B;" d="M200.309,195.509c-0.999,0.298-2.376,0.889-3.666,2.051c-0.917,0.826-1.327,2.075-1.159,3.298
					c0.074,0.538,0.17,1.201,0.292,1.992c0,0,1.012,9.711,3.843,12.615c2.831,2.903,4.791,3.623,5.662,3.094
					c0.871-0.529-0.548-4.193-1.258-5.78c-0.711-1.587-0.774-7.806-0.556-9.359c0.174-1.243,0.504-4.67-0.601-6.857
					C202.396,195.634,201.306,195.211,200.309,195.509z"/>
				<path style="fill:#1D1D1C;" d="M197.176,181.135c0,0-0.714-7.389-5.263-10.467c-4.549-3.077-7.859-1.732-9.581,0.381
					c-1.161,1.425-2.371,3.104-2.807,5.243c0,0,0.774,1.716,2.223,3.206c0.475,0.489,2.178,1.245,2.892,1.47
					c2.892,0.909,4.905,0.184,6.248-0.451c0.544-0.257,1.562,0.008,2.621,0.006C195.068,180.52,196.733,180.759,197.176,181.135z"/>
				<path style="fill:#E7A42F;" d="M189.552,180.602c2.014-1.161,1.455-3.147,1.971-4.432c0.27-0.673,1.319-0.745,1.779-0.184
					c1.852,2.259,0.147,4.541,0.147,4.541s-0.885,0.613-1.429,0.87c-1.343,0.635-4.863,0.603-7.379-0.428
					C184.64,180.968,187.538,181.763,189.552,180.602z"/>
				<path style="fill:#EDEDED;" d="M186.757,175.355c0.12,0.313,0.558,0.436,0.978,0.275c0.421-0.161,0.665-0.545,0.545-0.858
					c-0.12-0.313-0.558-0.436-0.978-0.275C186.881,174.658,186.637,175.042,186.757,175.355z"/>
				<g>
					<path style="fill:#D8D8D8;" d="M181.357,178.102c0.008,0.19-0.005,0.366-0.042,0.5c-0.088,0.319-0.678,0.14-1.046,0.182
						c-0.429,0.048-3.43,1.953-3.538,2.008c-0.055,0.028-0.255,0.124-0.406,0.114C178.201,178.755,180.48,178.229,181.357,178.102z"
						/>
					<path style="fill:#EDEDED;" d="M176.21,180.405c0.249-0.704,2.529-2.903,2.831-3.21c0,0,0.145-0.65,0.484-0.904
						c0,0,1.001-0.35,1.633,0.98c0.133,0.28,0.188,0.57,0.199,0.831c-0.877,0.127-3.156,0.653-5.033,2.804
						C176.175,180.897,176.075,180.786,176.21,180.405z"/>
				</g>
			</g>
			<g>
				<path d="M200.468,262.465l-2.7,1.414c0,0,0.7,0.286,0.8,0.786c0,0,1.2-0.143,1.643,0.557c0,0,2.366-2.172,2.547-2.757
					c0.182-0.586-0.148-1.286-0.933-1.529C201.039,260.693,200.325,261.05,200.468,262.465z"/>
				<path d="M194.406,258.965l-2.7,1.414c0,0,0.7,0.286,0.8,0.786c0,0,1.2-0.143,1.643,0.557c0,0,2.366-2.172,2.547-2.757
					c0.181-0.586-0.148-1.286-0.934-1.529C194.977,257.193,194.263,257.55,194.406,258.965z"/>
				<path style="fill:#3C3C3C;" d="M204.913,257.744c0,0-0.446,3.032,1.188,4.246c0,0-2.015,0.265-4.407-1.333L204.913,257.744z"/>
				<path style="fill:#1D1D1B;" d="M191.768,241.85c0,0-0.492,0.816-0.587,2.075c-0.096,1.259-0.03,2.761,0.223,3.408
					c0,0,0.518-1.466,0.654-2.711C192.193,243.378,192.315,242.393,191.768,241.85z"/>
				
					<linearGradient id="SVGID_00000119808510701943584080000001258359780761987503_" gradientUnits="userSpaceOnUse" x1="-774.0165" y1="261.1996" x2="-778.621" y2="238.6106" gradientTransform="matrix(-1 0 0 1 -578.9597 0)">
					<stop  offset="0" style="stop-color:#EDEDED"/>
					<stop  offset="0.3643" style="stop-color:#EDECEB"/>
					<stop  offset="0.4955" style="stop-color:#EDEAE4"/>
					<stop  offset="0.589" style="stop-color:#ECE5D9"/>
					<stop  offset="0.6647" style="stop-color:#ECDFC8"/>
					<stop  offset="0.7295" style="stop-color:#EBD6B2"/>
					<stop  offset="0.7869" style="stop-color:#EACC96"/>
					<stop  offset="0.8388" style="stop-color:#E9BF76"/>
					<stop  offset="0.8849" style="stop-color:#E8B152"/>
					<stop  offset="0.9214" style="stop-color:#E7A42F"/>
				</linearGradient>
				<path style="fill:url(#SVGID_00000119808510701943584080000001258359780761987503_);" d="M193.676,259.365
					c-0.602-1.062-1.491-5.527-1.988-7.891c-0.497-2.364-0.446-5.492,0.091-8.507c0,0-0.183-0.274,0-1.177
					c0.152-0.752,0.661-2.095,1.66-3.203c0.535-0.301,1.231-0.626,1.805-0.666c1.096-0.075,2.805,1.182,3.606,1.494
					c0,0,1.19-0.851,1.898-1.441c0.109,0.044,0.216,0.091,0.321,0.14c0.249,0.203,0.592,0.535,0.613,0.836
					c0.032,0.476-1.075,1.314-1.822,1.55c0,0,1.42,1.12,1.822,3.099c0.403,1.979,1.209,4.623,1.209,4.623l-0.382,0.554
					c0,0,0.408,12.215-0.626,13.893c-0.206,0.056-0.409,0.081-0.588,0.056c-0.58-0.081-1.249-0.736-1.249-0.736
					s-3.219,0.273-4.909-1.269C195.138,260.721,194.278,260.427,193.676,259.365z"/>
				<g>
					<path style="fill:#1D1D1C;" d="M195.245,237.921c-0.563,0.039-1.243,0.352-1.774,0.649c0.186-0.215,0.392-0.423,0.626-0.614
						c1.047-0.855,4.285-0.947,6.651,0.018c-0.708,0.59-1.898,1.441-1.898,1.441C198.051,239.104,196.342,237.846,195.245,237.921z"
						/>
					<path style="fill:#1D1D1C;" d="M201.07,238.115c-0.105-0.049-0.212-0.096-0.321-0.14
						C200.859,238.019,200.966,238.066,201.07,238.115z"/>
					<path style="fill:#3C3C3C;" d="M202.51,248.776l3.176,5.335c-0.455,3.206-1.389,6.072-2.574,7.76
						c-0.286,0.372-0.767,0.672-1.228,0.798C202.918,260.992,202.51,248.776,202.51,248.776z"/>
					<path style="fill:#1D1D1C;" d="M201.683,238.951c-0.021-0.301-0.363-0.633-0.613-0.836c0.755,0.352,1.4,0.821,1.822,1.419
						c0,0,2.375,1.958,2.957,7.54c0.242,2.317,0.16,4.763-0.163,7.038l-3.176-5.335l0.382-0.554c0,0-0.806-2.644-1.209-4.623
						c-0.402-1.979-1.822-3.099-1.822-3.099C200.608,240.264,201.715,239.426,201.683,238.951z"/>
					<polygon style="fill:#EDEDED;" points="201.07,238.115 201.07,238.115 201.07,238.115 					"/>
					<polygon style="fill:#EDEDED;" points="200.749,237.974 200.749,237.974 200.749,237.974 					"/>
				</g>
				<path style="fill:#1D1D1B;" d="M204.397,246.21c-0.444,0.133-1.056,0.395-1.628,0.911c-0.407,0.367-0.589,0.922-0.515,1.465
					c0.033,0.239,0.076,0.534,0.13,0.885c0,0,0.45,4.314,1.707,5.603c1.258,1.29,2.128,1.61,2.515,1.374
					c0.387-0.235-0.243-1.862-0.559-2.567c-0.316-0.705-0.344-3.467-0.247-4.157c0.077-0.552,0.224-2.075-0.267-3.046
					C205.324,246.266,204.84,246.078,204.397,246.21z"/>
				<path style="fill:#1D1D1C;" d="M203.005,239.826c0,0-0.317-3.282-2.338-4.649c-2.02-1.367-3.491-0.769-4.256,0.169
					c-0.516,0.633-1.053,1.379-1.247,2.329c0,0,0.344,0.762,0.988,1.424c0.211,0.217,0.967,0.553,1.285,0.653
					c1.285,0.404,2.179,0.082,2.775-0.201c0.241-0.114,0.694,0.004,1.164,0.003C202.069,239.553,202.808,239.659,203.005,239.826z"
					/>
				<path style="fill:#E7A42F;" d="M199.619,239.589c0.895-0.516,0.646-1.398,0.875-1.969c0.12-0.299,0.586-0.331,0.79-0.082
					c0.823,1.003,0.065,2.017,0.065,2.017s-0.393,0.272-0.634,0.386c-0.597,0.282-2.16,0.268-3.278-0.19
					C197.437,239.751,198.724,240.105,199.619,239.589z"/>
				<path style="fill:#EDEDED;" d="M198.377,237.258c0.053,0.139,0.248,0.194,0.435,0.122c0.187-0.071,0.295-0.242,0.242-0.381
					c-0.053-0.139-0.248-0.194-0.435-0.122C198.432,236.949,198.324,237.119,198.377,237.258z"/>
				<g>
					<path style="fill:#D8D8D8;" d="M195.979,238.478c0.003,0.084-0.002,0.163-0.019,0.222c-0.039,0.142-0.301,0.062-0.465,0.081
						c-0.191,0.022-1.523,0.868-1.572,0.892c-0.024,0.012-0.113,0.055-0.18,0.051C194.577,238.769,195.589,238.535,195.979,238.478z
						"/>
					<path style="fill:#EDEDED;" d="M193.692,239.501c0.111-0.313,1.124-1.289,1.258-1.426c0,0,0.064-0.288,0.215-0.401
						c0,0,0.445-0.155,0.726,0.435c0.059,0.124,0.084,0.253,0.089,0.369c-0.39,0.057-1.402,0.29-2.236,1.246
						C193.677,239.72,193.632,239.671,193.692,239.501z"/>
				</g>
			</g>
			<g>
				<path d="M160.46,250.019l3.101,1.624c0,0-0.804,0.328-0.919,0.903c0,0-1.378-0.164-1.887,0.64c0,0-2.717-2.494-2.926-3.167
					c-0.208-0.673,0.17-1.477,1.072-1.756C159.803,247.984,160.624,248.394,160.46,250.019z"/>
				<path d="M167.422,245.999l3.101,1.625c0,0-0.804,0.328-0.919,0.903c0,0-1.378-0.164-1.887,0.64c0,0-2.717-2.494-2.926-3.167
					c-0.208-0.673,0.17-1.477,1.072-1.756C166.765,243.964,167.586,244.374,167.422,245.999z"/>
				<path style="fill:#3C3C3C;" d="M155.354,244.597c0,0,0.512,3.482-1.364,4.877c0,0,2.315,0.305,5.061-1.531L155.354,244.597z"/>
				<path style="fill:#1D1D1B;" d="M170.452,226.341c0,0,0.565,0.938,0.675,2.384c0.11,1.446,0.034,3.171-0.256,3.915
					c0,0-0.596-1.684-0.751-3.113C169.964,228.096,169.823,226.965,170.452,226.341z"/>
				
					<linearGradient id="SVGID_00000005259197336767612660000009168882748015299978_" gradientUnits="userSpaceOnUse" x1="206.225" y1="248.5659" x2="200.9363" y2="222.6207" gradientTransform="matrix(1 0 0 1 -39.5509 0)">
					<stop  offset="0" style="stop-color:#EDEDED"/>
					<stop  offset="0.3643" style="stop-color:#EDECEB"/>
					<stop  offset="0.4955" style="stop-color:#EDEAE4"/>
					<stop  offset="0.589" style="stop-color:#ECE5D9"/>
					<stop  offset="0.6647" style="stop-color:#ECDFC8"/>
					<stop  offset="0.7295" style="stop-color:#EBD6B2"/>
					<stop  offset="0.7869" style="stop-color:#EACC96"/>
					<stop  offset="0.8388" style="stop-color:#E9BF76"/>
					<stop  offset="0.8849" style="stop-color:#E8B152"/>
					<stop  offset="0.9214" style="stop-color:#E7A42F"/>
				</linearGradient>
				<path style="fill:url(#SVGID_00000005259197336767612660000009168882748015299978_);" d="M168.26,246.459
					c0.691-1.22,1.713-6.348,2.284-9.064c0.571-2.715,0.512-6.308-0.105-9.77c0,0,0.21-0.315,0-1.352
					c-0.175-0.864-0.759-2.406-1.907-3.679c-0.614-0.346-1.414-0.719-2.074-0.765c-1.259-0.086-3.222,1.358-4.142,1.716
					c0,0-1.366-0.977-2.18-1.656c-0.125,0.051-0.248,0.105-0.369,0.161c-0.286,0.234-0.68,0.614-0.703,0.96
					c-0.037,0.546,1.234,1.509,2.092,1.781c0,0-1.631,1.286-2.093,3.559c-0.462,2.273-1.388,5.31-1.388,5.31l0.438,0.636
					c0,0-0.468,14.03,0.719,15.957c0.237,0.065,0.47,0.093,0.676,0.065c0.667-0.093,1.435-0.845,1.435-0.845
					s3.697,0.314,5.638-1.457C166.581,248.016,167.569,247.679,168.26,246.459z"/>
				<g>
					<path style="fill:#1D1D1C;" d="M166.458,221.829c0.647,0.044,1.428,0.405,2.038,0.745c-0.214-0.247-0.451-0.486-0.72-0.705
						c-1.202-0.981-4.921-1.088-7.64,0.021c0.814,0.678,2.18,1.656,2.18,1.656C163.236,223.187,165.198,221.743,166.458,221.829z"/>
					<path style="fill:#1D1D1C;" d="M159.767,222.051c0.121-0.056,0.244-0.11,0.369-0.161
						C160.01,221.941,159.888,221.995,159.767,222.051z"/>
					<path style="fill:#3C3C3C;" d="M158.113,234.297l-3.648,6.128c0.522,3.682,1.595,6.974,2.957,8.912
						c0.328,0.428,0.881,0.772,1.41,0.917C157.645,248.327,158.113,234.297,158.113,234.297z"/>
					<path style="fill:#1D1D1C;" d="M159.063,223.011c0.023-0.346,0.417-0.726,0.703-0.96c-0.867,0.404-1.608,0.943-2.092,1.63
						c0,0-2.727,2.249-3.396,8.66c-0.278,2.661-0.184,5.47,0.187,8.083l3.648-6.128l-0.438-0.636c0,0,0.926-3.037,1.388-5.31
						c0.462-2.273,2.093-3.559,2.093-3.559C160.298,224.52,159.026,223.557,159.063,223.011z"/>
					<polygon style="fill:#EDEDED;" points="159.767,222.051 159.767,222.051 159.767,222.051 					"/>
					<polygon style="fill:#EDEDED;" points="160.136,221.89 160.136,221.89 160.136,221.89 					"/>
				</g>
				<path style="fill:#1D1D1B;" d="M155.946,231.35c0.51,0.152,1.212,0.454,1.87,1.046c0.468,0.422,0.677,1.058,0.591,1.682
					c-0.038,0.275-0.087,0.613-0.149,1.017c0,0-0.516,4.955-1.961,6.436c-1.444,1.481-2.444,1.848-2.888,1.578
					c-0.445-0.27,0.279-2.139,0.642-2.949c0.363-0.81,0.395-3.983,0.284-4.775c-0.089-0.634-0.257-2.383,0.307-3.498
					C154.882,231.413,155.438,231.198,155.946,231.35z"/>
				<path style="fill:#1D1D1C;" d="M157.545,224.016c0,0,0.364-3.77,2.685-5.34c2.321-1.57,4.01-0.883,4.888,0.194
					c0.593,0.727,1.21,1.584,1.432,2.675c0,0-0.395,0.875-1.134,1.636c-0.242,0.249-1.111,0.635-1.475,0.75
					c-1.475,0.464-2.503,0.094-3.188-0.23c-0.277-0.131-0.797,0.004-1.337,0.003C158.62,223.703,157.771,223.824,157.545,224.016z"
					/>
				<path style="fill:#E7A42F;" d="M161.434,223.744c-1.028-0.592-0.742-1.605-1.005-2.261c-0.138-0.344-0.673-0.38-0.908-0.094
					c-0.945,1.152-0.075,2.317-0.075,2.317s0.451,0.313,0.729,0.444c0.685,0.324,2.481,0.307,3.765-0.219
					C163.94,223.931,162.462,224.337,161.434,223.744z"/>
				<path style="fill:#EDEDED;" d="M162.86,221.068c-0.061,0.16-0.285,0.222-0.499,0.14c-0.215-0.082-0.339-0.278-0.278-0.437
					c0.061-0.16,0.285-0.222,0.499-0.14C162.797,220.712,162.921,220.908,162.86,221.068z"/>
				<g>
					<path style="fill:#D8D8D8;" d="M165.615,222.469c-0.004,0.097,0.002,0.187,0.021,0.255c0.045,0.163,0.346,0.071,0.534,0.092
						c0.219,0.025,1.75,0.997,1.805,1.025c0.028,0.014,0.13,0.063,0.207,0.058C167.225,222.802,166.063,222.534,165.615,222.469z"/>
					<path style="fill:#EDEDED;" d="M168.241,223.644c-0.127-0.359-1.291-1.481-1.444-1.637c0,0-0.074-0.331-0.247-0.461
						c0,0-0.511-0.179-0.833,0.5c-0.068,0.143-0.096,0.291-0.102,0.424c0.448,0.065,1.61,0.333,2.568,1.431
						C168.259,223.895,168.31,223.838,168.241,223.644z"/>
				</g>
			</g>
		</g>
		<path style="fill:#0E879C;" d="M195.624,325.395c-1.37-1.935-3.378-3.313-5.001-5.042c-2.245-2.393-3.703-5.403-5.638-8.052
			c-1.935-2.65-4.628-5.069-7.896-5.356c-3.241-0.284-6.374,1.664-8.285,4.298c-0.367,0.506-0.686,1.04-0.982,1.586
			c-0.222,0.166-0.434,0.344-0.634,0.532c-1.61,1.51-2.562,3.617-3.043,5.772c-0.481,2.155-0.529,4.379-0.574,6.587
			c-0.065,3.146-0.129,6.293-0.194,9.439c-0.033,1.608-0.058,3.263,0.519,4.764c0.736,1.914,2.476,3.408,4.479,3.846
			c2.003,0.438,4.208-0.193,5.675-1.625c2.669-2.604,2.641-7.158,5.376-9.694c1.854-1.719,4.651-2.11,7.122-1.573
			c2.47,0.537,4.683,1.88,6.78,3.291c0.928,0.624,2.167,1.273,3.078,0.624c0.478-0.341,0.684-0.944,0.811-1.517
			C197.81,330.58,197.217,327.647,195.624,325.395z"/>
		<path style="fill:#0E879C;" d="M248.872,292.109c5.723-0.773,11.55-1.966,17.214-0.841c0.748,0.148,1.526,0.357,2.073,0.889
			c0.547,0.532,0.757,1.482,0.259,2.059c-0.405,0.469-1.094,0.537-1.713,0.571c-2.586,0.143-5.173,0.286-7.759,0.429
			c-3.59,0.199-7.452,0.499-10.217,2.797c-2.15,1.786-3.289,4.545-3.743,7.303c-0.454,2.758-0.301,5.574-0.313,8.369
			c-0.008,2.039-0.118,4.133-0.937,6c-1.186,2.701-3.709,4.603-5.073,7.218c-0.741,1.42-1.155,3.07-2.309,4.18
			c-1.967,1.893-5.487,1.304-7.284-0.752c-1.796-2.056-2.1-5.081-1.511-7.746c0.589-2.666,1.948-5.086,3.182-7.52
			c1.933-3.812,3.617-7.826,4.135-12.069c0.484-3.962-0.34-7.323-1.934-10.902c-0.413-0.926-0.505-1.111,0.486-0.937
			c0.937,0.165,1.879,0.67,2.823,0.888c1.914,0.442,3.884,0.6,5.845,0.597C244.365,292.637,246.627,292.412,248.872,292.109z"/>
		<path style="fill:#0E879C;" d="M282.56,336.943c-0.482-0.651-1.213-1.063-1.912-1.473c-1.499-0.881-2.999-1.896-3.894-3.387
			c-1.553-2.59-0.912-5.857-0.729-8.871c0.224-3.691-0.33-7.428-1.617-10.895c-0.643-1.734-1.75-3.618-3.583-3.866
			c0.628,3.718,1.257,7.436,1.885,11.155l0.088-3.035c0.235,2.893,0.467,5.836-0.148,8.672c-1.729,7.977-9.685,13.424-11.6,21.359
			c-0.246,1.019-0.386,2.063-0.42,3.11c3.441-2.249,4.643-6.956,8.102-9.176c1.625-1.043,3.603-1.422,5.534-1.429
			c1.931-0.007,3.844,0.335,5.752,0.631c0.945,0.146,2.082,0.211,2.678-0.537C283.202,338.564,283.043,337.594,282.56,336.943z"/>
		<path style="fill:#0E879C;" d="M202.679,348.346c2.567,2.042,5.843,3.043,9.111,3.325c3.268,0.282,6.555-0.112,9.797-0.61
			c3.8-0.584,7.972-1.554,10.165-4.712c1.434-2.065,1.53-5.306-0.501-6.786c-1.204-0.877-2.826-0.93-4.295-0.68
			c-3.995,0.68-7.455,3.278-11.439,4.023c-2.957,0.553-6.035,0.042-8.866-0.976c-2.178-0.783-4.232-1.858-6.246-2.987
			c-1.281-0.718-2.591-2.051-2.484-0.012C198.105,342.409,199.975,346.194,202.679,348.346z"/>
	</g>
	<g>
		<g>
			<g>
				<g>
					<path style="fill:#E8E8E8;" d="M114.406,397.314L114.406,397.314c-16.848-9.727-30.506-31.27-30.506-48.118V227.27
						c0-16.848,13.658-22.62,30.505-12.893l0,0c16.848,9.727,30.505,31.27,30.505,48.117v121.927
						C144.911,401.269,131.254,407.041,114.406,397.314z"/>
					
						<linearGradient id="SVGID_00000127766470083053947690000000979870496255017396_" gradientUnits="userSpaceOnUse" x1="121.3541" y1="228.8676" x2="121.3541" y2="271.8874">
						<stop  offset="0" style="stop-color:#F5F5F5"/>
						<stop  offset="1" style="stop-color:#C9C9C9"/>
					</linearGradient>
					<path style="fill:url(#SVGID_00000127766470083053947690000000979870496255017396_);" d="M120.866,210.647
						c-9.217-5.321-17.472-5.994-23.066-2.762l-0.003-0.012l-6.46,3.73l0.003,0.012c5.593-3.232,13.849-2.559,23.066,2.763
						c16.848,9.727,30.505,31.27,30.505,48.117v121.927c0,7.631-2.809,12.98-7.439,15.655l0.003,0.012l6.46-3.729l-0.003-0.012
						c4.631-2.676,7.439-8.025,7.439-15.655V258.764C151.371,241.917,137.713,220.374,120.866,210.647z"/>
				</g>
				<g>
					<g>
						<g>
							<path style="fill:#F33B3B;" d="M106.785,236.907l-10.968-6.332c-0.357-0.206-0.646-0.662-0.646-1.019
								c0-0.357,0.289-0.479,0.646-0.273l10.968,6.332c0.357,0.206,0.646,0.662,0.646,1.019S107.142,237.113,106.785,236.907z"/>
						</g>
						<g>
							<path style="fill:#F33B3B;" d="M106.785,248.263l-10.968-6.332c-0.357-0.206-0.646-0.662-0.646-1.019
								s0.289-0.479,0.646-0.273l10.968,6.332c0.357,0.206,0.646,0.662,0.646,1.019C107.431,248.348,107.142,248.47,106.785,248.263
								z"/>
						</g>
						<g>
							<path style="fill:#F33B3B;" d="M106.785,259.62l-10.968-6.332c-0.357-0.206-0.646-0.662-0.646-1.019
								c0-0.357,0.289-0.479,0.646-0.273l10.968,6.332c0.357,0.206,0.646,0.662,0.646,1.019
								C107.431,259.704,107.142,259.826,106.785,259.62z"/>
						</g>
						<g>
							<path style="fill:#F33B3B;" d="M106.785,270.976l-10.968-6.332c-0.357-0.206-0.646-0.662-0.646-1.019
								c0-0.357,0.289-0.479,0.646-0.273l10.968,6.332c0.357,0.206,0.646,0.662,0.646,1.019
								C107.431,271.06,107.142,271.182,106.785,270.976z"/>
						</g>
						<g>
							<path style="fill:#F33B3B;" d="M106.785,282.332L95.817,276c-0.357-0.206-0.646-0.662-0.646-1.019
								c0-0.357,0.289-0.479,0.646-0.273l10.968,6.332c0.357,0.206,0.646,0.662,0.646,1.019
								C107.431,282.416,107.142,282.538,106.785,282.332z"/>
						</g>
						<g>
							<path style="fill:#F33B3B;" d="M106.785,293.689l-10.968-6.332c-0.357-0.206-0.646-0.662-0.646-1.019
								c0-0.357,0.289-0.479,0.646-0.273l10.968,6.332c0.357,0.206,0.646,0.662,0.646,1.019
								C107.431,293.773,107.142,293.895,106.785,293.689z"/>
						</g>
						<g>
							<path style="fill:#F33B3B;" d="M91.628,224.379l0.548-0.449c0.392,0.599,0.878,1.21,1.539,1.591
								c0.733,0.423,1.271,0.268,1.271-0.527c0-0.786-0.486-1.51-1.209-1.928c-0.423-0.244-0.661-0.268-1.053-0.236l-0.568-0.689
								l0.196-3.131l3.513,2.028v1.002l-2.479-1.431l-0.134,1.513c0.279,0.026,0.527,0.087,0.868,0.284
								c1.126,0.65,2.066,1.832,2.066,3.248c0,1.436-1.105,1.624-2.314,0.926C92.806,225.967,92.114,225.145,91.628,224.379z"/>
							<path style="fill:#F33B3B;" d="M97.095,225.005c0-2.222,0.868-2.876,2.231-2.089s2.231,2.455,2.231,4.666
								c0,2.221-0.868,2.938-2.231,2.151C97.963,228.945,97.095,227.225,97.095,225.005z M100.422,226.925
								c0-1.86-0.455-2.712-1.095-3.081c-0.63-0.364-1.095-0.043-1.095,1.817c0,1.86,0.465,2.778,1.095,3.142
								C99.967,229.172,100.422,228.785,100.422,226.925z"/>
						</g>
						<g>
							<path style="fill:#F33B3B;" d="M94.468,236.453l-2.902-1.676v-0.805l2.603-2.568l1.416,0.817v3.956l0.826,0.477v0.919
								l-0.826-0.477v1.694l-1.116-0.644V236.453z M94.468,235.534v-1.487c0-0.382,0.031-0.964,0.052-1.334l-0.042-0.024
								c-0.165,0.245-0.351,0.469-0.537,0.712l-1.198,1.138L94.468,235.534z"/>
							<path style="fill:#F33B3B;" d="M97.095,236.348c0-2.222,0.868-2.876,2.231-2.089c1.363,0.787,2.231,2.455,2.231,4.666
								c0,2.221-0.868,2.938-2.231,2.151C97.963,240.289,97.095,238.569,97.095,236.348z M100.422,238.269
								c0-1.86-0.455-2.711-1.095-3.081c-0.63-0.364-1.095-0.043-1.095,1.817c0,1.86,0.465,2.778,1.095,3.142
								C99.967,240.516,100.422,240.128,100.422,238.269z"/>
						</g>
						<g>
							<path style="fill:#F33B3B;" d="M91.628,247.045l0.568-0.436c0.392,0.63,0.898,1.243,1.559,1.625
								c0.713,0.412,1.209,0.326,1.209-0.294c0-0.682-0.434-1.367-1.932-2.232v-0.867c1.291,0.746,1.715,0.546,1.715-0.065
								c0-0.546-0.371-1.091-0.971-1.437c-0.517-0.298-0.919-0.283-1.322-0.144l-0.609-1.086c0.558-0.173,1.188-0.139,1.973,0.314
								c1.261,0.728,2.128,1.848,2.128,2.964c0,0.733-0.434,0.979-1.147,0.846v0.041c0.775,0.654,1.364,1.552,1.364,2.42
								c0,1.197-1.043,1.298-2.304,0.57C92.795,248.648,92.093,247.831,91.628,247.045z"/>
							<path style="fill:#F33B3B;" d="M97.095,247.692c0-2.222,0.868-2.876,2.231-2.089c1.363,0.787,2.231,2.455,2.231,4.666
								c0,2.221-0.868,2.938-2.231,2.151C97.963,251.632,97.095,249.912,97.095,247.692z M100.422,249.612
								c0-1.86-0.455-2.712-1.095-3.081c-0.63-0.364-1.095-0.043-1.095,1.817c0,1.86,0.465,2.778,1.095,3.142
								C99.967,251.859,100.422,251.472,100.422,249.612z"/>
						</g>
						<g>
							<path style="fill:#F33B3B;" d="M91.772,258.585c1.829-0.71,2.975-1.206,2.975-2.207c0-0.691-0.382-1.356-1.084-1.762
								c-0.507-0.292-0.93-0.196-1.281-0.007l-0.661-1.043c0.599-0.295,1.199-0.32,2.097,0.199c1.261,0.728,2.077,1.994,2.077,3.213
								c0,1.167-1.085,1.739-2.386,2.362c0.341,0.165,0.775,0.375,1.095,0.56l1.612,0.931v1.012l-4.442-2.565V258.585z"/>
							<path style="fill:#F33B3B;" d="M97.095,259.036c0-2.222,0.868-2.876,2.231-2.089c1.363,0.787,2.231,2.455,2.231,4.666
								c0,2.22-0.868,2.938-2.231,2.151C97.963,262.976,97.095,261.256,97.095,259.036z M100.422,260.956
								c0-1.86-0.455-2.712-1.095-3.081c-0.63-0.364-1.095-0.043-1.095,1.816c0,1.86,0.465,2.778,1.095,3.142
								C99.967,263.203,100.422,262.816,100.422,260.956z"/>
						</g>
						<g>
							<path style="fill:#F33B3B;" d="M92.145,269.865l1.467,0.847v-4.318l-1.209-0.698v-0.743c0.651,0.251,1.105,0.348,1.518,0.339
								l0.888,0.513v5.598l1.291,0.745v0.972l-3.956-2.284V269.865z"/>
							<path style="fill:#F33B3B;" d="M97.095,270.379c0-2.222,0.868-2.876,2.231-2.089c1.363,0.787,2.231,2.455,2.231,4.666
								c0,2.221-0.868,2.938-2.231,2.151C97.963,274.32,97.095,272.6,97.095,270.379z M100.422,272.3
								c0-1.86-0.455-2.712-1.095-3.081c-0.63-0.364-1.095-0.043-1.095,1.816c0,1.86,0.465,2.778,1.095,3.142
								C99.967,274.547,100.422,274.159,100.422,272.3z"/>
						</g>
						<g>
							<path style="fill:#F33B3B;" d="M97.346,281.867c0-2.222,0.867-2.877,2.231-2.089c1.364,0.788,2.231,2.456,2.231,4.666
								c0,2.221-0.867,2.939-2.231,2.151C98.213,285.808,97.346,284.088,97.346,281.867z M100.672,283.788
								c0-1.86-0.455-2.711-1.095-3.081c-0.63-0.364-1.095-0.043-1.095,1.816c0,1.86,0.465,2.778,1.095,3.142
								C100.217,286.035,100.672,285.648,100.672,283.788z"/>
						</g>
						<g>
							<path style="fill:#F33B3B;" d="M106.771,293.681c-0.357-0.206-0.646-0.662-0.646-1.019v-65.984
								c0-0.357,0.289-0.479,0.646-0.273c0.357,0.206,0.646,0.662,0.646,1.019v65.984
								C107.417,293.765,107.128,293.887,106.771,293.681z"/>
						</g>
					</g>
					<g>
						<g>
							<path style="fill:#1292A7;" d="M133.069,303.783c0-2.222,0.868-2.877,2.231-2.089c1.364,0.787,2.231,2.455,2.231,4.666
								c0,2.221-0.868,2.939-2.231,2.151C133.937,307.723,133.069,306.004,133.069,303.783z M136.396,305.704
								c0-1.86-0.455-2.712-1.095-3.081c-0.63-0.364-1.095-0.043-1.095,1.817c0,1.86,0.465,2.778,1.095,3.142
								C135.941,307.95,136.396,307.563,136.396,305.704z"/>
						</g>
						<g>
							<path style="fill:#1292A7;" d="M128.308,314.724l1.467,0.847v-4.317l-1.209-0.698v-0.743
								c0.651,0.251,1.105,0.348,1.518,0.339l0.888,0.513v5.598l1.291,0.746v0.971l-3.956-2.284V314.724z"/>
							<path style="fill:#1292A7;" d="M133.259,315.238c0-2.222,0.868-2.876,2.231-2.089c1.363,0.787,2.231,2.455,2.231,4.666
								c0,2.22-0.868,2.938-2.231,2.151C134.127,319.178,133.259,317.458,133.259,315.238z M136.586,317.158
								c0-1.86-0.455-2.712-1.095-3.081c-0.63-0.364-1.095-0.043-1.095,1.817c0,1.86,0.465,2.778,1.095,3.142
								C136.131,319.405,136.586,319.018,136.586,317.158z"/>
						</g>
						<g>
							<path style="fill:#1292A7;" d="M127.936,326.131c1.829-0.711,2.975-1.206,2.975-2.208c0-0.691-0.382-1.356-1.084-1.761
								c-0.507-0.293-0.93-0.196-1.281-0.007l-0.661-1.043c0.599-0.295,1.199-0.32,2.097,0.199c1.26,0.728,2.077,1.994,2.077,3.212
								c0,1.167-1.085,1.739-2.386,2.362c0.341,0.165,0.774,0.375,1.095,0.56l1.612,0.931v1.012l-4.442-2.565V326.131z"/>
							<path style="fill:#1292A7;" d="M133.259,326.581c0-2.222,0.868-2.876,2.231-2.089c1.363,0.787,2.231,2.455,2.231,4.666
								c0,2.221-0.868,2.938-2.231,2.151C134.127,330.522,133.259,328.802,133.259,326.581z M136.586,328.502
								c0-1.86-0.455-2.711-1.095-3.081c-0.63-0.364-1.095-0.043-1.095,1.817c0,1.86,0.465,2.778,1.095,3.142
								C136.131,330.749,136.586,330.362,136.586,328.502z"/>
						</g>
						<g>
							<path style="fill:#1292A7;" d="M127.792,337.278l0.569-0.436c0.392,0.63,0.898,1.243,1.559,1.624
								c0.713,0.412,1.209,0.326,1.209-0.294c0-0.682-0.434-1.367-1.932-2.232v-0.867c1.291,0.746,1.714,0.546,1.714-0.065
								c0-0.546-0.372-1.091-0.971-1.437c-0.517-0.298-0.919-0.284-1.322-0.144l-0.609-1.086c0.557-0.173,1.188-0.139,1.972,0.314
								c1.26,0.728,2.129,1.848,2.129,2.964c0,0.733-0.434,0.978-1.147,0.845v0.042c0.775,0.654,1.364,1.552,1.364,2.42
								c0,1.197-1.043,1.298-2.304,0.57C128.959,338.882,128.257,338.064,127.792,337.278z"/>
							<path style="fill:#1292A7;" d="M133.259,337.925c0-2.222,0.868-2.876,2.231-2.089c1.363,0.787,2.231,2.455,2.231,4.666
								c0,2.221-0.868,2.938-2.231,2.151C134.127,341.865,133.259,340.146,133.259,337.925z M136.586,339.845
								c0-1.86-0.455-2.711-1.095-3.081c-0.63-0.364-1.095-0.043-1.095,1.817c0,1.86,0.465,2.778,1.095,3.142
								C136.131,342.092,136.586,341.705,136.586,339.845z"/>
						</g>
						<g>
							<path style="fill:#1292A7;" d="M130.632,349.373l-2.903-1.676v-0.805l2.603-2.568l1.416,0.817v3.957l0.826,0.477v0.918
								l-0.826-0.477v1.694l-1.116-0.644V349.373z M130.632,348.455v-1.488c0-0.382,0.031-0.964,0.052-1.334l-0.042-0.024
								c-0.165,0.245-0.351,0.469-0.537,0.712l-1.198,1.138L130.632,348.455z"/>
							<path style="fill:#1292A7;" d="M133.259,349.269c0-2.222,0.868-2.876,2.231-2.089c1.363,0.787,2.231,2.455,2.231,4.665
								c0,2.221-0.868,2.938-2.231,2.151C134.127,353.209,133.259,351.489,133.259,349.269z M136.586,351.189
								c0-1.86-0.455-2.711-1.095-3.081c-0.63-0.364-1.095-0.043-1.095,1.817c0,1.86,0.465,2.778,1.095,3.142
								C136.131,353.436,136.586,353.049,136.586,351.189z"/>
						</g>
						<g>
							<path style="fill:#1292A7;" d="M127.792,359.987l0.548-0.448c0.393,0.599,0.878,1.21,1.539,1.591
								c0.733,0.423,1.271,0.268,1.271-0.527c0-0.786-0.486-1.511-1.209-1.928c-0.423-0.244-0.661-0.268-1.053-0.236l-0.568-0.689
								l0.196-3.131l3.513,2.028v1.002l-2.479-1.431l-0.134,1.513c0.279,0.026,0.527,0.087,0.867,0.284
								c1.126,0.65,2.066,1.832,2.066,3.248c0,1.436-1.105,1.624-2.314,0.926C128.97,361.575,128.277,360.753,127.792,359.987z"/>
							<path style="fill:#1292A7;" d="M133.259,360.612c0-2.222,0.868-2.876,2.231-2.089c1.363,0.787,2.231,2.455,2.231,4.666
								c0,2.22-0.868,2.938-2.231,2.151C134.127,364.553,133.259,362.833,133.259,360.612z M136.586,362.533
								c0-1.86-0.455-2.711-1.095-3.081c-0.63-0.364-1.095-0.043-1.095,1.817c0,1.86,0.465,2.778,1.095,3.142
								C136.131,364.78,136.586,364.392,136.586,362.533z"/>
						</g>
						<g>
							<g>
								<path style="fill:#1292A7;" d="M132.308,309.653l-10.968-6.332c-0.357-0.206-0.646-0.662-0.646-1.019
									c0-0.357,0.289-0.479,0.646-0.273l10.968,6.332c0.357,0.206,0.646,0.662,0.646,1.019
									C132.954,309.737,132.665,309.859,132.308,309.653z"/>
							</g>
							<g>
								<path style="fill:#1292A7;" d="M132.308,321.009l-10.968-6.332c-0.357-0.206-0.646-0.662-0.646-1.019
									c0-0.357,0.289-0.479,0.646-0.273l10.968,6.332c0.357,0.206,0.646,0.662,0.646,1.019
									C132.954,321.094,132.665,321.216,132.308,321.009z"/>
							</g>
							<g>
								<path style="fill:#1292A7;" d="M132.308,332.366l-10.968-6.332c-0.357-0.206-0.646-0.662-0.646-1.019
									c0-0.357,0.289-0.479,0.646-0.273l10.968,6.332c0.357,0.206,0.646,0.662,0.646,1.019S132.665,332.572,132.308,332.366z"/>
							</g>
							<g>
								<path style="fill:#1292A7;" d="M132.308,343.722l-10.968-6.332c-0.357-0.206-0.646-0.662-0.646-1.019
									c0-0.357,0.289-0.479,0.646-0.273l10.968,6.332c0.357,0.206,0.646,0.662,0.646,1.019
									C132.954,343.806,132.665,343.928,132.308,343.722z"/>
							</g>
							<g>
								<path style="fill:#1292A7;" d="M132.308,355.078l-10.968-6.332c-0.357-0.206-0.646-0.662-0.646-1.019
									c0-0.357,0.289-0.479,0.646-0.273l10.968,6.332c0.357,0.206,0.646,0.662,0.646,1.019S132.665,355.284,132.308,355.078z"/>
							</g>
							<g>
								<path style="fill:#1292A7;" d="M132.308,366.434l-10.968-6.332c-0.357-0.206-0.646-0.662-0.646-1.019
									s0.289-0.479,0.646-0.273l10.968,6.332c0.357,0.206,0.646,0.662,0.646,1.019S132.665,366.641,132.308,366.434z"/>
							</g>
							<g>
								<path style="fill:#1292A7;" d="M121.355,366.723c-0.357-0.206-0.646-0.662-0.646-1.019V302.31
									c0-0.357,0.289-0.479,0.646-0.273c0.357,0.206,0.646,0.662,0.646,1.019v63.394
									C122.001,366.807,121.712,366.929,121.355,366.723z"/>
							</g>
						</g>
					</g>
					<g>
						<g>
							<path style="fill:#F33B3B;" d="M129.408,263.068c-1.989-1.148-3.607-3.701-3.607-5.69c0-1.988,1.618-2.673,3.607-1.524
								c1.989,1.148,3.607,3.701,3.607,5.69C133.015,263.532,131.397,264.217,129.408,263.068z M129.408,256.717
								c-1.514-0.874-2.745-0.355-2.745,1.159c0,1.514,1.231,3.455,2.745,4.329c1.514,0.874,2.745,0.355,2.745-1.159
								C132.153,259.532,130.922,257.591,129.408,256.717z"/>
						</g>
						<g>
							<path style="fill:#F33B3B;" d="M129.408,255.05c-0.238-0.137-0.431-0.442-0.431-0.68v-2.985c0-0.239,0.193-0.32,0.431-0.183
								c0.238,0.138,0.431,0.442,0.431,0.68v2.985C129.839,255.106,129.646,255.188,129.408,255.05z"/>
						</g>
						<g>
							<path style="fill:#F33B3B;" d="M126.987,254.301c-0.149-0.086-0.294-0.248-0.374-0.432l-1.493-3.447
								c-0.119-0.275-0.048-0.497,0.158-0.498c0.206,0,0.47,0.224,0.589,0.498l1.493,3.447c0.119,0.275,0.048,0.497-0.158,0.498
								C127.134,254.367,127.061,254.344,126.987,254.301z"/>
						</g>
						<g>
							<path style="fill:#F33B3B;" d="M125.213,255.05c-0.073-0.042-0.147-0.104-0.215-0.182l-2.585-2.985
								c-0.206-0.239-0.276-0.542-0.158-0.68c0.119-0.137,0.382-0.057,0.589,0.183l2.585,2.985c0.206,0.239,0.276,0.542,0.158,0.68
								C125.508,255.141,125.362,255.136,125.213,255.05z"/>
						</g>
						<g>
							<path style="fill:#F33B3B;" d="M124.565,257.097l-2.985-1.724c-0.238-0.137-0.431-0.442-0.431-0.68
								c0-0.238,0.193-0.32,0.431-0.183l2.985,1.724c0.238,0.137,0.431,0.442,0.431,0.68
								C124.996,257.152,124.803,257.234,124.565,257.097z"/>
						</g>
						<g>
							<path style="fill:#F33B3B;" d="M122.63,259.893c-0.149-0.086-0.294-0.248-0.374-0.432c-0.119-0.275-0.048-0.497,0.158-0.498
								h2.585c0.206,0,0.469,0.223,0.589,0.498c0.119,0.275,0.048,0.497-0.158,0.498h-2.585
								C122.777,259.959,122.703,259.935,122.63,259.893z"/>
						</g>
						<g>
							<path style="fill:#F33B3B;" d="M125.494,264.412c-0.073-0.042-0.147-0.104-0.215-0.182c-0.206-0.239-0.276-0.542-0.158-0.68
								l1.493-1.723c0.119-0.136,0.381-0.056,0.589,0.182c0.206,0.239,0.276,0.542,0.158,0.68l-1.493,1.723
								C125.788,264.503,125.642,264.498,125.494,264.412z"/>
						</g>
						<g>
							<path style="fill:#F33B3B;" d="M129.408,267.72c-0.238-0.137-0.431-0.442-0.431-0.68v-2.985c0-0.238,0.193-0.32,0.431-0.183
								c0.238,0.137,0.431,0.442,0.431,0.68v2.985C129.839,267.776,129.646,267.857,129.408,267.72z"/>
						</g>
						<g>
							<path style="fill:#F33B3B;" d="M133.323,268.932c-0.149-0.086-0.294-0.248-0.374-0.431l-1.493-3.447
								c-0.119-0.276-0.048-0.497,0.157-0.498c0.205,0,0.469,0.224,0.589,0.497l1.493,3.447c0.119,0.276,0.049,0.497-0.157,0.498
								C133.47,268.998,133.396,268.974,133.323,268.932z"/>
						</g>
						<g>
							<path style="fill:#F33B3B;" d="M136.186,267.72c-0.073-0.042-0.147-0.104-0.215-0.182l-2.585-2.985
								c-0.206-0.239-0.276-0.542-0.158-0.68c0.119-0.137,0.382-0.056,0.589,0.182l2.585,2.985c0.206,0.239,0.277,0.542,0.158,0.68
								C136.48,267.811,136.335,267.806,136.186,267.72z"/>
						</g>
						<g>
							<path style="fill:#F33B3B;" d="M137.236,264.412l-2.985-1.724c-0.238-0.137-0.431-0.442-0.431-0.68
								c0-0.239,0.193-0.32,0.431-0.183l2.985,1.723c0.238,0.137,0.431,0.442,0.431,0.68
								C137.667,264.468,137.474,264.549,137.236,264.412z"/>
						</g>
						<g>
							<path style="fill:#F33B3B;" d="M133.602,259.893c-0.149-0.086-0.294-0.248-0.374-0.432c-0.119-0.275-0.048-0.497,0.158-0.498
								h2.585c0.206-0.001,0.469,0.223,0.589,0.498c0.119,0.276,0.048,0.497-0.158,0.498h-2.585
								C133.749,259.959,133.676,259.935,133.602,259.893z"/>
						</g>
						<g>
							<path style="fill:#F33B3B;" d="M131.828,257.096c-0.073-0.042-0.147-0.104-0.215-0.182c-0.206-0.239-0.276-0.542-0.157-0.68
								l1.493-1.723c0.118-0.137,0.381-0.056,0.589,0.182c0.206,0.239,0.276,0.542,0.157,0.68l-1.493,1.723
								C132.122,257.188,131.977,257.182,131.828,257.096z"/>
						</g>
					</g>
					<g>
						<g>
							<path style="fill:#1292A7;" d="M98.401,340.714c-1.989-1.148-3.607-3.701-3.607-5.691c0-1.989,1.618-2.673,3.607-1.525
								c1.989,1.148,3.607,3.701,3.607,5.69C102.008,341.178,100.39,341.863,98.401,340.714z M98.401,334.362
								c-1.514-0.874-2.745-0.355-2.745,1.159c0,1.514,1.231,3.456,2.745,4.331c1.514,0.874,2.745,0.354,2.745-1.16
								C101.147,337.177,99.915,335.236,98.401,334.362z"/>
						</g>
						<g>
							<path style="fill:#1292A7;" d="M98.401,331.867L98.401,331.867c-0.12-0.071-0.235-0.186-0.317-0.322l-1.991-3.307
								c-0.162-0.269-0.15-0.535,0.025-0.595c0.174-0.062,0.447,0.106,0.609,0.375l1.675,2.783l1.684-0.843
								c0.163-0.081,0.435,0.067,0.609,0.329c0.175,0.262,0.185,0.541,0.023,0.621l-2.001,1.002
								C98.636,331.952,98.521,331.936,98.401,331.867z"/>
						</g>
						<g>
							<path style="fill:#1292A7;" d="M94.392,331.214c-0.006-0.003-0.011-0.008-0.018-0.011l-2.935-1.813
								c-0.237-0.146-0.423-0.454-0.412-0.686c0.009-0.232,0.203-0.28,0.448-0.154l2.469,1.525l-0.094-2.53
								c-0.009-0.243,0.177-0.336,0.414-0.207c0.26,0.147,0.438,0.43,0.447,0.672l0.111,3.005c0.004,0.122-0.042,0.213-0.127,0.249
								C94.615,331.298,94.506,331.28,94.392,331.214z"/>
						</g>
						<g>
							<path style="fill:#1292A7;" d="M90.573,335.01c-0.116-0.067-0.231-0.181-0.317-0.322c-0.161-0.269-0.15-0.534,0.025-0.595
								l1.815-0.629l-1.816-2.733c-0.175-0.262-0.185-0.541-0.023-0.622c0.163-0.081,0.435,0.067,0.609,0.329l2.158,3.247
								c0.088,0.132,0.138,0.275,0.138,0.395c0,0.121-0.05,0.206-0.139,0.237l-2.158,0.746
								C90.783,335.093,90.678,335.07,90.573,335.01z"/>
						</g>
						<g>
							<path style="fill:#1292A7;" d="M94.274,342.099c-0.006-0.003-0.011-0.008-0.017-0.011c-0.238-0.146-0.423-0.454-0.413-0.686
								l0.099-2.412l-2.476-1.336c-0.276-0.148-0.438-0.429-0.447-0.672c-0.009-0.244,0.177-0.336,0.414-0.207l2.941,1.587
								c0.114,0.063,0.236,0.175,0.322,0.312c0.084,0.133,0.13,0.277,0.125,0.394l-0.118,2.867
								C94.696,342.159,94.505,342.232,94.274,342.099z"/>
						</g>
						<g>
							<path style="fill:#1292A7;" d="M100.393,346.516c-0.116-0.067-0.231-0.18-0.317-0.322l-1.675-2.784l-1.684,0.844
								c-0.162,0.082-0.435-0.067-0.609-0.329c-0.175-0.262-0.185-0.541-0.023-0.622l2.001-1.003
								c0.081-0.041,0.196-0.026,0.316,0.044l0.001,0c0.12,0.07,0.235,0.186,0.316,0.321l1.991,3.309
								c0.162,0.268,0.15,0.535-0.025,0.595C100.602,346.599,100.497,346.576,100.393,346.516z"/>
						</g>
						<g>
							<path style="fill:#1292A7;" d="M102.522,346.867c-0.231-0.133-0.422-0.427-0.431-0.664l-0.111-3.005
								c-0.004-0.122,0.042-0.213,0.127-0.249c0.085-0.036,0.203-0.008,0.321,0.06l2.934,1.811c0.238,0.146,0.423,0.454,0.413,0.686
								c-0.009,0.232-0.205,0.292-0.447,0.154l-2.469-1.524l0.094,2.53c0.009,0.243-0.177,0.336-0.414,0.207
								C102.533,346.872,102.527,346.87,102.522,346.867z"/>
						</g>
						<g>
							<path style="fill:#1292A7;" d="M106.229,344.058c-0.105-0.06-0.21-0.16-0.293-0.285l-2.158-3.247
								c-0.088-0.132-0.138-0.275-0.138-0.395c0-0.121,0.05-0.206,0.139-0.236l2.158-0.745c0.174-0.061,0.447,0.106,0.609,0.375
								c0.161,0.269,0.15,0.535-0.025,0.595l-1.815,0.627l1.816,2.733c0.175,0.262,0.185,0.541,0.023,0.622
								C106.46,344.145,106.345,344.125,106.229,344.058z"/>
						</g>
						<g>
							<path style="fill:#1292A7;" d="M102.411,335.844c-0.114-0.066-0.224-0.175-0.305-0.304c-0.085-0.133-0.13-0.277-0.125-0.394
								l0.117-2.867c0.009-0.232,0.221-0.285,0.447-0.154c0.238,0.146,0.423,0.454,0.413,0.686l-0.099,2.412l2.475,1.335
								c0.279,0.16,0.438,0.429,0.447,0.672c0.009,0.244-0.177,0.336-0.414,0.207l-2.94-1.586
								C102.422,335.849,102.416,335.847,102.411,335.844z"/>
						</g>
					</g>
					<g>
						<path style="fill:#F33B3B;" d="M117.253,367.27V235.952l-9.157-2.122l1.586,129.255c0,0-5.534,1.58-5.073,9.428
							c0.461,7.848,9.408,9.047,13.097,6.649C121.393,376.766,120.497,369.616,117.253,367.27z"/>
						<path style="fill:#FF5353;" d="M113.899,380.244c-0.117-0.051-15.58-1.757-2.578-15.708V236.599l-0.312-2.094l-2.913-0.675
							l1.586,129.255c0,0-6.208,2.252-5.481,9.336C104.791,378.16,109.852,380.441,113.899,380.244z"/>
						<path style="fill:#FF5353;" d="M109.667,235.952c2.095,1.21,5.491,1.21,7.586,0l-7.586-4.38
							C107.572,232.782,107.572,234.742,109.667,235.952z"/>
					</g>
					<path style="fill:#F5F5F5;" d="M109.667,233.309c2.095,1.21,5.491,1.21,7.586,0l-7.586-4.38
						C107.572,230.138,107.572,232.099,109.667,233.309z"/>
					<g>
						<path style="fill:#D4D4D4;" d="M109.667,233.309c-1.048-0.605-1.571-1.397-1.571-2.19l0,0v2.643
							c0,0.792,0.524,1.585,1.571,2.19c2.095,1.21,5.491,1.21,7.586,0v-2.643C115.158,234.518,111.762,234.518,109.667,233.309z"/>
					</g>
					<g>
						<g>
							<path style="fill:#F33B3B;" d="M126.886,238.115c0-2.558,1.603-3.152,3.576-2.013c0.98,0.566,1.769,1.487,2.259,2.297
								l-0.741,0.469c-0.407-0.642-0.872-1.186-1.482-1.538c-1.28-0.739-2.189-0.187-2.189,1.57c0,1.782,0.837,3.341,2.153,4.101
								c0.693,0.4,1.231,0.388,1.674,0.166l0.741,1.3c-0.634,0.364-1.458,0.294-2.463-0.286
								C128.441,243.042,126.886,240.71,126.886,238.115z"/>
						</g>
						<g>
							<path style="fill:#F33B3B;" d="M124.625,235.821c-0.808-0.467-1.466-1.504-1.466-2.311c0-0.809,0.658-1.086,1.466-0.62
								c0.808,0.466,1.466,1.504,1.466,2.312C126.091,236.01,125.433,236.287,124.625,235.821z M124.625,233.594
								c-0.42-0.242-0.761-0.097-0.761,0.323c0,0.419,0.341,0.958,0.761,1.2c0.42,0.242,0.761,0.097,0.761-0.322
								C125.386,234.375,125.044,233.836,124.625,233.594z"/>
						</g>
					</g>
				</g>
			</g>
			<g>
				
					<linearGradient id="SVGID_00000151503882853387003340000003937244871099264145_" gradientUnits="userSpaceOnUse" x1="120.1814" y1="200.8297" x2="120.1814" y2="208.7532">
					<stop  offset="0" style="stop-color:#F5F5F5"/>
					<stop  offset="1" style="stop-color:#C9C9C9"/>
				</linearGradient>
				<path style="fill:url(#SVGID_00000151503882853387003340000003937244871099264145_);" d="M120.866,197.591
					c-2.304-1.33-4.365-1.495-5.765-0.689l-0.009-0.005l-3.23,1.865l0.005,0.007c1.4-0.808,3.463-0.644,5.769,0.687
					c4.217,2.434,7.635,7.826,7.635,12.043v6.385l3.23-1.865v-6.385C128.501,205.417,125.082,200.025,120.866,197.591z"/>
				<g>
					<path style="fill:#E8E8E8;" d="M117.636,199.456c-4.217-2.435-7.635-0.99-7.635,3.227v6.384c2.44,0.78,4.998,1.922,7.635,3.445
						c2.637,1.522,5.195,3.334,7.635,5.372v-6.385C125.271,207.282,121.853,201.89,117.636,199.456z M117.253,208.832
						c-1.881-1.086-3.407-3.492-3.407-5.374c0-1.882,1.525-2.526,3.407-1.44c1.882,1.086,3.407,3.492,3.407,5.374
						C120.66,209.274,119.135,209.919,117.253,208.832z"/>
					<g>
						<path style="fill:#D4D4D4;" d="M117.11,201.951c-1.814-0.971-3.264-0.324-3.264,1.508c0,1.882,1.525,4.288,3.407,5.374
							c1.882,1.086,3.407,0.442,3.407-1.44c0-0.115-0.023-0.238-0.034-0.357c-0.048-0.026-0.094-0.04-0.143-0.068
							C118.717,205.948,117.282,203.77,117.11,201.951z"/>
					</g>
				</g>
			</g>
		</g>
	</g>
</g>
<g id="_1">
</g>
</svg>
