<?xml version="1.0" encoding="utf-8"?>
<!-- Generator: Adobe Illustrator 27.5.0, SVG Export Plug-In . SVG Version: 6.00 Build 0)  -->
<svg version="1.1" id="layer" xmlns="http://www.w3.org/2000/svg" xmlns:xlink="http://www.w3.org/1999/xlink" x="0px" y="0px"
	 viewBox="0 0 525 350" style="enable-background:new 0 0 525 350;" xml:space="preserve">
<linearGradient id="SVGID_1_" gradientUnits="userSpaceOnUse" x1="262.5" y1="-0.6668" x2="262.5" y2="207.3358">
	<stop  offset="0" style="stop-color:#E8AD5D"/>
	<stop  offset="0.1099" style="stop-color:#EAB56C"/>
	<stop  offset="0.321" style="stop-color:#F0C993"/>
	<stop  offset="0.6092" style="stop-color:#F9E9D2"/>
	<stop  offset="0.7386" style="stop-color:#FDF8F0"/>
	<stop  offset="0.7782" style="stop-color:#FCF6EC"/>
	<stop  offset="0.8136" style="stop-color:#F9EFE2"/>
	<stop  offset="0.8473" style="stop-color:#F5E4CF"/>
	<stop  offset="0.88" style="stop-color:#EED4B6"/>
	<stop  offset="0.9119" style="stop-color:#E6BF95"/>
	<stop  offset="0.9434" style="stop-color:#DBA66C"/>
	<stop  offset="0.9738" style="stop-color:#CF883D"/>
	<stop  offset="1" style="stop-color:#C36B0E"/>
</linearGradient>
<rect style="fill:url(#SVGID_1_);" width="525" height="350"/>
<circle style="fill:#FAB52A;" cx="244.509" cy="89.009" r="45.009"/>
<g>
	<g>
		<g>
			<path style="fill:#B65A05;" d="M349.881,181.563v70.759H525v-74.761C497.036,189.724,409.06,182.534,349.881,181.563z"/>
			<path style="fill:#DC8739;" d="M271.669,184.798c-30.343-3.499-93.502,8.366-182.667,0c-30.425-2.855-69.934,5.921-89.002-7.465
				v34h182.667h32.167H397.5v-26.199C366.605,187.821,328.958,191.404,271.669,184.798z"/>
			<g>
				<path style="fill:#C36B0E;" d="M0,218.261l352.402,0l-14.525-9.469l-34.777-7.594l-14.227-9.492l-30.035-3.322l-40.31-8.543
					c0,0-22.131,4.271-26.083,5.221c-3.952,0.949-44.262,6.17-44.262,6.17l-32.406,9.492l-44.262-7.594c0,0-16.598,0-20.55-0.475
					c-3.952-0.475-26.979-5.653-26.979-5.653l-23.985,6.234L0,193.238V218.261z"/>
				<polygon style="fill:#B65A05;" points="303.1,201.199 288.873,191.707 261.545,195.686 242.115,213.755 219.791,218.261 
					253.478,216.381 				"/>
				<polygon style="fill:#B65A05;" points="258.839,188.385 218.529,179.842 199.01,201.012 200.604,209.148 128.548,218.261 
					352.402,218.261 225.372,213.071 				"/>
				<polygon style="fill:#B65A05;" points="337.877,208.792 352.402,218.261 157.13,218.261 318.066,215.121 				"/>
				<polygon style="fill:#B65A05;" points="71.516,193.13 115.778,200.724 80.402,218.261 22.344,218.261 47.025,215.571 
					60.836,207.393 				"/>
				<polygon style="fill:#B65A05;" points="23.988,187.003 14.532,205.549 0,218.261 24.479,210.887 50.966,192.656 				"/>
			</g>
			<g>
				<path style="fill:#C36B0E;" d="M525,188.623l-2.157-0.238l-40.31-8.543c0,0-22.131,4.271-26.083,5.221
					c-3.952,0.949-44.262,6.17-44.262,6.17l-32.085,9.398v17.631l144.897,0V188.623z"/>
				<polygon style="fill:#B65A05;" points="525,196.197 506.12,213.755 483.796,218.261 517.483,216.381 525,214.081 				"/>
				<polygon style="fill:#B65A05;" points="525,218.261 525,214.526 489.377,213.071 522.843,188.385 482.533,179.842 
					463.015,201.012 464.609,209.148 392.553,218.261 				"/>
				<polygon style="fill:#B65A05;" points="525,216.235 421.134,218.261 525,218.261 				"/>
			</g>
			<g>
				<g>
					<polygon style="fill:#C67A2A;" points="0,255.95 121.251,255.95 108.036,237.059 76.396,221.91 63.452,202.974 36.126,196.346 
						0,179.558 					"/>
					<polygon style="fill:#C36B0E;" points="76.451,223.621 60.635,203.406 36.071,198.595 3.293,183.411 14.843,198.156 
						17.629,216.986 0.226,222.268 0,245.657 					"/>
					<polygon style="fill:#B96920;" points="0,255.95 121.251,255.95 0,249.923 					"/>
					<polygon style="fill:#B96920;" points="0,253.537 0,255.95 119.274,255.95 107.639,238.634 87.627,242.311 85.998,246.294 
						104.846,249.051 					"/>
					<polygon style="fill:#CF884D;" points="76.225,223.621 104.614,237.408 87.395,240.472 92.281,236.183 80.879,238.634 
						70.939,250.502 39.071,251.865 64.456,247.548 72.143,237.414 66.452,238.328 32.305,251.529 60.244,233.776 67.616,229.136 
											"/>
					<polygon style="fill:#CF884D;" points="35.846,198.595 22.987,207.214 19.013,219.219 8.726,227.53 0,237.166 0,241.809 
						13.168,228.454 22.753,219.835 31.001,208.917 62.031,204.443 					"/>
				</g>
				<g>
					<path style="fill:#C67A2A;" d="M525,179.96c-4.775,2.029-19.193,8.183-22.183,9.758c-3.595,1.894-40.27,12.309-40.27,12.309
						l-29.483,18.936l-40.27-15.149c0,0-15.101,0-18.697-0.947c-3.595-0.947-24.546-11.278-24.546-11.278l-21.822,12.436
						l-45.874,49.925H525V179.96z"/>
					<polygon style="fill:#CF884D;" points="285.462,254.259 327.812,208.303 349.918,196.047 333.164,213.205 335.258,221.477 
						318.272,246.6 295.002,253.034 316.177,243.536 327.082,221.885 320.061,223.769 305.474,241.391 300.354,242.617 					"/>
					<polygon style="fill:#B96920;" points="525,249.819 510.105,249.078 522.963,246 525,243.803 525,209.117 510.24,237.769 
						477.667,248.055 480.11,241.851 470.686,249.434 444.682,255.95 525,255.95 					"/>
					<polygon style="fill:#B96920;" points="525,253.626 470.686,255.95 525,255.95 					"/>
					<polygon style="fill:#B96920;" points="397.694,209.896 427.92,225.599 400.878,255.95 348.056,255.95 370.511,250.583 
						384.822,246.447 395.817,221.86 383.077,234.268 					"/>
					<polygon style="fill:#CF884D;" points="525,181.25 503.935,191.016 464.199,203.024 427.92,225.599 402.739,254.259 
						428.568,227.603 449.046,217.8 438.574,238.021 416.468,252.115 440.203,241.391 458.819,213.511 459.693,218.171 
						453.699,247.825 483.219,206.91 486.436,211.334 471.958,225.007 487.843,221.589 499.908,211.133 495.082,201.883 
						508.755,195.65 503.326,204.9 518.621,191.452 525,183.018 					"/>
					<polygon style="fill:#B96920;" points="351.663,196.583 375.435,207.084 350.071,230.063 342.472,242.004 327.139,254.202 
						323.624,255.95 299.307,255.95 320.831,249.817 347.824,219.332 352.129,202.635 341.309,211.979 					"/>
					<polygon style="fill:#CF884D;" points="394.051,208.003 375.435,207.084 359.142,221.845 366.788,217.8 361.204,224.847 
						350.071,230.063 341.694,241.399 327.035,253.96 343.789,242.931 351.933,232.82 362.832,230.055 372.024,221.936 
						378.751,220.193 376.212,227.911 363.568,239.561 358.448,248.752 347.512,254.267 359.367,251.196 364.81,242.004 
						378.074,233.119 					"/>
				</g>
			</g>
			<g>
				<path style="fill:#E99A46;" d="M525,247.764l-18.93-20.553l-45.325-16.482l-18.542-20.602l-39.145-7.211l-52.536-18.542
					c0,0-28.843,9.271-33.994,11.331c-5.151,2.06-57.687,13.392-57.687,13.392l-42.235,20.602l-57.687-16.482
					c0,0-21.632,0-26.783-1.03c-5.151-1.03-35.161-12.27-35.161-12.27l-31.26,13.531L0,247.764L525,247.764z"/>
				<polygon style="fill:#F2AB6F;" points="5.167,245.924 65.833,195.924 97.5,182.591 73.5,201.257 76.5,210.257 52.167,237.591 
					18.833,244.591 49.167,234.257 64.788,210.702 54.729,212.751 33.833,231.924 26.5,233.257 				"/>
				<polygon style="fill:#DC8739;" points="460.5,212.591 441.5,193.591 406.585,198.764 395.805,215.203 409.28,203.345 
					390.685,231.372 352.167,247.764 396.072,243.683 				"/>
				<polygon style="fill:#DC8739;" points="402.656,185.362 354.167,168.084 325.083,210.325 351.051,183.665 352.202,191.064 
					327.161,227.983 280.5,239.174 284,232.424 270.5,240.674 233.25,247.764 525,247.764 326.967,240.287 345.387,236.938 
					380.827,207.901 				"/>
				<polygon style="fill:#C36B0E;" points="402.656,185.362 382.562,178.202 386.456,184.917 377.203,187.12 335.654,232.822 
					256.717,255.142 292.425,249.191 345.387,236.938 380.827,207.901 				"/>
				<polygon style="fill:#DC8739;" points="505.5,228.924 522.167,247.764 367.608,258.333 501.5,240.257 474.5,237.257 
					476.833,232.924 				"/>
				<polygon style="fill:#F2AB6F;" points="460.5,212.591 501.167,227.591 476.5,230.924 483.5,226.257 467.167,228.924 
					452.927,241.836 407.277,243.319 443.641,238.623 454.653,227.596 446.5,228.591 397.585,242.953 437.607,223.639 
					448.167,218.591 				"/>
				<polygon style="fill:#F2AB6F;" points="440.166,191.726 402.656,185.362 384.236,194.74 378.543,207.801 363.807,216.844 
					343.043,234.259 326.967,240.287 345.387,236.938 370.17,217.848 383.901,208.471 394.284,196.749 395.717,196.592 
					390.833,213.591 379.167,217.591 359.5,234.924 379.833,220.257 392.167,215.924 402.5,195.924 				"/>
				<polygon style="fill:#DC8739;" points="165.938,197.658 209.238,214.742 170.5,247.764 94.833,247.764 127,241.924 
					147.5,237.424 163.25,210.674 145,224.174 				"/>
				<polygon style="fill:#C36B0E;" points="187.315,210.95 209.238,214.742 182.17,238.141 157.135,244.148 158.871,239.867 
					185.312,226.209 167.321,229.813 				"/>
				<polygon style="fill:#F2AB6F;" points="351.255,165.453 318.129,177.117 261.207,190.181 209.238,214.742 173.167,245.924 
					210.166,216.923 239.5,206.257 224.5,228.257 192.833,243.591 226.833,231.924 253.5,201.591 271.5,193.591 287.471,192.724 
					282.5,214.924 246.167,238.924 284.403,219.726 307.167,193.257 309.942,211.069 270.5,240.674 312.482,216.13 317.833,207.924 
					320.5,186.591 324.429,184.954 329.5,194.257 339.167,177.591 				"/>
				<polygon style="fill:#DC8739;" points="100,183.174 134.053,194.599 97.72,219.599 86.833,232.591 64.869,245.861 
					59.833,247.764 25,247.764 55.833,241.091 94.5,207.924 100.667,189.757 85.167,199.924 				"/>
				<polygon style="fill:#C36B0E;" points="110.518,186.703 134.053,194.599 97.72,219.599 86.833,232.591 64.869,245.861 
					55.833,241.091 71.918,237.414 94.271,219.759 99.794,210.573 				"/>
				<polygon style="fill:#F2AB6F;" points="160.72,195.599 134.053,194.599 110.713,210.658 121.667,206.257 113.667,213.924 
					97.72,219.599 85.72,231.932 64.72,245.599 88.72,233.599 100.386,222.599 116,219.591 129.167,210.757 138.803,208.861 
					135.167,217.257 117.053,229.932 109.72,239.932 94.053,245.932 111.036,242.591 118.833,232.591 137.833,222.924 				"/>
			</g>
			<path style="fill:#C36B0E;" d="M217.407,239.621c-44.803-6.3-181.263,10.334-217.407-5.394v74.761h524.774L525,236.043
				C483.518,223.879,393.404,264.37,217.407,239.621z"/>
			<path style="fill:#DC8739;" d="M217.5,257c140,19.667,232,9,307.5,1v78H0v-79.387C88.5,239,143.348,246.583,217.5,257z"/>
			<path style="fill:#C36B0E;" d="M268.833,268C411.867,283.156,489.5,296,525,286v50H0v-50C85.5,263.334,178.1,258.386,268.833,268
				z"/>
			<path style="fill:#E99A46;" d="M223.5,267c-45.058-4.302-194.652,6.706-223.5,16v67h525v-64C488.5,294,408.299,284.642,223.5,267
				z"/>
		</g>
		<g>
			<path style="fill:#F2AB6F;" d="M250.833,339.333c0,0,66.266-23.55,171-29c35.406-1.842,79,2.333,79,2.333
				C434.167,290.667,316.833,310,250.833,339.333z"/>
			<path style="fill:#DC8739;" d="M250.833,339.333c21.333-10.667,148.333-60.333,250-26.667
				C396.167,288,250.833,339.333,250.833,339.333z"/>
		</g>
		<g>
			<path style="fill:#DC8739;" d="M57.599,317.646c106.07,27.335,310.436,10.12,161.049-27.088
				C299.172,322.212,132.014,333.936,57.599,317.646z"/>
			<path style="fill:#F2AB6F;" d="M30.833,306.667c16-8,93.537-35.346,166.435-20.339C115.5,280.667,30.833,306.667,30.833,306.667z
				"/>
			<path style="fill:#DC8739;" d="M419.281,255.666c9.882-4.941,57.772-21.831,102.796-12.562
				C471.574,239.607,419.281,255.666,419.281,255.666z"/>
			<path style="fill:#B65A05;" d="M459.674,251.396c-13.145,5.432-76.198,22.698-133.156,6.64
				C391.044,267.188,459.674,251.396,459.674,251.396z"/>
		</g>
		<polygon style="fill:#C36B0E;" points="441.833,196.333 419.934,209.171 406.167,231.333 386.574,242.529 412.5,232.333 
			430.167,211.333 425.833,225.333 455.833,211.333 		"/>
	</g>
	<path style="fill:#E99A46;" d="M57.104,253.128c29.543-6.813,74.34-6.771,104.891,3.529
		C117.43,248.799,57.104,253.128,57.104,253.128z"/>
	<path style="fill:#DC8739;" d="M163.62,241.513c25.238-3.442,62.963-0.585,88.152,9.364
		C214.652,241.946,163.62,241.513,163.62,241.513z"/>
	<g>
		<path style="fill:#DC8739;" d="M354.738,286.405c-3.654,0-6.615,0.531-6.615,1.187c0,0.656,2.962,1.187,6.615,1.187
			c3.654,0,6.615-0.532,6.615-1.187C361.353,286.937,358.391,286.405,354.738,286.405z M353.14,287.461
			c-1.363,0-2.469-0.201-2.469-0.449c0-0.248,1.105-0.449,2.469-0.449c1.363,0,2.469,0.201,2.469,0.449
			C355.609,287.26,354.504,287.461,353.14,287.461z"/>
		<path style="fill:#F2AB6F;" d="M336.431,326.05c-2.568,0-4.65,0.374-4.65,0.835c0,0.461,2.082,0.835,4.65,0.835
			c2.568,0,4.65-0.374,4.65-0.835C341.081,326.424,338.999,326.05,336.431,326.05z M335.308,326.792
			c-0.958,0-1.735-0.141-1.735-0.316c0-0.174,0.777-0.316,1.735-0.316s1.735,0.141,1.735,0.316
			C337.044,326.651,336.267,326.792,335.308,326.792z"/>
		<path style="fill:#F2AB6F;" d="M180.014,288.939c-4.013,0-7.266,0.584-7.266,1.304c0,0.72,3.253,1.304,7.266,1.304
			c4.013,0,7.266-0.584,7.266-1.304C187.28,289.523,184.027,288.939,180.014,288.939z M178.259,290.099
			c-1.498,0-2.712-0.221-2.712-0.493c0-0.272,1.214-0.493,2.712-0.493c1.498,0,2.712,0.221,2.712,0.493
			C180.971,289.878,179.757,290.099,178.259,290.099z"/>
		<path style="fill:#DC8739;" d="M62.673,325.657c-4.013,0-7.266,0.584-7.266,1.304c0,0.72,3.253,1.304,7.266,1.304
			c4.013,0,7.266-0.584,7.266-1.304C69.939,326.241,66.686,325.657,62.673,325.657z M60.918,326.816
			c-1.498,0-2.712-0.221-2.712-0.493c0-0.272,1.214-0.493,2.712-0.493c1.498,0,2.712,0.221,2.712,0.493
			C63.63,326.595,62.416,326.816,60.918,326.816z"/>
		<path style="fill:#DC8739;" d="M71.33,330.116c-1.498,0-2.712-0.221-2.712-0.493c0-0.272,1.214-0.493,2.712-0.493
			c1.498,0,2.712,0.221,2.712,0.493C74.042,329.895,72.827,330.116,71.33,330.116z"/>
		<path style="fill:#F2AB6F;" d="M169.801,292.76c-1.498,0-2.712-0.221-2.712-0.493c0-0.272,1.214-0.493,2.712-0.493
			c1.498,0,2.712,0.221,2.712,0.493C172.513,292.539,171.298,292.76,169.801,292.76z"/>
		<ellipse style="fill:#F2AB6F;" cx="176.659" cy="294.692" rx="2.712" ry="0.493"/>
		<ellipse style="fill:#DC8739;" cx="361.131" cy="289.536" rx="2.712" ry="0.493"/>
		<path style="fill:#F2AB6F;" d="M457.772,317.526c-1.498,0-2.712-0.221-2.712-0.493c0-0.272,1.214-0.493,2.712-0.493
			c1.498,0,2.712,0.221,2.712,0.493C460.484,317.305,459.27,317.526,457.772,317.526z"/>
		<path style="fill:#F2AB6F;" d="M463.356,318.958c-2.185,0-3.956-0.322-3.956-0.72s1.771-0.72,3.956-0.72
			c2.185,0,3.956,0.322,3.956,0.72S465.541,318.958,463.356,318.958z"/>
		<path style="fill:#F2AB6F;" d="M234.606,346.125c-1.498,0-2.712-0.221-2.712-0.493c0-0.272,1.214-0.493,2.712-0.493
			c1.498,0,2.712,0.221,2.712,0.493C237.318,345.905,236.104,346.125,234.606,346.125z"/>
		<path style="fill:#DC8739;" d="M240.673,341.589c-2.56,0-4.635-0.377-4.635-0.843c0-0.466,2.075-0.843,4.635-0.843
			c2.56,0,4.635,0.378,4.635,0.843C245.308,341.211,243.233,341.589,240.673,341.589z"/>
		<path style="fill:#DC8739;" d="M40.096,318.45c-1.498,0-2.712-0.221-2.712-0.493c0-0.273,1.214-0.493,2.712-0.493
			c1.498,0,2.712,0.221,2.712,0.493C42.808,318.229,41.594,318.45,40.096,318.45z"/>
	</g>
</g>
<g>
	<path style="fill:#FBF2E5;" d="M507.057,121.695c0-1.564-18.897-2.968-48.89-3.932c2.446-0.901,3.759-1.85,3.759-2.83
		c0-4.098-22.846-7.652-56.241-9.405c2.779-0.754,4.32-1.581,4.32-2.448c0-3.545-25.634-6.419-57.256-6.419
		c-1.386,0-2.756,0.007-4.117,0.018c-2.382-1.798-16.203-3.177-32.9-3.177c-18.372,0-33.265,1.67-33.265,3.729
		c0,1.431,7.189,2.672,17.734,3.298c-3.023,0.782-4.707,1.644-4.707,2.55c0,0.302,0.2,0.599,0.561,0.89
		c-34.2,0.613-60.127,3.544-60.127,7.069c0,0.781,1.288,1.532,3.639,2.236c-48.05,0.474-82.719,1.823-82.719,3.413
		c0,1.413,27.356,2.635,67.143,3.222c-5.564,0.557-8.604,1.158-8.604,1.785c0,0.67,3.476,1.311,9.801,1.9
		c-85.343,0.822-148.448,3.74-148.448,7.215c0,2.472,31.94,4.661,81.095,6.016c-5.29,0.606-8.177,1.261-8.177,1.944
		c0,1.787,19.777,3.38,50.637,4.415c-1.2,0.314-1.854,0.641-1.854,0.976c0,2.411,32.646,4.365,72.918,4.365
		s72.918-1.954,72.918-4.365c0-0.112-0.093-0.222-0.231-0.332c44.268-0.925,74.69-2.843,74.69-5.06
		c0-0.863-4.617-1.681-12.859-2.412c40.352-1.363,65.75-3.343,65.75-5.547c0-1.691-14.966-3.251-40.164-4.501
		C476.522,125.413,507.057,123.682,507.057,121.695z"/>
	<path style="opacity:0.3;fill:#FBF2E5;" d="M26.303,98.256c0,1.156,21.284,2.193,55.065,2.906
		c-2.755,0.666-4.234,1.367-4.234,2.092c0,3.029,25.731,5.655,63.345,6.951c-3.13,0.558-4.866,1.168-4.866,1.809
		c0,2.62,28.872,4.744,64.487,4.744c1.561,0,3.104-0.006,4.637-0.014c2.683,1.329,18.249,2.348,37.055,2.348
		c20.692,0,37.467-1.234,37.467-2.756c0-1.057-8.096-1.975-19.974-2.437c3.405-0.578,5.302-1.215,5.302-1.885
		c0-0.223-0.225-0.443-0.631-0.658c38.52-0.453,67.721-2.619,67.721-5.225c0-0.577-1.451-1.132-4.099-1.652
		c54.118-0.35,93.167-1.347,93.167-2.523c0-1.044-30.811-1.947-75.623-2.381c6.267-0.412,9.69-0.856,9.69-1.319
		c0-0.495-3.915-0.969-11.039-1.404c96.122-0.607,167.197-2.764,167.197-5.332c0-1.827-35.975-3.445-91.337-4.446
		c5.958-0.448,9.21-0.932,9.21-1.437c0-1.321-22.275-2.498-57.033-3.263c1.351-0.232,2.089-0.473,2.089-0.722
		c0-1.782-36.77-3.226-82.127-3.226c-45.358,0-82.127,1.444-82.127,3.226c0,0.083,0.105,0.164,0.26,0.245
		c-49.859,0.684-84.123,2.101-84.123,3.74c0,0.638,5.2,1.242,14.483,1.783c-45.448,1.008-74.055,2.471-74.055,4.1
		c0,1.25,16.857,2.403,45.237,3.327C60.695,95.508,26.303,96.787,26.303,98.256z"/>
	<path style="opacity:0.2;fill:#B65A05;" d="M74.167,22.012c0,0.739,16.717,1.402,43.249,1.858
		c-2.164,0.426-3.325,0.874-3.325,1.337c0,1.937,20.21,3.616,49.752,4.444c-2.458,0.357-3.822,0.747-3.822,1.157
		c0,1.675,22.677,3.033,50.65,3.033c1.226,0,2.438-0.004,3.642-0.009c2.107,0.849,14.333,1.501,29.103,1.501
		c16.252,0,29.427-0.789,29.427-1.762c0-0.676-6.359-1.263-15.688-1.558c2.674-0.369,4.164-0.777,4.164-1.205
		c0-0.143-0.177-0.283-0.496-0.421c30.254-0.29,53.19-1.674,53.19-3.34c0-0.369-1.14-0.724-3.22-1.056
		c42.506-0.224,73.175-0.861,73.175-1.613c0-0.667-24.199-1.245-59.396-1.523c4.922-0.263,7.611-0.547,7.611-0.843
		c0-0.317-3.075-0.619-8.671-0.898c75.496-0.388,131.32-1.767,131.32-3.409c0-1.168-28.255-2.203-71.738-2.843
		c4.679-0.286,7.234-0.596,7.234-0.918c0-0.844-17.495-1.597-44.795-2.086c1.061-0.148,1.64-0.303,1.64-0.461
		c0-1.139-28.88-2.063-64.504-2.063s-64.504,0.924-64.504,2.063c0,0.053,0.083,0.105,0.205,0.157
		c-39.16,0.437-66.072,1.344-66.072,2.391c0,0.408,4.084,0.794,11.376,1.14c-35.696,0.644-58.164,1.58-58.164,2.621
		c0,0.799,13.24,1.536,35.53,2.127C101.179,20.255,74.167,21.073,74.167,22.012z"/>
	<path style="opacity:0.6;fill:#FBF2E5;" d="M302.988,82.747c0-1.517-20.365-2.872-52.306-3.766c1.949-0.518,3.01-1.063,3.01-1.625
		c0-2.264-16.851-4.242-41.943-5.313c1.159-0.311,1.825-0.657,1.825-1.023c0-1.335-8.617-2.418-19.247-2.418
		c-10.63,0-19.247,1.083-19.247,2.418c0,0.065,0.037,0.129,0.077,0.193c-2.132-0.012-4.278-0.02-6.451-0.02
		c-46.936,0-84.985,2.759-84.985,6.162c0,0.415,0.575,0.821,1.655,1.213c-41.613,0.854-69.438,2.406-69.438,4.179
		c0,1.672,24.738,3.146,62.443,4.025c-11.408,0.631-18.245,1.43-18.245,2.3c0,1.757,27.792,3.225,64.994,3.596
		c1.566,1.284,29.952,2.306,64.75,2.306c35.802,0,64.825-1.083,64.825-2.418c0-0.914-13.591-1.709-33.639-2.12
		c3.808-0.422,5.923-0.882,5.923-1.365c0-0.67-4.061-1.297-11.124-1.839C267.092,86.489,302.988,84.761,302.988,82.747z"/>
	<path style="opacity:0.7;fill:#F4D8B1;" d="M518.526,51.725c0-1.172-25.327-2.213-64.512-2.869
		c25.359-1.001,41.871-2.632,41.871-4.474c0-2.067-20.783-3.868-51.526-4.811c9.057-0.566,14.542-1.302,14.542-2.107
		c0-1.788-27.001-3.238-60.308-3.238c-33.307,0-60.308,1.45-60.308,3.238c0,0.743,4.671,1.427,12.508,1.973
		c-33.28,0.899-56.178,2.776-56.178,4.945c0,1.486,10.741,2.834,28.198,3.826c-73.571,0.341-128.823,1.787-128.823,3.518
		c0,1.039,19.892,1.974,51.688,2.63c-1.908,0.424-2.927,0.867-2.927,1.323c0,2.908,41.125,5.29,93.26,5.497
		c-1.534,0.285-2.372,0.587-2.372,0.899c0,1.788,27.001,3.238,60.308,3.238s60.308-1.45,60.308-3.238
		c0-1.264-13.504-2.359-33.181-2.892c14.337-0.952,22.948-2.173,22.948-3.504c0-0.31-0.475-0.614-1.375-0.91
		C488.232,54.132,518.526,53.007,518.526,51.725z"/>
	<path style="opacity:0.2;fill:#E9AF62;" d="M298.453,151.514c0-1.018-21.991-1.921-56.016-2.491
		c22.019-0.869,36.357-2.285,36.357-3.885c0-1.795-18.046-3.359-44.741-4.178c7.864-0.492,12.627-1.131,12.627-1.83
		c0-1.553-23.445-2.812-52.365-2.812s-52.365,1.259-52.365,2.812c0,0.645,4.056,1.239,10.861,1.714
		c-28.897,0.781-48.779,2.41-48.779,4.294c0,1.29,9.326,2.461,24.485,3.322c-63.882,0.297-111.858,1.551-111.858,3.055
		c0,0.902,17.273,1.714,44.881,2.284c-1.656,0.368-2.541,0.753-2.541,1.149c0,2.525,35.709,4.593,80.978,4.773
		c-1.332,0.248-2.06,0.51-2.06,0.78c0,1.553,23.445,2.812,52.365,2.812s52.365-1.259,52.365-2.812
		c0-1.098-11.725-2.048-28.812-2.511c12.449-0.827,19.926-1.887,19.926-3.042c0-0.269-0.413-0.533-1.194-0.79
		C272.149,153.604,298.453,152.627,298.453,151.514z"/>
	<path style="opacity:0.3;fill:#FBF2E5;" d="M114.555,47.393c5.197-1.09,8.278-2.444,8.278-3.912c0-0.61-0.544-1.2-1.54-1.761
		c10.814-0.606,17.54-1.451,17.54-2.387c0-1.007-7.786-1.91-20.075-2.521c0.087-0.183,0.134-0.368,0.134-0.555
		c0-2.266-6.525-4.216-15.898-5.094c0.329-0.269,0.506-0.546,0.506-0.83C103.5,27.94,91.262,26,76.167,26
		c-15.096,0-27.333,1.94-27.333,4.333c0,1.847,7.295,3.424,17.565,4.047c-0.945,0.549-1.483,1.136-1.55,1.749
		c-24.256,0.399-42.016,1.682-42.016,3.204c0,0.968,7.193,1.84,18.668,2.449c-0.926,0.542-1.428,1.111-1.428,1.699
		c0,2.468,8.709,4.616,21.548,5.722c-0.583,0.151-0.891,0.307-0.891,0.466c0,1.287,19.872,2.33,44.385,2.33
		c24.513,0,44.385-1.043,44.385-2.33C149.5,48.553,134.532,47.62,114.555,47.393z"/>
	<path style="opacity:0.2;fill:#E9AF62;" d="M401.716,115.736c-4.232,0.887-6.741,1.99-6.741,3.185c0,0.497,0.443,0.977,1.254,1.434
		c-8.806,0.493-14.283,1.181-14.283,1.944c0,0.82,6.34,1.555,16.347,2.053c-0.071,0.149-0.109,0.3-0.109,0.452
		c0,1.846,5.313,3.433,12.946,4.148c-0.268,0.219-0.412,0.445-0.412,0.676c0,1.949,9.965,3.529,22.258,3.529
		c12.293,0,22.258-1.58,22.258-3.529c0-1.504-5.941-2.788-14.303-3.296c0.769-0.447,1.208-0.925,1.262-1.424
		c19.751-0.325,34.214-1.37,34.214-2.609c0-0.789-5.857-1.498-15.202-1.994c0.754-0.441,1.163-0.905,1.163-1.383
		c0-2.01-7.091-3.759-17.547-4.66c0.475-0.123,0.725-0.25,0.725-0.38c0-1.048-16.182-1.897-36.143-1.897
		c-19.961,0-36.143,0.85-36.143,1.897C373.261,114.791,385.45,115.551,401.716,115.736z"/>
</g>
</svg>
