<?xml version="1.0" encoding="utf-8"?>
<!-- Generator: Adobe Illustrator 27.5.0, SVG Export Plug-In . SVG Version: 6.00 Build 0)  -->
<svg version="1.1" xmlns="http://www.w3.org/2000/svg" xmlns:xlink="http://www.w3.org/1999/xlink" x="0px" y="0px"
	 viewBox="0 0 1200 630" style="enable-background:new 0 0 1200 630;" xml:space="preserve">
<g id="BACKGROUND">
	<g>
		<rect style="fill:#BBF2F0;" width="1200" height="628.95"/>
		<g style="opacity:0.63;">
			<g>
				<path style="fill:#FFFFFF;" d="M1166.967,13.085c0,3.161-2.563,5.724-5.724,5.724c-3.161,0-5.724-2.563-5.724-5.724
					c0-3.161,2.563-5.724,5.724-5.724C1164.404,7.361,1166.967,9.924,1166.967,13.085z"/>
				<path style="fill:#FFFFFF;" d="M1187,77.477c0,2.371-1.922,4.293-4.293,4.293c-2.371,0-4.293-1.922-4.293-4.293
					c0-2.371,1.922-4.293,4.293-4.293C1185.078,73.184,1187,75.106,1187,77.477z"/>
				<path style="fill:#FFFFFF;" d="M1029.598,11.654c0,2.371-1.922,4.293-4.293,4.293s-4.293-1.922-4.293-4.293
					s1.922-4.293,4.293-4.293S1029.598,9.283,1029.598,11.654z"/>
				<path style="fill:#FFFFFF;" d="M1111.161,51.72c3.093,3.094,3.093,8.109,0,11.202c-3.093,3.093-8.109,3.093-11.202,0
					c-3.093-3.094-3.093-8.109,0-11.202C1103.052,48.626,1108.068,48.626,1111.161,51.72z"/>
				<path style="fill:#FFFFFF;" d="M1183.566,124.125c3.093,3.093,3.093,8.109,0,11.202c-3.094,3.093-8.109,3.093-11.202,0
					c-3.093-3.093-3.093-8.109,0-11.202C1175.457,121.031,1180.472,121.031,1183.566,124.125z"/>
				<path style="fill:#FFFFFF;" d="M965.206,74.615c3.094,3.093,3.094,8.109,0,11.202c-3.093,3.093-8.109,3.093-11.202,0
					c-3.093-3.093-3.093-8.109,0-11.202C957.098,71.521,962.113,71.521,965.206,74.615z"/>
			</g>
			<g>
				<path style="fill:#FFFFFF;" d="M66.658,13.085c0,3.161,2.563,5.724,5.724,5.724c3.161,0,5.724-2.563,5.724-5.724
					c0-3.161-2.563-5.724-5.724-5.724C69.221,7.361,66.658,9.924,66.658,13.085z"/>
				<path style="fill:#FFFFFF;" d="M46.625,77.477c0,2.371,1.922,4.293,4.293,4.293c2.371,0,4.293-1.922,4.293-4.293
					c0-2.371-1.922-4.293-4.293-4.293C48.547,73.184,46.625,75.106,46.625,77.477z"/>
				<path style="fill:#FFFFFF;" d="M204.027,11.654c0,2.371,1.922,4.293,4.292,4.293c2.371,0,4.293-1.922,4.293-4.293
					s-1.922-4.293-4.293-4.293C205.949,7.361,204.027,9.283,204.027,11.654z"/>
				<path style="fill:#FFFFFF;" d="M194.977,126.295c0,2.371,1.922,4.293,4.293,4.293c2.371,0,4.293-1.922,4.293-4.293
					c0-2.371-1.922-4.293-4.293-4.293C196.898,122.002,194.977,123.924,194.977,126.295z"/>
				<path style="fill:#FFFFFF;" d="M780.248,32.772c0,2.371,1.922,4.293,4.293,4.293c2.371,0,4.292-1.922,4.292-4.293
					s-1.922-4.293-4.292-4.293C782.17,28.479,780.248,30.401,780.248,32.772z"/>
				<path style="fill:#FFFFFF;" d="M1054.783,111.21c0,2.371,1.922,4.293,4.293,4.293s4.293-1.922,4.293-4.293
					c0-2.371-1.922-4.293-4.293-4.293S1054.783,108.84,1054.783,111.21z"/>
				<path style="fill:#FFFFFF;" d="M122.464,51.72c-3.093,3.094-3.093,8.109,0,11.202c3.093,3.093,8.109,3.093,11.202,0
					c3.094-3.094,3.094-8.109,0-11.202C130.573,48.626,125.558,48.626,122.464,51.72z"/>
				<path style="fill:#FFFFFF;" d="M101.346,130.158c-3.093,3.093-3.093,8.109,0,11.202c3.094,3.093,8.109,3.093,11.202,0
					c3.093-3.094,3.093-8.109,0-11.202C109.455,127.065,104.44,127.065,101.346,130.158z"/>
				<path style="fill:#FFFFFF;" d="M406.05,93.956c-3.093,3.093-3.093,8.109,0,11.202c3.093,3.094,8.109,3.094,11.202,0
					c3.093-3.093,3.093-8.108,0-11.202C414.158,90.863,409.143,90.863,406.05,93.956z"/>
				<path style="fill:#FFFFFF;" d="M268.419,74.615c-3.093,3.093-3.093,8.109,0,11.202c3.093,3.093,8.109,3.093,11.202,0
					c3.093-3.093,3.093-8.109,0-11.202C276.527,71.521,271.512,71.521,268.419,74.615z"/>
				<path style="fill:#FFFFFF;" d="M516.888,11.654c0,2.371,1.922,4.293,4.293,4.293c2.371,0,4.293-1.922,4.293-4.293
					s-1.922-4.293-4.293-4.293C518.809,7.361,516.888,9.283,516.888,11.654z"/>
				<path style="fill:#FFFFFF;" d="M581.279,74.615c-3.093,3.093-3.093,8.109,0,11.202c3.093,3.093,8.109,3.093,11.202,0
					c3.093-3.093,3.093-8.109,0-11.202C589.388,71.521,584.372,71.521,581.279,74.615z"/>
				<circle style="fill:#FFFFFF;" cx="644.817" cy="36.763" r="7.921"/>
				<path style="fill:#FFFFFF;" d="M443.867,27.382c-2.189,2.19-2.189,5.739,0,7.928c2.189,2.189,5.739,2.189,7.928,0
					c2.189-2.189,2.189-5.739,0-7.928C449.606,25.193,446.056,25.193,443.867,27.382z"/>
				<path style="fill:#FFFFFF;" d="M501.804,73.732c-2.189,2.189-2.189,5.739,0,7.928c2.189,2.189,5.739,2.189,7.928,0
					c2.189-2.189,2.189-5.739,0-7.928C507.543,71.543,503.993,71.543,501.804,73.732z"/>
				<path style="fill:#FFFFFF;" d="M851.107,95.299c-1.667,1.666-1.667,4.368,0,6.035c1.666,1.667,4.368,1.667,6.035,0
					c1.667-1.667,1.667-4.368,0-6.035C855.475,93.633,852.773,93.633,851.107,95.299z"/>
				<path style="fill:#FFFFFF;" d="M310.655,18.71c-1.869,1.869-1.869,4.9,0,6.769c1.869,1.869,4.9,1.869,6.769,0
					c1.869-1.869,1.869-4.9,0-6.769C315.555,16.84,312.524,16.84,310.655,18.71z"/>
			</g>
		</g>
		<path style="opacity:0.44;fill:#FFFFFF;" d="M700.625,415.461c3.657-33.537-19.826-67.979-52.382-76.826
			c-32.556-8.848-71.039,3.731-84.858,34.507c-14.004-53.669-65.482-95.241-120.894-97.632
			c-55.414-2.39-110.506,32.131-129.078,84.395c2.098-31.274-20.671-62.4-51.112-69.87c-30.441-7.472-60.931,11.732-73.55,40.423
			c-23.851-42.768-82.217-62.258-126.98-42.4C17.006,307.915-12.45,375.614,3.249,422L700.625,415.461z"/>
		<rect y="415" style="fill:#6AB4C2;" width="1200" height="215"/>
	</g>
</g>
<g id="OBJECTS">
	<g>
		<defs>
			<rect id="SVGID_1_" width="1200" height="630"/>
		</defs>
		<clipPath id="SVGID_00000064322749990450287290000002553539330260327044_">
			<use xlink:href="#SVGID_1_"  style="overflow:visible;"/>
		</clipPath>
		<g style="clip-path:url(#SVGID_00000064322749990450287290000002553539330260327044_);">
			<g>
				<g>
					<polygon style="fill:#FFDD79;" points="285.517,147.294 254.099,94.867 242.568,107.229 231.036,119.591 					"/>
					<polygon style="fill:#FFDD79;" points="88.703,-36.302 120.121,16.125 131.653,3.763 143.185,-8.599 					"/>
					<polygon style="fill:#FFDD79;" points="278.908,-42.911 226.481,-11.494 238.844,0.039 251.206,11.57 					"/>
					<polygon style="fill:#FFDD79;" points="95.312,153.903 147.74,122.485 135.377,110.954 123.015,99.422 					"/>
					<polygon style="fill:#FFDD79;" points="321.606,50.823 262.318,35.967 262.905,52.862 263.493,69.758 					"/>
					<polygon style="fill:#FFDD79;" points="52.615,60.169 111.902,75.025 111.315,58.129 110.728,41.234 					"/>
					<polygon style="fill:#FFDD79;" points="182.437,-79 167.581,-19.712 184.477,-20.299 201.372,-20.886 					"/>
					<polygon style="fill:#FFDD79;" points="191.783,189.992 206.639,130.704 189.744,131.291 172.848,131.878 					"/>
					<polygon style="fill:#FFDD79;" points="242.897,177.966 233.934,117.506 218.549,124.514 203.164,131.522 					"/>
					<polygon style="fill:#FFDD79;" points="131.324,-66.973 140.287,-6.514 155.672,-13.521 171.057,-20.529 					"/>
					<polygon style="fill:#FFDD79;" points="309.58,-0.291 249.12,8.672 256.128,24.057 263.136,39.442 					"/>
					<polygon style="fill:#FFDD79;" points="64.641,111.283 125.101,102.319 118.093,86.935 111.085,71.55 					"/>
					<polygon style="fill:#FFDD79;" points="313.156,102.648 264.067,66.234 258.143,82.068 252.22,97.902 					"/>
					<polygon style="fill:#FFDD79;" points="61.064,8.344 110.154,44.758 116.077,28.924 122,13.089 					"/>
					<polygon style="fill:#FFDD79;" points="234.262,-70.55 197.849,-21.461 213.682,-15.538 229.517,-9.614 					"/>
					<polygon style="fill:#FFDD79;" points="139.959,181.542 176.372,132.452 160.538,126.529 144.704,120.606 					"/>
				</g>
				<path style="fill:#FFDD79;" d="M268.635,85.993c-16.842,45.025-66.997,67.872-112.021,51.028
					c-45.025-16.843-67.871-66.997-51.028-112.022c16.843-45.025,66.998-67.871,112.022-51.028
					C262.633-9.186,285.478,40.968,268.635,85.993z"/>
			</g>
			<path style="fill:#FFFFFF;" d="M580.873,67.792c1.235-11.325-6.695-22.956-17.689-25.943
				c-10.994-2.988-23.989,1.26-28.655,11.653c-4.729-18.123-22.112-32.162-40.825-32.969c-18.713-0.807-37.317,10.85-43.588,28.499
				c0.708-10.561-6.98-21.072-17.26-23.594c-10.279-2.523-20.576,3.962-24.837,13.65c-8.054-14.442-27.764-21.024-42.88-14.318
				C350.023,31.475,340.076,54.336,345.377,70L580.873,67.792z"/>
			<path style="fill:#FFFFFF;" d="M170.873,192.792c1.235-11.325-6.695-22.956-17.689-25.943
				c-10.994-2.988-23.989,1.26-28.655,11.653c-4.729-18.123-22.113-32.162-40.825-32.969c-18.713-0.807-37.317,10.85-43.588,28.499
				c0.708-10.561-6.98-21.072-17.26-23.594c-10.28-2.523-20.576,3.962-24.837,13.65c-8.054-14.442-27.764-21.024-42.88-14.318
				c-15.116,6.706-25.063,29.567-19.762,45.231L170.873,192.792z"/>
			<path style="fill:#FFFFFF;" d="M1017.873,130.792c1.235-11.325-6.695-22.956-17.689-25.943
				c-10.994-2.988-23.989,1.26-28.655,11.653c-4.729-18.123-22.112-32.162-40.825-32.969c-18.713-0.807-37.317,10.85-43.588,28.499
				c0.708-10.561-6.98-21.072-17.26-23.594c-10.28-2.523-20.576,3.962-24.837,13.65c-8.054-14.442-27.764-21.024-42.88-14.318
				c-15.116,6.706-25.064,29.567-19.762,45.231L1017.873,130.792z"/>
			<path style="fill:#FFFFFF;" d="M1012.063,378.792c-1.235-11.325,6.695-22.956,17.689-25.943
				c10.994-2.988,23.989,1.26,28.656,11.653c4.729-18.123,22.112-32.162,40.825-32.969c18.713-0.807,37.317,10.85,43.588,28.499
				c-0.708-10.561,6.98-21.072,17.26-23.594c10.279-2.523,20.576,3.962,24.837,13.65c8.054-14.442,27.764-21.024,42.88-14.318
				c15.116,6.706,25.063,29.567,19.762,45.231L1012.063,378.792z"/>
		</g>
		<g style="clip-path:url(#SVGID_00000064322749990450287290000002553539330260327044_);">
			<g>
				<g>
					<g>
						<g>
							<g>
								<polygon style="fill:#BFEAF2;" points="33.145,395.616 -31.843,430.508 71.052,449.367 186.103,488.379 329.952,474.286 
									410.419,485.883 482.934,445.974 346.428,381.622 154.849,373.906 								"/>
								<polygon style="fill:#88C9EA;" points="482.934,445.974 411.111,571.302 337.436,560.213 248.051,591.721 213.167,604.017 
									124.428,544.307 101.531,576.555 -22.035,472.838 -31.843,430.508 -4.359,435.543 71.052,449.367 186.102,488.379 
									329.952,474.286 410.419,485.883 								"/>
								<polygon style="fill:#6AB4C2;" points="101.531,576.555 -22.035,472.838 -31.843,430.508 -4.359,435.543 0.114,471.387 
																	"/>
								<polygon style="fill:#6AB4C2;" points="248.051,591.721 213.167,604.017 124.428,544.307 81.232,515.239 								"/>
								<polygon style="fill:#6AB4C2;" points="337.436,560.213 313.069,504.068 369.343,565.016 								"/>
								<polygon style="fill:#6AB4C2;" points="186.102,488.379 235.589,560.576 205.791,486.45 								"/>
								<polygon style="fill:#6AB4C2;" points="56.929,446.777 69.182,479.649 71.052,449.367 								"/>
								<polygon style="fill:#6AB4C2;" points="410.419,485.883 408.252,514.901 390.883,483.067 								"/>
							</g>
							<path style="fill:#A6DCE2;" d="M284.812,424.217c-0.291,14.915-57.108,25.9-126.902,24.536
								c-69.795-1.365-126.137-14.563-125.845-29.479c0.291-14.915,57.107-25.901,126.901-24.536
								C228.76,396.103,285.103,409.301,284.812,424.217z"/>
							<path style="fill:#A6DCE2;" d="M432.035,439.099c-0.236,12.066-40.022,21.075-88.865,20.119
								c-48.843-0.955-88.248-11.511-88.012-23.578c0.236-12.067,40.022-21.075,88.865-20.12
								C392.867,416.476,432.271,427.032,432.035,439.099z"/>
							<g>
								<path style="fill:#F7F7F7;" d="M96.267,263.029c-0.073,13.555-11.121,24.484-24.675,24.411
									c-13.555-0.074-24.485-11.121-24.411-24.676c0.073-13.555,11.12-24.484,24.676-24.41
									C85.411,238.426,96.34,249.474,96.267,263.029z"/>
								<path style="fill:#BCBCBC;" d="M248.649,252.82c-31.803,15.166-27.444,23.617-44.852,40.426
									c-41.288,39.868-13.059,72.772-13.059,72.772s12.033,9.111,18.927,26.459c6.893,17.349,13.281,30.017,21.356,31.039
									c0,0,2.726,7.491,13.148,4.152c0,0,4.423,2.048,7.512-1.749c0,0,3.276,2.223,5.645-1.277
									c1.829-2.703,1.635-6.392-0.509-8.854c-1.334-1.531-3.472-2.925-6.884-3.204c0,0-11.72-17.606-3.918-39.97
									c7.802-22.364,41.111-40.402,40.48-88.549c-0.12-8.956-0.542-16.694-1.241-23.359c-0.001-0.009-0.001-0.009-0.001-0.009
									C277.936,252.104,265.962,244.559,248.649,252.82z"/>
								<path style="fill:#BCBCBC;" d="M147.909,245.971c-31.946,14.862-27.668,23.354-45.236,39.996
									c-41.668,39.472-13.752,72.644-13.752,72.644s11.946,9.225,18.674,26.638c6.727,17.414,12.994,30.143,21.058,31.241
									c0,0,2.655,7.517,13.108,4.277c0,0,4.404,2.092,7.529-1.676c0,0,3.255,2.254,5.657-1.224
									c1.854-2.686,1.696-6.377-0.424-8.858c-1.32-1.544-3.444-2.958-6.854-3.27c0,0-11.551-17.717-3.536-40.005
									c8.016-22.288,41.496-40.008,41.323-88.16c-0.034-8.957-0.382-16.699-1.018-23.369c-0.002-0.009-0.002-0.009-0.002-0.009
									C177.202,245.533,165.3,237.875,147.909,245.971z"/>
								<path style="fill:#F7F7F7;" d="M299.529,233.223c-29.535,1.56-68.385-14.197-68.385-14.197
									c-17.774-13.923-38.581-7.589-57.741-2.109c0,0-22.937,7.75-46.17,4.303c-0.32-0.048-0.639-0.083-0.959-0.126
									c-4.405-1.019-8.985-1.588-13.697-1.613c-34.238-0.184-62.142,27.42-62.328,61.659c-0.046,8.576,1.652,16.754,4.761,24.199
									c1.109,9.278,3.859,17.741,6.671,25.884c6.905,19.967,9.804,29.948,7.516,43.592c-2.289,13.643-8.453,27.451-6.294,37.797
									c0.71,3.388,3.89,6.778,8.171,9.559c8.765,5.717,22.128,8.916,28.108,4.478c8.856,0.418,4.294-9.204-3.436-13.121
									c-2.19-4.441,6.548-16.389,14.196-20.285c7.649-3.896,18.402-13.065,16.643-29.068c0,0,4.3,1.007,7.451,0.419
									c0,0-5.933-9.303-6.4-23.057c4.263-1.09,8.343-2.631,12.202-4.553c10.799,9.19,27.077,18.692,50.523,28.228
									c0,0,70.437-6.731,92.175-50.974c9.481-19.297,13.338-19.029,38.506-32.179C346.21,268.906,329.064,231.663,299.529,233.223
									z"/>
								<path style="fill:#C9CCC6;" d="M85.286,315.723c0,0,3.793,46.661,63.324,54.437c50.363,6.578,5.734-15.207,5.734-15.207
									S104.994,360.819,85.286,315.723z"/>
								<path style="fill:#C9CCC6;" d="M282.535,314.237c0,0-7.675,49.44-68.56,53.999c-51.508,3.857-4.97-15.768-4.97-15.768
									S259.997,358.938,282.535,314.237z"/>
								<path style="fill:#F7F7F7;" d="M259,265.523c0,0,0,0,0,0.01c-0.328,7.442-1.142,16.018-2.498,25.884
									c-7.299,53.037-47.483,67.408-59.912,90.716c-12.429,23.308-2.271,44.585-2.271,44.585c3.763,0.866,5.919,2.749,7.153,4.651
									c1.998,3.078,1.571,7.222-0.962,9.878c-3.207,3.364-6.456,0.418-6.456,0.418c-4.08,3.669-8.678,0.691-8.678,0.691
									c-12.19,1.964-13.989-6.719-13.989-6.719c-1.075-0.303-2.098-0.78-3.069-1.442l-0.01-0.01
									c-6.997-4.743-11.383-18.444-15.603-36.173c-3.158-13.263-9.379-22.975-13.279-28.091
									c-5.121-6.723-8.574-14.615-9.544-23.006c-1.783-15.317,2.593-37.745,32.767-58.959c2.439-1.709,4.56-3.358,6.465-4.937
									c0.01-0.01,0.01-0.01,0.01-0.02h0.01c15.479-12.886,16.461-21.933,50.308-32.136
									C240.147,244.619,252.261,254.875,259,265.523z"/>
								<path style="fill:#E6E6E6;" d="M71.072,422.169c-4.281-2.781-7.461-6.171-8.171-9.559
									c-2.159-10.345,4.006-24.153,6.294-37.797c2.288-13.644-0.611-23.625-7.516-43.592c-2.877-8.33-5.701-16.988-6.756-26.519
									l0.01-0.02c0,0,2.923,16.934,15.923,35.879c14.404,20.991,1.757,39.191-2.007,52.704
									C65.086,406.778,63.643,415.823,71.072,422.169z"/>
								<path style="fill:#E6E6E6;" d="M155.267,385.613c-0.476,29.473,10.759,46.819,11.104,47.344
									c-6.997-4.743-11.383-18.444-15.603-36.173c-3.158-13.263-9.379-22.975-13.279-28.091
									c-5.12-6.723-8.574-14.615-9.544-23.006c-1.783-15.317,2.593-37.745,32.767-58.959c2.439-1.709,4.56-3.359,6.465-4.937
									c-0.649,0.683-26.183,20.538-30.94,49.095C131.406,359.894,155.638,362.485,155.267,385.613z"/>
								<path style="fill:#F7F7F7;" d="M167.197,281.771c0,0-0.01,0.01-0.02,0.02c0.01-0.01,0.01-0.01,0.01-0.02H167.197z"/>
								<g>
									<path style="fill:#E6E6E6;" d="M311.858,220.759c0,0,11.27-8.909,16.212-7.869c4.942,1.04,7.681,8.831,6.052,16.668
										c-1.629,7.838-8.209,10.023-8.209,10.023S309.602,225.507,311.858,220.759z"/>
									<path style="fill:#F7F7F7;" d="M347.741,282.205c-0.489,6.146-7.854,11.698-7.854,11.698s-3.283,11.185-20.029,5.264
										c-4.845-1.718-7.626-2.387-9.548-2.542c0,0-12.71-1.589-21.689-0.783c-6.188,0.556-25.822,0.234-34.433-11.429
										c-13.6-18.422-5.678-31.367-3.237-34.463c0.33-0.419,0.484-0.942,0.435-1.474l0,0c-0.415-4.473-1.507-8.836-2.895-13.107
										c-3.521-10.834,2.352-21.641,9.501-21.366c8.18,0.316,15.714,9.247,15.714,9.247c10.055-8.3,13.31-6.842,26.403-9.229
										c13.083-2.389,22.584,11.834,29.838,22.529c7.264,10.695,1.166,12.154,2.251,16.339c0.98,1.664,4.803,9.424,8.968,15.677
										c2.463,3.708,4.726,7.361,5.844,10.218c0.079,0.196,0.15,0.389,0.22,0.584
										C347.616,280.466,347.801,281.428,347.741,282.205z"/>
									<path style="fill:#E6E6E6;" d="M302.692,252.82c-1.878,1.424-2.652,1.455-4.515,1.429c-2.322-0.02-8.294-1.751-3.846-4.883
										c0.011-0.01,0.011-0.01,0.02-0.019c0.155-0.1,0.33-0.22,0.504-0.33c0.812-0.501,1.579-0.79,2.306-0.917
										c0.214-0.035,0.418-0.059,0.629-0.063c1.098-0.057,2.082,0.279,2.917,0.757c0.009,0.001,0.017,0.012,0.027,0.012
										c0.922,0.536,1.653,1.273,2.164,1.89C303.418,251.314,303.326,252.346,302.692,252.82z"/>
									<path style="fill:#474747;" d="M297.685,252.925c-1.8,0.113-3.306-1.272-3.373-3.087c0.004-0.154,0.007-0.318,0.019-0.472
										c0.011-0.01,0.011-0.01,0.02-0.019c0.155-0.1,0.33-0.22,0.504-0.33c0.812-0.501,1.579-0.79,2.306-0.917
										c0.214-0.035,0.418-0.059,0.629-0.063c1.098-0.057,2.082,0.279,2.917,0.757c0.009,0.001,0.017,0.012,0.027,0.012
										c0.039,0.199,0.078,0.398,0.08,0.603C300.879,251.236,299.478,252.801,297.685,252.925z"/>
									<path style="fill:#E6E6E6;" d="M324.749,252.601c-0.432,0.349-0.52,1.048-0.179,1.446c1.012,1.18,1.516,1.296,2.739,1.515
										c1.517,0.272,5.694-0.139,3.228-2.797c-0.086-0.088-0.181-0.185-0.281-0.283c-1.317-1.266-2.674-1.273-3.786-0.876
										C325.781,251.849,325.185,252.249,324.749,252.601z"/>
									<path style="fill:#474747;" d="M326.265,252.161c-0.361,1.386,0.281,2.751,1.435,3.052c1.16,0.303,2.386-0.576,2.748-1.96
										c0.043-0.165,0.069-0.328,0.089-0.487c-0.086-0.088-0.181-0.185-0.281-0.283c-1.317-1.266-2.674-1.273-3.786-0.876
										C326.386,251.781,326.315,251.965,326.265,252.161z"/>
									<path style="fill:#474747;" d="M349.415,282.197c0.011-1.815-2.343-4.842-12.638-4.029
										c-13.24,1.045-7.7,13.069,3.171,15.85c0.781,0.2,1.603,0.076,2.305-0.319C348.048,290.432,349.398,284.836,349.415,282.197
										z"/>
									<path style="fill:#E6E6E6;" d="M255.597,244.756c0,0-0.241-7.832-1.776-13.686c-1.536-5.854,1.989-13.661,4.908-12.294
										c2.797,1.31,15.934,9.18,2.538,19.444c-1.489,1.141-2.85,2.442-3.98,3.94C256.578,243.099,255.891,244.091,255.597,244.756
										z"/>
									<path style="fill:#C9CCC6;" d="M260.493,282.224c20.207,11.91,45.285,12.979,51.047,14.554
										c-2.151,0.157-7.096,0.52-14.543,0.925c-11.563,0.63-20.53-2.76-30.132-9.232
										C260.183,283.967,254.982,279.171,260.493,282.224z"/>
								</g>
							</g>
							<g>
								<path style="fill:#BCBCBC;" d="M309.747,365.018c0,0-15.388,27.87-11.601,44.471c3.785,16.6,7.808,28.922,15.159,31.024
									c0,0,1.402,7.132,11.594,5.658c0,0,3.801,2.49,7.246-0.471c0,0,2.71,2.478,5.439-0.321c2.108-2.161,2.486-5.505,0.865-8.031
									c-1.008-1.572-2.785-3.137-5.914-3.888c0,0-8.234-17.54,2.397-36.495C345.563,378.012,309.747,365.018,309.747,365.018z"/>
								<path style="fill:#FBFBFB;" d="M388.031,398.611c0,0-1.182,54.156-82.311,32.241c-9.904-63.058-3.955-58.512,7.719-64.037
									c6.117-2.894,13.526-7.443,13.526-7.443c23.619-31.614,45.281-33.685,45.281-33.685l27.659,33.451
									c0,0,5.909,10.259,9.469,26.292C412.891,401.28,388.031,398.611,388.031,398.611z"/>
								<path style="fill:#FBFBFB;" d="M409.373,385.431c0,0,4.109,14.131,1.167,25.161c-4.448,16.68-4.644,15.907-2.255,21.006
									c2.389,5.098,5.771,11.793,0.013,14.89c-5.757,3.098-7.42-0.552-7.42-0.552s-3.418,3.536-8.639,0.924
									c0,0-6.854,1.94-9.476-2.437c0,0-7.347,1.749-4.633-6.825c2.714-8.572-1.17-22.721-1.17-22.721l5.735-27.456
									L409.373,385.431z"/>
								<path style="fill:#E6E6E6;" d="M387.684,402.997c0,0-5.058,14.108-16.625,21.154c-9.755,5.943-15.348,6.611-15.348,6.611
									l-0.558,6.355C355.154,437.116,383.678,431.225,387.684,402.997z"/>
								<path style="fill:#E6E6E6;" d="M353.721,430.527c0,0-14.111,6.062-27.338,2.706c-11.156-2.831-22.184-9.098-22.184-9.098
									l1.52,6.72C305.718,430.855,329.667,446.973,353.721,430.527z"/>
								<path style="fill:#FBFBFB;" d="M369.739,450.451c-2.385,3.074-5.371,0.911-5.371,0.911c-3.071,3.325-7.14,1.265-7.14,1.265
									c-9.95,2.585-16.202-2.625-16.202-2.625c-3.757-0.638-7.146-5.335-9.726-11.375c-2.596-6.071-4.391-13.496-4.962-19.512
									c-1.081-11.484,2.138-28.082,4.376-37.723l0.001-0.01c1.082-4.684,1.931-7.718,1.931-7.718s41.98,8.959,33.648,28.954
									c-8.343,20.004-2.97,36.539-2.97,36.539c3.195,0.402,5.143,1.769,6.326,3.215
									C371.559,444.707,371.583,448.072,369.739,450.451z"/>
								<path style="fill:#FBFBFB;" d="M311.857,363.677c0,0-31.27-0.961-33.315,45.451c-0.789,17.899,6.777,30.418,13.087,32.571
									c0,0,1.223,7.506,9.959,5.864c0,0,3.267,2.592,6.214-0.558c0,0,2.331,2.588,4.665-0.385c1.803-2.296,2.117-5.824,0.72-8.472
									c-0.869-1.648-2.398-3.283-5.084-4.047c0,0-1.5-10.525,7.566-30.596C324.735,383.432,311.857,363.677,311.857,363.677z"/>
								<path style="fill:#FBFBFB;" d="M285.612,375.296c0,0,39.552-48.979,83.763-49.03c19.721-0.022-29.605,49.628-29.605,49.628
									l-29.813,1.407L285.612,375.296z"/>
								<path style="fill:#FBFBFB;" d="M308.475,392.438c-0.738,9.329-9.158,16.31-18.807,15.591
									c-9.648-0.719-16.871-8.865-16.133-18.193c0.738-9.33,9.158-16.31,18.807-15.591
									C301.99,374.962,309.213,383.108,308.475,392.438z"/>
								<g>
									<path style="fill:#E6E6E6;" d="M391.918,302.031c0,0,5.633-5.238,8.363-4.949c2.73,0.289,4.622,4.219,4.152,8.398
										c-0.47,4.18-3.917,5.662-3.917,5.662S390.947,304.627,391.918,302.031z"/>
									<path style="fill:#FBFBFB;" d="M420.021,340.782c0.077,4.198-4.717,8.455-4.717,8.455s-1.588,5.905-9.467,6.637
										c0,0-0.007,0-0.021,0.001c-1.478,0.141-3.179,0.094-5.13-0.21c-0.066-0.009-0.132-0.019-0.198-0.029
										c-0.023-0.006-0.044-0.004-0.074-0.009c-0.499-0.078-0.982-0.144-1.465-0.203c-0.037-0.004-0.073-0.009-0.111-0.02
										c-3.192-0.41-6.149-0.576-8.916-0.608c-18.542-2.967-24.415,3.486-35.488-6.258c-11.933-10.505-0.599-21.783-4.893-33.624
										c-2.655-7.321-1.807-12.067,3.229-12.363c5.773-0.331,11.21,3.189,11.21,3.189c6.493-6.297,8.884-5.526,17.923-8.023
										c9.032-2.496,16.672,6.511,22.503,13.285c5.829,6.767,1.647,8.161,2.697,10.927c0.801,1.067,4.018,6.076,7.365,10.034
										c1.986,2.353,3.826,4.681,4.805,6.542c0.074,0.128,0.134,0.257,0.193,0.379
										C419.815,339.606,420.013,340.251,420.021,340.782z"/>
									<path style="fill:#E6E6E6;" d="M385.555,324.095c-1.468,1.311-2.12,1.399-3.695,1.529c-1.964,0.17-7.147-0.76-3.648-3.672
										c0.007-0.009,0.007-0.009,0.015-0.017c0.123-0.095,0.261-0.206,0.399-0.31c0.644-0.473,1.269-0.771,1.872-0.932
										c0.177-0.045,0.348-0.082,0.526-0.102c0.922-0.134,1.781,0.06,2.525,0.383c0.008,0,0.016,0.009,0.024,0.008
										c0.822,0.364,1.5,0.905,1.982,1.367C386.045,322.81,386.052,323.658,385.555,324.095z"/>
									<path style="fill:#474747;" d="M381.337,324.583c-1.511,0.238-2.897-0.77-3.102-2.245c-0.009-0.126-0.02-0.26-0.022-0.386
										c0.007-0.009,0.007-0.009,0.015-0.017c0.123-0.095,0.261-0.206,0.399-0.31c0.644-0.473,1.269-0.771,1.872-0.932
										c0.177-0.045,0.348-0.082,0.526-0.102c0.922-0.134,1.781,0.06,2.525,0.383c0.008,0,0.016,0.009,0.024,0.008
										c0.05,0.159,0.099,0.318,0.117,0.485C383.895,322.95,382.84,324.338,381.337,324.583z"/>
									<path style="fill:#E6E6E6;" d="M400.316,321.899c-0.294,0.356-0.24,0.93,0.116,1.188c1.054,0.763,1.494,0.767,2.547,0.724
										c1.306-0.053,4.691-1.124,2.162-2.812c-0.088-0.055-0.183-0.115-0.284-0.175c-1.323-0.779-2.447-0.542-3.297-0.027
										C401.033,321.114,400.612,321.54,400.316,321.899z"/>
									<path style="fill:#474747;" d="M401.49,321.278c-0.046,1.172,0.737,2.149,1.748,2.184c1.016,0.035,1.872-0.885,1.918-2.056
										c0.006-0.14-0.003-0.275-0.016-0.406c-0.088-0.055-0.183-0.115-0.284-0.175c-1.323-0.779-2.447-0.542-3.297-0.027
										C401.522,320.952,401.497,321.112,401.49,321.278z"/>
									<path style="fill:#E6E6E6;" d="M352.732,313.326c-1.766-2.831-1.093-7.467,0.71-7.201
										c1.727,0.255,10.113,2.351,4.471,9.799c-0.627,0.828-1.463,1.771-1.769,3.281
										C355.517,318.036,354.497,316.157,352.732,313.326z"/>
									<path style="fill:#C9CCC6;" d="M401.287,361.811c-21.663-1.194-39.107-12.193-32.874-10.744
										c12.835,3.504,25.744,3.793,29.896,4.272C398.552,355.574,401.287,361.811,401.287,361.811z"/>
									<path style="fill:#474747;" d="M420.378,340.558c-0.158-1.234-2.093-3.08-9.267-1.604
										c-9.227,1.899-4.222,9.574,3.688,10.489c0.568,0.066,1.135-0.092,1.593-0.423
										C420.172,346.279,420.609,342.354,420.378,340.558z"/>
								</g>
								<path style="fill:#E6E6E6;" d="M325.056,432.872c-8.217-25.112,5.658-51.481,5.658-51.481
									c-2.238,9.641-5.457,26.239-4.376,37.723c0.509,5.36,1.989,11.839,4.142,17.482
									C330.744,437.287,325.501,434.397,325.056,432.872z"/>
							</g>
						</g>
					</g>
				</g>
				<g>
					<polygon style="fill:#BFEAF2;" points="562.498,463.547 519.517,486.624 587.569,499.096 663.66,524.898 758.798,515.577 
						812.016,523.247 859.976,496.853 769.694,454.292 642.99,449.189 					"/>
					<polygon style="fill:#88C9EA;" points="859.976,496.853 812.474,579.741 763.747,572.407 704.631,593.245 681.56,601.378 
						622.87,561.887 607.727,583.215 526.003,514.62 519.517,486.624 537.694,489.954 587.569,499.096 663.659,524.898 
						758.798,515.577 812.016,523.247 					"/>
					<polygon style="fill:#6AB4C2;" points="607.727,583.215 526.003,514.62 519.517,486.624 537.694,489.954 540.652,513.66 					
						"/>
					<polygon style="fill:#6AB4C2;" points="704.631,593.245 681.56,601.378 622.87,561.887 594.302,542.662 					"/>
					<polygon style="fill:#6AB4C2;" points="763.747,572.407 747.632,535.274 784.85,575.583 					"/>
					<polygon style="fill:#6AB4C2;" points="663.659,524.898 696.388,572.647 676.681,523.622 					"/>
					<polygon style="fill:#6AB4C2;" points="578.228,497.384 586.332,519.124 587.569,499.096 					"/>
					<polygon style="fill:#6AB4C2;" points="812.016,523.247 810.583,542.439 799.095,521.385 					"/>
				</g>
			</g>
			<g style="opacity:0.25;">
				<path style="fill:#FFFFFF;" d="M508.18,581.808c0,0,21.56-3.248,27.052-17.228c5.492-13.98-20.505-12.21-14.334-25.617
					c6.778-14.725-29.565-22.955-54.883-20.612c-25.318,2.343,32.734,2.61,39.902,15.419c7.167,12.808-5.492,13.98,9.39,22.315
					c14.882,8.335,1.874,20.504-13.406,24.737C486.62,585.056,503.087,583.22,508.18,581.808z"/>
				<path style="fill:#FFFFFF;" d="M473.123,572.833c0,0,7.665-2.902,10.386-9.107c2.721-6.205-2.123-12.648-9.589-16.031
					c-7.466-3.382-9.789-9.746-19.826-11.637c-10.038-1.891,4.944,3.302,9.739,11.317c4.795,8.015,17.504,5.273,12.161,14.539
					c-5.343,9.267-10.436,10.678-20.623,13.5C445.183,578.238,465.458,575.736,473.123,572.833z"/>
			</g>
		</g>
		<g style="clip-path:url(#SVGID_00000064322749990450287290000002553539330260327044_);">
			<g>
				
					<text transform="matrix(1 0 0 1 482.6427 185.3008)" style="fill:#6AB4C2; font-family:'Montserrat-Black'; font-size:81.8686px;">SAVE</text>
				
					<text transform="matrix(1 0 0 1 512.7706 255.7236)" style="fill:#6AB4C2; font-family:'Montserrat-Black'; font-size:81.8686px;">THE</text>
				
					<text transform="matrix(1 0 0 1 424.1075 322.1396)" style="fill:#6AB4C2; font-family:'Montserrat-Black'; font-size:81.8686px;">PLANET</text>
			</g>
			<circle style="fill:#6AB4C2;" cx="493" cy="230" r="10"/>
			<circle style="fill:#6AB4C2;" cx="709" cy="230" r="10"/>
		</g>
		<g style="clip-path:url(#SVGID_00000064322749990450287290000002553539330260327044_);">
			<g>
				<g>
					<g>
						<path style="fill:#A1BA5E;" d="M1120.85,655.547c0,0-28.906,92.539-53.67,77.611c-24.765-14.927,12.987-50.385,12.987-50.385
							s-31.799,27.303-59.347,21.873c-27.548-5.431,59.078-50.698,59.078-50.698s-28.089,13.129-56.178,4.848
							C995.631,650.516,1050.115,618.616,1120.85,655.547z"/>
					</g>
					<g>
						<path style="fill:#19554F;" d="M1104.911,656.504c0,0-101.731,41.352-70.128,36.265
							C1065.786,687.777,1105.225,658.927,1104.911,656.504z"/>
					</g>
					<g>
						<path style="fill:#19554F;" d="M1072.148,720.603l32.597-60.554C1104.745,660.049,1084.135,715.408,1072.148,720.603z"/>
					</g>
					<g>
						<path style="fill:#19554F;" d="M1032.566,650.95l56.01-4.333C1088.577,646.617,1043.835,642.178,1032.566,650.95z"/>
					</g>
				</g>
				<g>
					<g>
						<path style="fill:#0DA375;" d="M1167.881,622.853c0,0-1.723,60.504-62.76,50.835c25.86-18.484,22.948-35.828,22.948-35.828
							s-20.516,44.941-62.104,25.675c27.21-18.345,28.803-33.181,28.803-33.181s-30.533,11.186-38.439,21.284
							c-7.906,10.098-20.6-17.795-20.6-17.795s49.535-13.031,51.917-21.117c2.381-8.086-59.457,8.753-59.457,8.753l-5.299-14.179
							c0,0,47.352-2.643,30.244-8.488c-17.108-5.846-27.134-1.42-27.134-1.42l-0.092-24.555l30.633-24.812
							c0,0,28.453,33.6,36.694,33.082c8.242-0.518-27.728-40.344-27.728-40.344l23.375-1.693c0,0,17.367,35.19,23.512,35.138
							c6.145-0.051-11.368-33.892-11.368-33.892s17.543,1.799,29.49,30.297c6.145-0.052,8.92-19.539-0.861-30.088
							C1171.289,572.067,1177.404,604.057,1167.881,622.853z"/>
					</g>
					<g>
						<path style="fill:#19554F;" d="M1049.932,584.165c0,0,77.81,5.935,112.095,36.043
							C1110.991,599.973,1049.932,584.165,1049.932,584.165z"/>
					</g>
					<g>
						<path style="fill:#19554F;" d="M1113.174,608.305l-28.727,18.471C1084.447,626.776,1114.666,617.09,1113.174,608.305z"/>
					</g>
					<g>
						<path style="fill:#19554F;" d="M1132.128,615.34l-24.476,25.822C1107.652,641.162,1136.263,622.945,1132.128,615.34z"/>
					</g>
					<g>
						<path style="fill:#19554F;" d="M1149.971,624.474c0,0,0.028,17.023-10.874,33.194
							C1148.457,648.89,1157.199,631.414,1149.971,624.474z"/>
					</g>
					<g>
						<path style="fill:#19554F;" d="M1151.282,606.942c0,0,3.11-23.628-2.13-32.576
							C1158.067,590.331,1159.215,604.034,1151.282,606.942z"/>
					</g>
					<g>
						<path style="fill:#19554F;" d="M1126.36,595.225c0,0,0.558-20.042-7.999-31.101
							C1131.564,581.416,1130.674,591.531,1126.36,595.225z"/>
					</g>
					<g>
						<path style="fill:#19554F;" d="M1108.859,586.613c0,0-2.93-16.016-15.078-24.567
							C1103.439,581.408,1105.604,588.049,1108.859,586.613z"/>
					</g>
					<g>
						<path style="fill:#19554F;" d="M1075.354,578.97l-13.673-12.913C1061.681,566.057,1065.704,581.021,1075.354,578.97z"/>
					</g>
				</g>
				<g>
					<g>
						<path style="fill:#0DA375;" d="M1226.613,617.674c0,0-46.576,38.657-79.617-13.566c30.957,7.215,42.059-6.423,42.059-6.423
							s-47.297,14.267-60.289-29.687c31.744,8.321,43.938-0.279,43.938-0.279s-28.562-15.544-41.366-14.814
							c-12.804,0.73-0.239-27.221-0.239-27.221s42.495,28.597,50.14,25.046c7.645-3.551-45.833-38.872-45.833-38.872l7.15-13.342
							c0,0,33.252,33.816,26.345,17.109c-6.906-16.708-16.851-21.315-16.851-21.315l18.38-16.282l38.861,6.621
							c0,0-6.446,43.554-0.615,49.401c5.831,5.847,11.989-47.463,11.989-47.463l16.706,16.436c0,0-14.96,36.279-10.863,40.859
							c4.096,4.581,17.947-30.916,17.947-30.916s10.232,14.362-3.28,42.152c4.096,4.581,20.564-6.203,22.027-20.514
							C1267.004,586.699,1247.016,612.414,1226.613,617.674z"/>
					</g>
					<g>
						<path style="fill:#19554F;" d="M1177.785,503.548c0,0,46.921,62.354,46.949,107.982
							C1206.231,559.841,1177.785,503.548,1177.785,503.548z"/>
					</g>
					<g>
						<path style="fill:#19554F;" d="M1201.415,566.982l-32.841-9.378C1168.575,557.605,1195.803,573.904,1201.415,566.982z"/>
					</g>
					<g>
						<path style="fill:#19554F;" d="M1208.647,585.862l-35.555-1.331C1173.093,584.531,1205.667,593.989,1208.647,585.862z"/>
					</g>
					<g>
						<path style="fill:#19554F;" d="M1213.569,605.294c0,0-12.766,11.261-32.108,13.752
							C1194.234,620.278,1213.13,615.304,1213.569,605.294z"/>
					</g>
					<g>
						<path style="fill:#19554F;" d="M1227.602,594.701c0,0,19.798-13.266,23.058-23.11
							C1244.557,588.829,1235.024,598.739,1227.602,594.701z"/>
					</g>
					<g>
						<path style="fill:#19554F;" d="M1219.945,568.249c0,0,15.42-12.815,18.075-26.544
							C1233.752,563.038,1225.568,569.049,1219.945,568.249z"/>
					</g>
					<g>
						<path style="fill:#19554F;" d="M1214.857,549.419c0,0,10.094-12.776,8.494-27.545
							C1215.186,541.911,1211.629,547.923,1214.857,549.419z"/>
					</g>
					<g>
						<path style="fill:#19554F;" d="M1198.472,519.21l0.669-18.795C1199.142,500.415,1190.561,513.317,1198.472,519.21z"/>
					</g>
				</g>
				<g>
					<g>
						<g>
							<path style="fill:#A1BA5E;" d="M1184.746,618.825c1.513-10.84-0.307-48.437-68.239-129.217l-1.503,1.264
								c80.161,95.32,67.274,130.27,67.128,130.609l1.82,0.742C1184.044,621.992,1184.457,620.896,1184.746,618.825z"/>
						</g>
						<g>
							<g>
								<path style="fill:#A1BA5E;" d="M1130.853,485.844c-6.18,14.929,1.197,25.656,1.197,25.656s8.651-9.727,4.374-25.308
									C1135.674,483.459,1131.936,483.226,1130.853,485.844z"/>
							</g>
							<g>
								<path style="fill:#A1BA5E;" d="M1107.066,505.545c15.819-3.29,24.984,5.954,24.984,5.954s-11.168,6.689-25.68-0.415
									C1103.825,509.838,1104.293,506.122,1107.066,505.545z"/>
							</g>
						</g>
						<g>
							<g>
								<path style="fill:#A1BA5E;" d="M1151.585,510.592c-7.648,14.233-1.387,25.646-1.387,25.646s9.585-8.808,6.896-24.74
									C1156.622,508.704,1152.926,508.096,1151.585,510.592z"/>
							</g>
							<g>
								<path style="fill:#A1BA5E;" d="M1125.939,527.803c16.07-1.684,24.259,8.435,24.259,8.435s-11.784,5.532-25.508-2.994
									C1122.283,531.748,1123.121,528.098,1125.939,527.803z"/>
							</g>
						</g>
						<g>
							<g>
								<path style="fill:#A1BA5E;" d="M1167.963,533.144c-8.68,13.628-3.281,25.473-3.281,25.473s10.211-8.075,8.707-24.163
									C1173.126,531.634,1169.485,530.755,1167.963,533.144z"/>
							</g>
							<g>
								<path style="fill:#A1BA5E;" d="M1141.114,548.411c16.15-0.491,23.568,10.207,23.568,10.207s-12.161,4.645-25.217-4.874
									C1137.176,552.075,1138.282,548.497,1141.114,548.411z"/>
							</g>
						</g>
						<g>
							<path style="fill:#A1BA5E;" d="M1097.478,475.132c6.647,14.727,19.515,16.698,19.515,16.698s-1.163-12.966-15.446-20.519
								C1099.043,469.985,1096.313,472.55,1097.478,475.132z"/>
						</g>
					</g>
					<g>
						<g>
							<path style="fill:#0DA375;" d="M1188.161,612.615c7.724-7.754,28.865-38.898,23.12-144.288l-1.961,0.107
								c6.781,124.362-24.524,144.55-24.844,144.733l1.008,1.687C1185.696,614.724,1186.685,614.097,1188.161,612.615z"/>
						</g>
						<g>
							<g>
								<path style="fill:#0DA375;" d="M1225.009,473.94c-13.911,8.218-14.462,21.225-14.462,21.225s12.761-2.575,18.706-17.599
									C1230.295,474.932,1227.448,472.499,1225.009,473.94z"/>
							</g>
							<g>
								<path style="fill:#0DA375;" d="M1194.157,475.391c14.621,6.877,16.39,19.774,16.39,19.774s-12.946-1.366-20.275-15.766
									C1188.987,476.874,1191.594,474.185,1194.157,475.391z"/>
							</g>
						</g>
						<g>
							<g>
								<path style="fill:#0DA375;" d="M1226.706,506.18c-14.667,6.779-16.522,19.664-16.522,19.664s12.955-1.279,20.38-15.629
									C1231.866,507.698,1229.277,504.992,1226.706,506.18z"/>
							</g>
							<g>
								<path style="fill:#0DA375;" d="M1195.864,504.523c13.856,8.311,14.319,21.321,14.319,21.321s-12.743-2.66-18.588-17.723
									C1190.571,505.479,1193.435,503.065,1195.864,504.523z"/>
							</g>
						</g>
						<g>
							<g>
								<path style="fill:#0DA375;" d="M1226.242,534.048c-15.128,5.675-17.932,18.388-17.932,18.388s13.014-0.317,21.481-14.079
									C1231.275,535.944,1228.894,533.053,1226.242,534.048z"/>
							</g>
							<g>
								<path style="fill:#0DA375;" d="M1195.607,530.114c13.203,9.314,12.703,22.322,12.703,22.322s-12.511-3.596-17.225-19.051
									C1190.258,530.676,1193.292,528.481,1195.607,530.114z"/>
							</g>
						</g>
						<g>
							<path style="fill:#0DA375;" d="M1204.772,445.321c-3.538,15.766,5.562,25.074,5.562,25.074s6.863-11.062-0.013-25.684
								C1209.116,442.148,1205.393,442.557,1204.772,445.321z"/>
						</g>
					</g>
					<g>
						<g>
							<path style="fill:#0DA375;" d="M1150.469,644.231c-0.637,10.926-9.776,47.441-92.198,113.372l-1.227-1.534
								c97.259-77.798,91.458-114.593,91.38-114.954l1.93-0.372C1150.4,640.987,1150.591,642.143,1150.469,644.231z"/>
						</g>
						<g>
							<g>
								<path style="fill:#0DA375;" d="M1071.604,764.101c-3.14-15.85,6.193-24.926,6.193-24.926s6.582,11.231-0.661,25.675
									C1075.865,767.382,1072.154,766.879,1071.604,764.101z"/>
							</g>
							<g>
								<path style="fill:#0DA375;" d="M1052.131,740.127c14.869,6.321,25.666-0.952,25.666-0.952s-9.644-8.744-25.265-4.616
									C1049.792,735.283,1049.523,739.018,1052.131,740.127z"/>
							</g>
						</g>
						<g>
							<g>
								<path style="fill:#0DA375;" d="M1096.776,743.886c-4.716-15.454,3.656-25.422,3.656-25.422s7.677,10.513,1.923,25.611
									C1101.346,746.723,1097.603,746.596,1096.776,743.886z"/>
							</g>
							<g>
								<path style="fill:#0DA375;" d="M1074.993,721.991c15.429,4.795,25.44-3.526,25.44-3.526s-10.474-7.731-25.601-2.054
									C1072.179,717.406,1072.287,721.15,1074.993,721.991z"/>
							</g>
						</g>
						<g>
							<g>
								<path style="fill:#0DA375;" d="M1117.25,724.974c-5.847-15.063,1.766-25.623,1.766-25.623s8.434,9.917,3.812,25.399
									C1122.017,727.464,1118.275,727.614,1117.25,724.974z"/>
							</g>
							<g>
								<path style="fill:#0DA375;" d="M1093.906,704.75c15.742,3.641,25.109-5.399,25.109-5.399s-11.017-6.934-25.683-0.153
									C1090.761,700.386,1091.146,704.111,1093.906,704.75z"/>
							</g>
						</g>
						<g>
							<path style="fill:#0DA375;" d="M1036.778,768.077c9.4-13.142,22.405-12.557,22.405-12.557s-3.677,12.488-19.162,17.101
								C1037.306,773.43,1035.131,770.381,1036.778,768.077z"/>
						</g>
					</g>
					<g>
						<g>
							<path style="fill:#2A926E;" d="M1217.157,618.343c0,0-31.199-88.879-151.518-96.803
								C1217.157,618.343,1217.157,618.343,1217.157,618.343z"/>
						</g>
						<g>
							<path style="fill:#A1BA5E;" d="M1217.157,618.343c0,0-93.761,9.044-151.518-96.803
								C1217.157,618.343,1217.157,618.343,1217.157,618.343z"/>
						</g>
						<g>
							
								<rect x="1135.44" y="482.897" transform="matrix(0.5384 -0.8427 0.8427 0.5384 46.9944 1219.0131)" style="fill:#19554F;" width="1.49" height="167.429"/>
						</g>
						<g>
							
								<rect x="1127.926" y="540.036" transform="matrix(0.8843 -0.4669 0.4669 0.8843 -127.977 591.0436)" style="fill:#19554F;" width="1.491" height="27.459"/>
						</g>
						<g>
							
								<rect x="1137.615" y="585.72" transform="matrix(0.9988 -0.0487 0.0487 0.9988 -27.2026 56.8124)" style="fill:#19554F;" width="28.574" height="1.49"/>
						</g>
					</g>
				</g>
			</g>
			<g>
				<g>
					<g>
						<path style="fill:#A1BA5E;" d="M516.07,643.364c0,0-109.175,27.838-109.51-5.764c-0.335-33.603,57.766-17.879,57.766-17.879
							s-46.403-14.808-57.83-45.372c-11.427-30.564,86.182,27.528,86.182,27.528s-30.118-19.781-39.056-52.619
							C444.684,516.419,509.468,550.865,516.07,643.364z"/>
					</g>
					<g>
						<path style="fill:#19554F;" d="M505.402,628.179c0,0-102.948-75.422-78.643-47.261
							C450.605,608.545,503.197,629.967,505.402,628.179z"/>
					</g>
					<g>
						<path style="fill:#19554F;" d="M422.011,634.858l79.784-4.681C501.795,630.177,434.46,643.547,422.011,634.858z"/>
					</g>
					<g>
						<path style="fill:#19554F;" d="M466.779,553.223l38.444,52.768C505.223,605.99,482.329,559.021,466.779,553.223z"/>
					</g>
				</g>
				<g>
					<g>
						<path style="fill:#0DA375;" d="M577.095,669.953c0,0-60.906,35.194-88.563-31.086c34.056,14.31,49.438,0.853,49.438,0.853
							s-56.971,7.11-63.273-45.781c34.742,15.731,50.391,8.259,50.391,8.259s-29.687-23.384-44.498-25.047
							c-14.811-1.663,5.041-31.232,5.041-31.232s43.1,41.058,52.551,38.482c9.452-2.575-44.918-53.482-44.918-53.482l10.796-13.889
							c0,0,31.492,45.233,26.841,24.744c-4.65-20.49-15.143-27.709-15.143-27.709L539.994,499l43.228,15.173
							c0,0-15.888,48.638-10.349,56.475c5.539,7.837,23.001-52.034,23.001-52.034l15.93,22.092c0,0-24.221,38.641-20.423,44.689
							c3.798,6.047,26.597-31.915,26.597-31.915s8.918,18.452-11.988,47.65c3.799,6.048,24.77-3.092,29.24-19.201
							C629.415,642.353,601.497,667.911,577.095,669.953z"/>
					</g>
					<g>
						<path style="fill:#19554F;" d="M543.438,529.673c0,0,41.58,80.596,32.703,132.874
							C565.036,599.719,543.438,529.673,543.438,529.673z"/>
					</g>
					<g>
						<path style="fill:#19554F;" d="M558.125,606.96l-35.793-17.155C522.332,589.805,550.343,613.794,558.125,606.96z"/>
					</g>
					<g>
						<path style="fill:#19554F;" d="M562.724,630.001l-40.472-8.467C522.251,621.534,557.722,638.73,562.724,630.001z"/>
					</g>
					<g>
						<path style="fill:#19554F;" d="M564.569,653.224c0,0-16.823,10.409-39.469,9.486
							C539.492,666.615,562.111,664.606,564.569,653.224z"/>
					</g>
					<g>
						<path style="fill:#19554F;" d="M582.713,643.828c0,0,25.271-11.332,30.928-21.974
							C603.283,640.411,590.428,649.903,582.713,643.828z"/>
					</g>
					<g>
						<path style="fill:#19554F;" d="M579.106,612.029c0,0,20.167-11.671,25.889-26.88
							C595.941,608.754,585.391,614.043,579.106,612.029z"/>
					</g>
					<g>
						<path style="fill:#19554F;" d="M576.953,589.462c0,0,14.058-12.666,15.109-29.898
							C578.796,580.927,573.547,587.119,576.953,589.462z"/>
					</g>
					<g>
						<path style="fill:#19554F;" d="M564.081,551.656l4.437-21.401C568.517,530.255,556.167,543.359,564.081,551.656z"/>
					</g>
				</g>
				<g>
					<g>
						<g>
							<path style="fill:#A1BA5E;" d="M591.364,684.18c11.646-5.114,47.731-29.843,86.217-146.31l-2.167-0.716
								c-45.414,137.432-87.848,145.997-88.272,146.059l0.376,2.253C587.803,685.417,589.139,685.157,591.364,684.18z"/>
						</g>
						<g>
							<g>
								<path style="fill:#A1BA5E;" d="M690.055,549.768c-18.538,2.991-24.651,16.83-24.651,16.83s14.899,2.627,27.704-11.107
									C695.354,553.083,693.305,549.243,690.055,549.768z"/>
							</g>
							<g>
								<path style="fill:#A1BA5E;" d="M656.059,538.251c12.902,13.642,9.345,28.347,9.345,28.347s-13.428-6.97-15.25-25.658
									C649.835,537.662,653.797,535.859,656.059,538.251z"/>
							</g>
						</g>
						<g>
							<g>
								<path style="fill:#A1BA5E;" d="M678.215,585.37c-18.745,1.113-26.217,14.268-26.217,14.268s14.56,4.111,28.681-8.266
									C683.155,589.201,681.502,585.175,678.215,585.37z"/>
							</g>
							<g>
								<path style="fill:#A1BA5E;" d="M645.548,570.495c11.466,14.87,6.45,29.143,6.45,29.143s-12.659-8.284-12.594-27.061
									C639.416,569.284,643.538,567.887,645.548,570.495z"/>
							</g>
						</g>
						<g>
							<g>
								<path style="fill:#A1BA5E;" d="M665.893,615.326c-18.776-0.277-27.201,12.289-27.201,12.289s14.216,5.177,29.214-6.121
									C670.535,619.512,669.184,615.374,665.893,615.326z"/>
							</g>
							<g>
								<path style="fill:#A1BA5E;" d="M634.416,598.075c10.335,15.678,4.275,29.54,4.275,29.54s-12.012-9.198-10.557-27.919
									C628.39,596.414,632.604,595.326,634.416,598.075z"/>
							</g>
						</g>
						<g>
							<path style="fill:#A1BA5E;" d="M680.299,510.218c-10.515,15.557-4.617,29.489-4.617,29.489s12.118-9.058,10.88-27.794
								C686.344,508.627,682.143,507.491,680.299,510.218z"/>
						</g>
					</g>
					<g>
						<g>
							<path style="fill:#0DA375;" d="M599.591,683.771c12.382,2.912,56.084,4.834,156.842-65.121l-1.302-1.875
								c-118.894,82.549-157.957,63.892-158.333,63.686l-1.054,2.027C596.001,682.62,597.225,683.215,599.591,683.771z"/>
						</g>
						<g>
							<g>
								<path style="fill:#0DA375;" d="M759.251,635.656c-16.614-8.751-29.817-1.364-29.817-1.364s10.329,11.054,28.818,7.773
									C761.493,641.49,762.164,637.19,759.251,635.656z"/>
							</g>
							<g>
								<path style="fill:#0DA375;" d="M739.002,606.019c2.113,18.658-9.567,28.273-9.567,28.273s-6.544-13.641,3.232-29.672
									C734.381,601.809,738.631,602.747,739.002,606.019z"/>
							</g>
						</g>
						<g>
							<g>
								<path style="fill:#0DA375;" d="M728.391,656.995c-15.651-10.376-29.529-4.353-29.529-4.353s9.166,12.036,27.891,10.63
									C730.036,663.026,731.135,658.814,728.391,656.995z"/>
							</g>
							<g>
								<path style="fill:#0DA375;" d="M711.222,625.473c0.227,18.776-12.36,27.168-12.36,27.168s-5.139-14.229,6.198-29.197
									C707.049,620.82,711.182,622.181,711.222,625.473z"/>
							</g>
						</g>
						<g>
							<g>
								<path style="fill:#0DA375;" d="M700.539,673.531c-14.84-11.505-29.126-6.526-29.126-6.526s8.251,12.681,27.028,12.665
									C701.733,679.667,703.141,675.549,700.539,673.531z"/>
							</g>
							<g>
								<path style="fill:#0DA375;" d="M685.749,640.826c-1.162,18.741-14.337,26.179-14.337,26.179s-4.072-14.57,8.342-28.659
									C681.931,635.877,685.953,637.54,685.749,640.826z"/>
							</g>
						</g>
						<g>
							<path style="fill:#0DA375;" d="M775.223,598.182c-17.754,6.115-21.414,20.794-21.414,20.794s15.129,0.043,25.4-15.676
								C781.01,600.544,778.335,597.111,775.223,598.182z"/>
						</g>
					</g>
					<g>
						<g>
							<path style="fill:#0DA375;" d="M545.328,665.764c-11.198,6.033-52.895,19.26-168.383-22.072l0.769-2.149
								c136.276,48.772,169.14,20.594,169.449,20.297l1.545,1.683C548.494,663.718,547.467,664.611,545.328,665.764z"/>
						</g>
						<g>
							<g>
								<path style="fill:#0DA375;" d="M378.647,660.846c13.765-12.772,28.435-9.074,28.435-9.074s-7.097,13.36-25.803,15.003
									C378,667.063,376.234,663.085,378.647,660.846z"/>
							</g>
							<g>
								<path style="fill:#0DA375;" d="M390.489,626.961c2.814,18.565,16.594,24.81,16.594,24.81s2.769-14.873-10.841-27.81
									C393.855,621.694,389.995,623.706,390.489,626.961z"/>
							</g>
						</g>
						<g>
							<g>
								<path style="fill:#0DA375;" d="M413.996,673.421c12.412-14.09,27.379-11.886,27.379-11.886s-5.719,14.006-24.164,17.521
									C413.977,679.672,411.82,675.891,413.996,673.421z"/>
							</g>
							<g>
								<path style="fill:#0DA375;" d="M422.373,638.518c4.665,18.189,19.003,23.017,19.003,23.017s1.26-15.076-13.581-26.579
									C425.192,632.939,421.555,635.328,422.373,638.518z"/>
							</g>
						</g>
						<g>
							<g>
								<path style="fill:#0DA375;" d="M445.192,682.141c11.336-14.97,26.425-13.879,26.425-13.879s-4.667,14.391-22.802,19.261
									C445.635,688.376,443.205,684.766,445.192,682.141z"/>
							</g>
							<g>
								<path style="fill:#0DA375;" d="M450.963,646.714c5.998,17.793,20.654,21.548,20.654,21.548s0.141-15.128-15.511-25.502
									C453.362,640.942,449.911,643.594,450.963,646.714z"/>
							</g>
						</g>
						<g>
							<path style="fill:#0DA375;" d="M353.476,628.818c18.734,1.284,26.086,14.506,26.086,14.506s-14.597,3.978-28.604-8.528
								C348.502,632.605,350.192,628.594,353.476,628.818z"/>
						</g>
					</g>
					<g>
						<g>
							<path style="fill:#2A926E;" d="M611.607,715.951c0,0,68.9-85.067,3.364-208.929
								C611.607,715.951,611.607,715.951,611.607,715.951z"/>
						</g>
						<g>
							<path style="fill:#A1BA5E;" d="M611.607,715.951c0,0-66.126-87.241,3.364-208.929
								C611.607,715.951,611.607,715.951,611.607,715.951z"/>
						</g>
						<g>
							
								<rect x="516.116" y="603.432" transform="matrix(0.0161 -0.9999 0.9999 0.0161 -0.6895 1207.8956)" style="fill:#19554F;" width="194.577" height="1.732"/>
						</g>
						<g>
							
								<rect x="605.575" y="588.164" transform="matrix(0.5078 -0.8615 0.8615 0.5078 -201.5083 825.3864)" style="fill:#19554F;" width="31.912" height="1.733"/>
						</g>
						<g>
							
								<rect x="602.482" y="615.351" transform="matrix(0.8247 -0.5656 0.5656 0.8247 -251.6532 452.0427)" style="fill:#19554F;" width="1.732" height="33.207"/>
						</g>
					</g>
					<g>
						<g>
							<path style="fill:#2A926E;" d="M611.762,714.74c0,0,106.52-25.241,130.323-163.336
								C611.762,714.74,611.762,714.74,611.762,714.74z"/>
						</g>
						<g>
							<path style="fill:#A1BA5E;" d="M611.762,714.74c0,0,0.959-109.465,130.323-163.336
								C611.762,714.74,611.762,714.74,611.762,714.74z"/>
						</g>
						<g>
							
								<rect x="584.119" y="626.586" transform="matrix(0.6237 -0.7817 0.7817 0.6237 -234.0403 768.76)" style="fill:#19554F;" width="194.577" height="1.732"/>
						</g>
						<g>
							
								<rect x="681.213" y="619.465" transform="matrix(0.9283 -0.3717 0.3717 0.9283 -180.6342 303.6027)" style="fill:#19554F;" width="31.911" height="1.733"/>
						</g>
						<g>
							
								<rect x="639.944" y="642.334" transform="matrix(0.0562 -0.9984 0.9984 0.0562 -22.5553 1262.5392)" style="fill:#19554F;" width="33.207" height="1.732"/>
						</g>
					</g>
				</g>
			</g>
			<g>
				<g>
					<g>
						<path style="fill:#A1BA5E;" d="M88.182,672.151c0,0,25.786,82.551,47.877,69.234c22.092-13.316-11.585-44.947-11.585-44.947
							s28.367,24.356,52.941,19.512c24.574-4.844-52.701-45.225-52.701-45.225s25.057,11.712,50.114,4.325
							C199.885,667.664,151.283,639.207,88.182,672.151z"/>
					</g>
					<g>
						<path style="fill:#19554F;" d="M102.401,673.005c0,0,90.75,36.889,62.559,32.35
							C137.303,700.903,102.121,675.167,102.401,673.005z"/>
					</g>
					<g>
						<path style="fill:#19554F;" d="M131.627,730.186l-29.078-54.018C102.549,676.167,120.935,725.551,131.627,730.186z"/>
					</g>
					<g>
						<path style="fill:#19554F;" d="M166.937,668.05l-49.965-3.866C116.972,664.185,156.884,660.226,166.937,668.05z"/>
					</g>
				</g>
				<g>
					<g>
						<path style="fill:#0DA375;" d="M46.227,642.986c0,0,1.537,53.974,55.986,45.348c-23.068-16.489-20.471-31.96-20.471-31.96
							s18.302,40.09,55.401,22.904c-24.273-16.365-25.694-29.6-25.694-29.6s27.238,9.979,34.29,18.987
							c7.053,9.008,18.377-15.874,18.377-15.874s-44.189-11.624-46.313-18.838c-2.124-7.213,53.039,7.808,53.039,7.808l4.727-12.649
							c0,0-42.242-2.358-26.98-7.572c15.261-5.215,24.205-1.266,24.205-1.266l0.082-21.904l-27.327-22.134
							c0,0-25.381,29.973-32.733,29.511c-7.352-0.463,24.735-35.989,24.735-35.989l-20.852-1.51c0,0-15.493,31.392-20.974,31.345
							c-5.481-0.046,10.141-30.234,10.141-30.234s-15.649,1.605-26.307,27.027c-5.482-0.046-7.957-17.43,0.768-26.84
							C43.187,597.682,37.732,626.219,46.227,642.986z"/>
					</g>
					<g>
						<path style="fill:#19554F;" d="M151.446,608.474c0,0-69.412,5.295-99.996,32.152
							C96.977,622.576,151.446,608.474,151.446,608.474z"/>
					</g>
					<g>
						<path style="fill:#19554F;" d="M95.03,630.008l25.627,16.478C120.656,646.486,93.699,637.846,95.03,630.008z"/>
					</g>
					<g>
						<path style="fill:#19554F;" d="M78.121,636.284l21.835,23.035C99.956,659.32,74.432,643.068,78.121,636.284z"/>
					</g>
					<g>
						<path style="fill:#19554F;" d="M62.204,644.433c0,0-0.025,15.185,9.7,29.611C63.555,666.213,55.757,650.623,62.204,644.433z"
							/>
					</g>
					<g>
						<path style="fill:#19554F;" d="M61.035,628.793c0,0-2.774-21.077,1.9-29.06C54.982,613.975,53.958,626.198,61.035,628.793z"/>
					</g>
					<g>
						<path style="fill:#19554F;" d="M83.266,618.341c0,0-0.497-17.879,7.136-27.744C78.625,606.021,79.418,615.045,83.266,618.341z
							"/>
					</g>
					<g>
						<path style="fill:#19554F;" d="M98.879,610.658c0,0,2.614-14.288,13.451-21.915
							C103.714,606.015,101.782,611.939,98.879,610.658z"/>
					</g>
					<g>
						<path style="fill:#19554F;" d="M128.768,603.84l12.197-11.519C140.964,592.321,137.376,605.669,128.768,603.84z"/>
					</g>
				</g>
				<g>
					<g>
						<g>
							<path style="fill:#A1BA5E;" d="M31.183,639.393c-1.349-9.67,0.274-43.209,60.874-115.27l1.341,1.128
								C21.889,610.283,33.385,641.46,33.516,641.762l-1.624,0.662C31.809,642.219,31.441,641.241,31.183,639.393z"/>
						</g>
						<g>
							<g>
								<path style="fill:#A1BA5E;" d="M79.259,520.765c5.513,13.318-1.068,22.886-1.068,22.886s-7.718-8.677-3.902-22.576
									C74.958,518.638,78.292,518.43,79.259,520.765z"/>
							</g>
							<g>
								<path style="fill:#A1BA5E;" d="M100.478,538.34c-14.111-2.935-22.287,5.312-22.287,5.312s9.963,5.967,22.908-0.37
									C103.369,542.17,102.952,538.855,100.478,538.34z"/>
							</g>
						</g>
						<g>
							<g>
								<path style="fill:#A1BA5E;" d="M60.765,542.842c6.823,12.697,1.238,22.878,1.238,22.878s-8.551-7.858-6.151-22.07
									C56.271,541.158,59.568,540.616,60.765,542.842z"/>
							</g>
							<g>
								<path style="fill:#A1BA5E;" d="M83.643,558.196c-14.335-1.503-21.64,7.524-21.64,7.524s10.512,4.935,22.755-2.671
									C86.904,561.715,86.156,558.459,83.643,558.196z"/>
							</g>
						</g>
						<g>
							<g>
								<path style="fill:#A1BA5E;" d="M46.154,562.96c7.743,12.157,2.927,22.724,2.927,22.724s-9.109-7.204-7.767-21.555
									C41.549,561.613,44.797,560.829,46.154,562.96z"/>
							</g>
							<g>
								<path style="fill:#A1BA5E;" d="M70.105,576.579c-14.407-0.438-21.024,9.105-21.024,9.105s10.848,4.144,22.495-4.348
									C73.618,579.848,72.631,576.656,70.105,576.579z"/>
							</g>
						</g>
						<g>
							<path style="fill:#A1BA5E;" d="M109.031,511.21c-5.93,13.137-17.409,14.895-17.409,14.895s1.038-11.567,13.779-18.305
								C107.635,506.619,110.07,508.906,109.031,511.21z"/>
						</g>
					</g>
					<g>
						<g>
							<path style="fill:#0DA375;" d="M28.137,633.853c-6.89-6.917-25.75-34.699-20.624-128.715l1.75,0.096
								C3.213,616.173,31.139,634.182,31.425,634.345l-0.9,1.505C30.335,635.735,29.453,635.175,28.137,633.853z"/>
						</g>
						<g>
							<g>
								<path style="fill:#0DA375;" d="M-4.735,510.147c12.41,7.331,12.901,18.934,12.901,18.934s-11.383-2.297-16.687-15.699
									C-9.45,511.031-6.91,508.861-4.735,510.147z"/>
							</g>
							<g>
								<path style="fill:#0DA375;" d="M22.787,511.44c-13.043,6.135-14.62,17.64-14.62,17.64s11.549-1.219,18.087-14.064
									C27.399,512.764,25.074,510.365,22.787,511.44z"/>
							</g>
						</g>
						<g>
							<g>
								<path style="fill:#0DA375;" d="M-6.248,538.907c13.084,6.047,14.739,17.541,14.739,17.541s-11.557-1.141-18.181-13.943
									C-10.851,540.261-8.542,537.846-6.248,538.907z"/>
							</g>
							<g>
								<path style="fill:#0DA375;" d="M21.265,537.428c-12.36,7.414-12.774,19.02-12.774,19.02s11.368-2.373,16.582-15.81
									C25.986,538.281,23.432,536.128,21.265,537.428z"/>
							</g>
						</g>
						<g>
							<g>
								<path style="fill:#0DA375;" d="M-5.834,563.767c13.495,5.063,15.996,16.403,15.996,16.403S-1.447,579.887-9,567.611
									C-10.324,565.458-8.2,562.879-5.834,563.767z"/>
							</g>
							<g>
								<path style="fill:#0DA375;" d="M21.494,560.257c-11.778,8.309-11.332,19.913-11.332,19.913s11.161-3.208,15.366-16.995
									C26.266,560.758,23.559,558.8,21.494,560.257z"/>
							</g>
						</g>
						<g>
							<path style="fill:#0DA375;" d="M13.318,484.616c3.156,14.064-4.962,22.368-4.962,22.368s-6.122-9.868,0.012-22.911
								C9.443,481.786,12.764,482.151,13.318,484.616z"/>
						</g>
					</g>
					<g>
						<g>
							<path style="fill:#0DA375;" d="M61.76,662.057c0.568,9.747,8.721,42.321,82.247,101.135l1.094-1.368
								C58.34,692.422,63.515,659.599,63.584,659.277l-1.722-0.332C61.821,659.164,61.652,660.194,61.76,662.057z"/>
						</g>
						<g>
							<g>
								<path style="fill:#0DA375;" d="M132.113,768.988c2.801-14.139-5.524-22.235-5.524-22.235s-5.871,10.019,0.59,22.903
									C128.311,771.915,131.622,771.467,132.113,768.988z"/>
							</g>
							<g>
								<path style="fill:#0DA375;" d="M149.484,747.602c-13.264,5.639-22.895-0.849-22.895-0.849s8.603-7.8,22.538-4.118
									C151.57,743.281,151.81,746.613,149.484,747.602z"/>
							</g>
						</g>
						<g>
							<g>
								<path style="fill:#0DA375;" d="M109.657,750.956c4.207-13.786-3.262-22.678-3.262-22.678s-6.848,9.379-1.715,22.847
									C105.58,753.486,108.92,753.373,109.657,750.956z"/>
							</g>
							<g>
								<path style="fill:#0DA375;" d="M129.09,731.423c-13.764,4.278-22.694-3.146-22.694-3.146s9.343-6.896,22.838-1.832
									C131.6,727.334,131.503,730.673,129.09,731.423z"/>
							</g>
						</g>
						<g>
							<g>
								<path style="fill:#0DA375;" d="M91.394,734.084c5.216-13.437-1.575-22.857-1.575-22.857s-7.524,8.846-3.401,22.658
									C87.141,736.306,90.479,736.44,91.394,734.084z"/>
							</g>
							<g>
								<path style="fill:#0DA375;" d="M112.218,716.043c-14.043,3.248-22.399-4.816-22.399-4.816s9.828-6.186,22.911-0.137
									C115.023,712.151,114.68,715.474,112.218,716.043z"/>
							</g>
						</g>
						<g>
							<path style="fill:#0DA375;" d="M163.179,772.535c-8.385-11.724-19.986-11.202-19.986-11.202s3.28,11.14,17.094,15.255
								C162.708,777.31,164.649,774.591,163.179,772.535z"/>
						</g>
					</g>
					<g>
						<g>
							<path style="fill:#2A926E;" d="M2.27,638.964c0,0,27.831-79.286,135.164-86.355C2.27,638.964,2.27,638.964,2.27,638.964z"/>
						</g>
						<g>
							<path style="fill:#A1BA5E;" d="M2.27,638.964c0,0,83.641,8.068,135.164-86.355C2.27,638.964,2.27,638.964,2.27,638.964z"/>
						</g>
						<g>
							
								<rect x="-0.177" y="592.15" transform="matrix(0.8427 -0.5384 0.5384 0.8427 -307.4457 133.3629)" style="fill:#19554F;" width="149.357" height="1.329"/>
						</g>
						<g>
							
								<rect x="68.957" y="580.69" transform="matrix(0.4669 -0.8843 0.8843 0.4669 -470.8073 381.7288)" style="fill:#19554F;" width="24.495" height="1.33"/>
						</g>
						<g>
							
								<rect x="59.817" y="597.782" transform="matrix(0.0487 -0.9988 0.9988 0.0487 -552.265 641.2224)" style="fill:#19554F;" width="1.329" height="25.489"/>
						</g>
					</g>
					<g>
						<g>
							<path style="fill:#2A926E;" d="M2.999,638.374c0,0-26.413-79.77,54.233-150.948C2.999,638.374,2.999,638.374,2.999,638.374z"
								/>
						</g>
						<g>
							<path style="fill:#A1BA5E;" d="M2.999,638.374c0,0,71.141-44.72,54.233-150.948C2.999,638.374,2.999,638.374,2.999,638.374z"
								/>
						</g>
						<g>
							
								<rect x="-42.697" y="557.042" transform="matrix(0.3381 -0.9411 0.9411 0.3381 -503.6913 399.23)" style="fill:#19554F;" width="149.357" height="1.329"/>
						</g>
						<g>
							
								<rect x="29.62" y="532.292" transform="matrix(0.9853 -0.1707 0.1707 0.9853 -92.5227 13.1652)" style="fill:#19554F;" width="1.33" height="24.495"/>
						</g>
						<g>
							
								<rect x="18.96" y="579.63" transform="matrix(0.8205 -0.5717 0.5717 0.8205 -326.0617 122.3096)" style="fill:#19554F;" width="25.489" height="1.329"/>
						</g>
					</g>
				</g>
			</g>
		</g>
		<g style="clip-path:url(#SVGID_00000064322749990450287290000002553539330260327044_);">
			<rect x="1040.746" y="212.907" style="fill:#474747;" width="10.118" height="460.465"/>
			<g>
				<polygon style="fill:#BBF2F0;" points="957.953,472.742 965.06,645.318 899.704,645.318 899.704,550.306 891.673,550.306 
					891.673,471.052 				"/>
				<path style="fill:#474747;" d="M957.953,472.742l-39.154-0.999c5.505,17.521,17.89,45.94,41.209,50.904L957.953,472.742z"/>
			</g>
			<g>
				<polygon style="fill:#BBF2F0;" points="825.394,472.742 818.288,645.318 883.643,645.318 883.643,550.306 891.673,550.306 
					891.673,471.052 				"/>
				<path style="fill:#474747;" d="M825.394,472.742l39.154-0.999c-5.505,17.521-17.89,45.94-41.209,50.904L825.394,472.742z"/>
			</g>
			<path style="fill:#474747;" d="M957.953,481.304c0,0-61.392,37.537-133.205,15.693c0.646-15.693,0.646-15.693,0.646-15.693
				H957.953z"/>
			<path style="fill:#6AB4C2;" d="M954.785,269.667c0,0,18.8,7.385,29.393,37.74c10.594,30.355,27.707,77.612,27.707,77.612
				l-33.765,31.876l-31.426-76.792L954.785,269.667z"/>
			<path style="fill:#6AB4C2;" d="M954.785,269.667l-53.782-18.763H890.64h-10.363l-53.781,18.763l-3.056,211.337
				c0,0,16.444,8.247,67.2,8.247c50.756,0,67.201-8.247,67.201-8.247L954.785,269.667z"/>
			<path style="fill:#FFD2CF;" d="M891.398,279.924c15.346,0,28.885-7.716,36.964-19.475l-27.359-9.545H890.64h-10.363
				l-26.137,9.118C862.183,272.023,875.866,279.924,891.398,279.924z"/>
			<g>
				<path style="fill:#3A3A3A;" d="M915.059,155.226c-11.001-7.64-24.418-7.334-24.418-7.334s-13.417-0.306-24.418,7.334
					c-11.001,7.64-4.107,41.594-4.107,41.594l28.525-7.835l28.526,7.835C919.166,196.819,926.06,162.865,915.059,155.226z"/>
			</g>
			<g>
				<path style="fill:#FFD2CF;" d="M854.485,203.077c0,4.838,3.922,8.76,8.76,8.76c4.838,0,8.76-3.922,8.76-8.76
					c0-4.838-3.922-8.76-8.76-8.76C858.407,194.317,854.485,198.239,854.485,203.077z"/>
			</g>
			<g>
				<path style="fill:none;" d="M860.158,194.887c1.887,1.606,3.087,3.995,3.087,6.668c0,3.75-2.361,6.94-5.673,8.189
					c-1.886-1.606-3.087-3.995-3.087-6.668C854.485,199.327,856.846,196.137,860.158,194.887z"/>
			</g>
			<g>
				
					<ellipse transform="matrix(0.5165 -0.8563 0.8563 0.5165 269.8942 884.147)" style="fill:#FFBFB8;" cx="917.876" cy="203.077" rx="8.76" ry="8.76"/>
			</g>
			<g>
				<path style="fill:#FFD2CF;" d="M920.962,194.887c-1.886,1.606-3.087,3.995-3.087,6.668c0,3.75,2.361,6.94,5.673,8.189
					c1.887-1.606,3.087-3.995,3.087-6.668C926.636,199.327,924.275,196.137,920.962,194.887z"/>
			</g>
			<g>
				<path style="fill:#FFD2CF;" d="M890.796,278.964h-0.311c-8.499,0-15.389-6.89-15.389-15.388v-40.732h31.089v40.732
					C906.185,272.075,899.295,278.964,890.796,278.964z"/>
			</g>
			<g>
				<path style="fill:#3A3A3A;" d="M875.096,217.065v29.955c17.738-1.579,31.089-16.796,31.089-16.796v-13.159H875.096z"/>
			</g>
			<g>
				<path style="fill:#FFD2CF;" d="M877.931,163.654c7.76-4.591,17.498-4.591,25.258,0c7.236,4.281,14.669,12.138,13.471,26.174
					c-2.257,26.436-8.033,44.811-26.1,46.746c-18.067-1.934-23.843-20.31-26.099-46.746
					C863.263,175.791,870.695,167.935,877.931,163.654z"/>
			</g>
			<g style="opacity:0.5;">
				<path style="fill:#FFE1D9;" d="M916.66,189.828c1.197-14.03-6.228-21.885-13.46-26.168c-7.826-4.634-17.648-4.569-25.447,0.109
					c-0.065,0.039-0.131,0.078-0.196,0.118c0,0-7.915,31.976,0,51.789c4.446,11.13,9.52,17.466,13.114,20.882
					C908.649,234.56,914.408,216.209,916.66,189.828z"/>
			</g>
			<g>
				<path style="fill:#474747;" d="M869.245,191.702c-0.393,0-0.78-0.185-1.025-0.529c-0.4-0.565-0.267-1.348,0.299-1.747
					c5.91-4.187,13.805-3.032,14.137-2.98c0.684,0.105,1.152,0.744,1.048,1.427c-0.104,0.684-0.739,1.153-1.427,1.051
					c-0.071-0.013-7.239-1.043-12.309,2.548C869.747,191.627,869.495,191.702,869.245,191.702z"/>
			</g>
			<g>
				<path style="fill:#474747;" d="M911.875,191.702c-0.25,0-0.502-0.075-0.723-0.231c-5.07-3.589-12.231-2.559-12.307-2.548
					c-0.695,0.1-1.323-0.367-1.427-1.051c-0.104-0.683,0.364-1.322,1.048-1.427c0.33-0.051,8.226-1.207,14.135,2.98
					c0.566,0.4,0.699,1.182,0.299,1.747C912.655,191.518,912.268,191.702,911.875,191.702z"/>
			</g>
			<g>
				<path style="fill:#474747;" d="M884.337,220.087c-0.174,0-0.284-0.002-0.323-0.002c-0.292-0.005-0.526-0.247-0.52-0.539
					c0.005-0.29,0.24-0.522,0.53-0.522c0.008-0.001,0.023,0,0.197,0.001c1.485,0,11.407-0.142,17.143-3.792
					c0.245-0.157,0.575-0.084,0.731,0.162c0.158,0.248,0.085,0.575-0.162,0.733C896.016,219.894,886.271,220.087,884.337,220.087z"
					/>
			</g>
			<g>
				<path style="fill:#474747;" d="M893.902,211.564h-4.987v-13.172c0-0.293,0.239-0.53,0.531-0.53c0.292,0,0.531,0.237,0.531,0.53
					v12.111h3.924c0.293,0,0.531,0.237,0.531,0.531C894.433,211.327,894.194,211.564,893.902,211.564z"/>
			</g>
			<g>
				<path style="fill:#3A3A3A;" d="M898.656,160.222c0,0-2.228,16.7-26.651,22.2c5.927-18.769,5.927-18.769,5.927-18.769
					s-8.617,19.686-15.817,21.825c-2.006-14.085,10.432-28.42,18.271-30.253C888.224,153.392,898.656,160.222,898.656,160.222z"/>
			</g>
			<g>
				<path style="fill:#474747;" d="M915.059,155.226c-11.001-7.64-24.418-7.334-24.418-7.334s-13.417-0.306-24.418,7.334
					c-2.431,1.688-3.985,4.663-4.936,8.271c5.854-1.418,15.271-4.501,21.179-10.529c2.709,6.365,0,19.387,0,19.387
					s11.756-8.104,13.753-15.626c15.233,0.027,22.625,13.663,25.074,19.442C921.345,167.523,920.036,158.682,915.059,155.226z"/>
			</g>
			<polygon style="fill:#474747;" points="954.785,269.667 965.06,384.983 956.453,363.953 			"/>
			<g>
				<path style="fill:#FFDD79;" d="M875.955,358.536l3.835,2.347c0.646,0,0.973-0.266,0.973-0.801c0-0.344-0.155-0.819-0.458-1.431
					l-8.471-15.911l-18.774,0.458c-0.842,0.04-1.259,0.478-1.259,1.316c0,0.192,0.266,0.458,0.801,0.801l3.892,2.347l-4.121,6.41
					c-1.145,1.832-1.717,3.34-1.717,4.521c0,1.071,0.38,2.273,1.145,3.606l12.763,22.265c-0.307-1.411-0.458-2.747-0.458-4.007
					c0-2.249,0.704-4.464,2.118-6.639L875.955,358.536z"/>
				<path style="fill:#FFDD79;" d="M880.878,345.544l10.531-16.312c-3.933-8.966-8.111-13.451-12.535-13.451
					c-2.673,0-4.464,0.744-5.38,2.232l-9.96,15.911L880.878,345.544z"/>
				<path style="fill:#FFDD79;" d="M872.292,389.73h20.319v-21.12h-19.575c-2.404,3.434-3.913,5.764-4.522,6.983
					c-0.993,1.946-1.488,3.932-1.488,5.952C867.026,387.003,868.78,389.73,872.292,389.73z"/>
				<path style="fill:#FFDD79;" d="M914.131,341.652l9.043-15.225c0.303-0.532,0.458-1.087,0.458-1.66
					c0-0.687-0.229-1.03-0.687-1.03c0.074,0-0.229,0.114-0.916,0.343l-4.121,1.889l-3.778-7.498
					c-1.68-3.357-5.037-5.037-10.073-5.037h-23.523c2.862,0.879,4.808,1.738,5.838,2.576c2.404,1.909,4.865,5.495,7.382,10.76
					l4.693,9.845l-3.492,1.66c-0.343,0.155-0.515,0.458-0.515,0.916c0,0.572,0.361,0.899,1.087,0.973L914.131,341.652z"/>
				<path style="fill:#FFDD79;" d="M923.174,386.582l13.164-23.926c-1.946,2.216-4.064,3.704-6.353,4.465
					c-1.832,0.613-4.448,0.916-7.842,0.916h-14.652v-3.033c0-1.181-0.286-1.774-0.859-1.774c-0.421,0-0.728,0.155-0.916,0.458
					l-9.272,16.083l9.616,14.767c0.724,1.108,1.353,1.545,1.888,1.316c0.532-0.152,0.801-0.437,0.801-0.859v-5.037h8.128
					C919.855,389.959,921.952,388.834,923.174,386.582z"/>
				<path style="fill:#FFDD79;" d="M917.45,365.004h8.757c2.098,0,4.273-0.916,6.525-2.747c2.404-1.906,3.606-3.929,3.606-6.067
					c0-0.99-0.327-1.963-0.973-2.919l-10.417-15.911l-17.916,10.417L917.45,365.004z"/>
			</g>
			<g>
				<path style="fill:#474747;" d="M905.488,196.421c0,1.875-1.289,3.395-2.879,3.395c-1.59,0-2.879-1.52-2.879-3.395
					s1.289-3.396,2.879-3.396C904.199,193.026,905.488,194.546,905.488,196.421z"/>
			</g>
			<g>
				<path style="fill:#474747;" d="M875.632,196.421c0,1.875,1.289,3.395,2.879,3.395c1.59,0,2.879-1.52,2.879-3.395
					s-1.289-3.396-2.879-3.396C876.922,193.026,875.632,194.546,875.632,196.421z"/>
			</g>
			<g>
				<path style="fill:#474747;" d="M908.151,195.72c-0.149,0-0.3-0.04-0.435-0.124c-5.757-3.543-9.712-0.223-9.878-0.081
					c-0.343,0.3-0.871,0.264-1.171-0.082c-0.301-0.345-0.268-0.868,0.076-1.17c0.049-0.044,5.013-4.289,11.844-0.084
					c0.392,0.241,0.513,0.753,0.273,1.145C908.702,195.579,908.429,195.72,908.151,195.72z"/>
			</g>
			<g>
				<path style="fill:#474747;" d="M872.969,195.72c-0.278,0-0.551-0.141-0.709-0.396c-0.24-0.392-0.119-0.904,0.273-1.145
					c6.835-4.207,11.797,0.041,11.846,0.084c0.344,0.304,0.378,0.829,0.075,1.174c-0.304,0.344-0.826,0.378-1.17,0.078l0,0
					c-0.167-0.142-4.119-3.462-9.88,0.081C873.27,195.68,873.119,195.72,872.969,195.72z"/>
			</g>
			<path style="fill:#FFD2CF;" d="M826.496,269.667c0,0-18.062,3.519-26.687,43.768c-8.625,40.248-4.667,167.823-6.538,190.393
				c-1.871,22.569,14.815,36.884,30.169,36.944C829.731,417.152,826.496,269.667,826.496,269.667z"/>
			<path style="fill:#6AB4C2;" d="M827.322,368.329c0.081-57.286-0.826-98.662-0.826-98.662s-18.062,3.519-26.687,43.768
				c-2.231,10.412-3.619,26.675-4.485,45.446C803.052,363.249,813.63,367.261,827.322,368.329z"/>
			<g>
				<path style="fill:#474747;" d="M823.337,523.902c-0.15,0-0.302-0.028-0.45-0.085c-0.541-0.21-13.274-5.365-13.913-26.584
					c-0.021-0.692,0.523-1.269,1.215-1.29c0.772,0.015,1.271,0.525,1.29,1.216c0.586,19.464,11.836,24.132,12.315,24.32
					c0.642,0.255,0.96,0.98,0.708,1.623C824.31,523.598,823.839,523.902,823.337,523.902z"/>
			</g>
			<path style="fill:#474747;" d="M823.44,540.771c5.036-98.96,3.968-213.199,3.341-254.843v-0.002l-9.524,254.051
				C819.311,540.481,821.386,540.764,823.44,540.771z"/>
			<line style="fill:none;stroke:#001E19;stroke-miterlimit:10;" x1="891.673" y1="550.306" x2="891.673" y2="489.252"/>
			<g>
				<path style="fill:#FFD2CF;" d="M977.077,401.802l30.897-128.655c2.293-9.549,10.834-16.282,20.655-16.282h9.436
					c6.163,0,11.831,3.381,14.759,8.804l2.159,3.999h2.787c5.991,0,10.65,5.213,9.978,11.167l-1.891,16.769
					c-0.672,5.957-5.528,10.568-11.512,10.932l-13.326,0.809l-20.876,102.108c-2.742,13.413-17.005,21.028-29.675,15.844
					l-0.422-0.172C980.068,423.04,974.559,412.286,977.077,401.802z"/>
			</g>
			<path style="fill:#FFD2CF;" d="M1018.763,415.784c-4.646-8.432-13.612-14.148-23.92-14.148c-7.04,0-13.437,2.688-18.278,7.064
				c0.662,8.002,5.703,15.241,13.483,18.424l0.422,0.172C1001.699,431.889,1014.16,426.421,1018.763,415.784z"/>
			<g>
				<path style="fill:#474747;" d="M1041.021,310.655h-2.832c-5.393,0-9.78-4.388-9.78-9.781v-22.258c0-5.393,4.387-9.78,9.78-9.78
					h16.795v1.664h-16.795c-4.475,0-8.116,3.641-8.116,8.116v22.258c0,4.476,3.641,8.117,8.116,8.117h2.832V310.655z"/>
			</g>
			<g>
				<rect x="1029.24" y="279.092" style="fill:#474747;" width="38.573" height="1.664"/>
			</g>
			<g>
				<rect x="1029.24" y="294.138" style="fill:#474747;" width="36.916" height="1.664"/>
			</g>
			<g>
				<path style="fill:#474747;" d="M1013.936,297.478l-0.058-1.662c12.769-0.449,14.471-11.965,14.538-12.456l1.649,0.22
					C1030.048,283.713,1028.132,296.979,1013.936,297.478z"/>
			</g>
			<g>
				<rect x="950.153" y="91.109" style="fill:#0DA375;" width="197.511" height="123.978"/>
				
					<rect x="977.058" y="46.636" transform="matrix(0.0813 -0.9967 0.9967 0.0813 813.8851 1184.1367)" style="fill:#6AB4C2;" width="144.401" height="207.907"/>
				
					<rect x="955.601" y="81.472" transform="matrix(0.0681 -0.9977 0.9977 0.0681 799.8484 1205.1187)" style="fill:none;" width="178.872" height="185.84"/>
				<text transform="matrix(0.9977 0.0681 -0.0681 0.9977 957.4431 125.315)"><tspan x="0" y="0" style="fill:#FFFFFF; font-family:'Montserrat-Black'; font-size:62.5539px;">STOP</tspan><tspan x="1.838" y="40.551" style="fill:#FFFFFF; font-family:'Montserrat-Black'; font-size:37.069px;">CLIMATE</tspan><tspan x="5.508" y="81.103" style="fill:#FFFFFF; font-family:'Montserrat-Black'; font-size:37.069px;">CHANGE</tspan></text>
			</g>
		</g>
	</g>
</g>
</svg>
